<svg xmlns="http://www.w3.org/2000/svg" width="240" height="324" fill="none" id="curly-hair-man-holding-smartphone"><path fill="#fff" fill-rule="evenodd" d="M181.079 176.597c-1.842-7.143-3.535-10.172-6.806-12.655-3.06-2.322-7.527-4.273-14.044-5.698-6.788-1.187-6.98-4.716-8.682-10.387-.497-1.705-2.957-2.159-4.019-.93a5.09 5.09 0 0 0-.467-.443c.144-.813-1.039-3.144-1-3.922.413-8.118-2.242-12.195-8.869-13.71-1.441-.33-11.229-.524-12.634-.136-6.143 1.699-12.19 7.092-11.265 13.589-1.928 2.521-3.815 4.059-6.79 4.871-6.62.841-13.24 1.589-19.862 2.229-12.963 2.033-25.116 8.896-33.423 18.904-.766.924-.988 2.178-.311 3.163-.53 2.27-3.512 7.774-1.166 9.33-3.858 9.228-12.734 27.066-12.75 32.163-.07 21.408 2.242 49.275 23.363 61.122.846.832.967 1.752 1.333 2.989.929 3.898 4.301 6.683 7.993 6.456 18.183.404 35.796-1.815 53.98-1.922 8.019-.047 17.663 1.15 24.629 1.947 6.967.798 13.999.093 20.684-1.947.564.888 1.703 1.405 2.86 1.15 6.93-1.377 12.534-5.649 17.416-10.318 1.491-2.714 7.317-10.447 5.001-13.138 2.099-8.876 1.99-18.412-1.74-26.863.529-1.549-.435-3.252 0-4.851.315-1.158 1.121-1.637 1.527-2.783.571-1.613-.05-3.778-.693-5.424-.264-.82.485-1.703.693-2.54.986-3.949-1.273-3.601-2.901-6.241.024-.008.448-1.892.446-1.883.249-1.345-.375-3.069-.92-4.192-.369-.759-1.157-1.234-1.941-1.147.789-2.68 1.787-4.91 2.861-7.493 1.898-4.551 4.301-8.91 7.027-13.03 1.117-1.687-.383-3.641-2.189-3.756a110.404 110.404 0 0 1-17.341-2.504Z" clip-rule="evenodd"></path><path fill="#000" fill-rule="evenodd" d="M164.013 211.018c-2.338-.918-4.857-1.425-7.388-1.621 1.363-.239 2.73-.47 4.107-.588.962-.082 1.853-.074 2.575.655.482.486.708 1.112 1.025 1.687a6.09 6.09 0 0 0-.319-.133Zm25.103-8.577c-3.83.195-7.665 1.106-11.13 2.756-1.417.676-2.702 1.653-3.078 3.259-.19.82-.144 1.668-.042 2.496.076.628.095 1.429.64 1.854.093.072.192.127.296.167a25.986 25.986 0 0 0-3.577 1.984c-.989.653-2.005 1.659-2.461 2.794a10.73 10.73 0 0 0-.114-.363c-.778-2.299-1.976-4.183-3.862-5.449.334-.15.564-.505.456-.995-.448-2.048-2.339-3.828-4.475-3.701-2.338.137-4.85.989-6.965 2.065a35.231 35.231 0 0 0-2.301.027c-.131.005-.124.182 0 .197.617.078 1.234.165 1.851.266 1.466.235 2.928.533 4.358.903 1.716.444 3.49.889 5.094 1.665 3.11 1.507 5.035 5.447 4.639 8.875-.065.562-.283 2.261-1.062 2.086-.659-.148-.921-1.524-1.152-2.033-.617-1.353-1.728-2.237-3.061-2.835-1.565-.703-3.241-1.179-4.863-1.732-.919-.315-1.838-.631-2.759-.943-.943-.323-1.838-.77-2.842-.543-.606.137-.676.86-.336 1.274.518.632 1.287.818 2.033 1.078l2.949 1.027c1.519.528 3.11.974 4.59 1.621l-.046.106c-.12-.034-.262.086-.239.234.222 1.368.531 2.949.188 4.318-.27 1.087-1.223 2.289-2.461 1.97a.659.659 0 0 0 .135-.767c-.49-1.048-6.912-5.187-7.485-3.65-.019.055.04.095.087.087.488-.102 1.305.731 1.696.995.564.381 1.137.752 1.695 1.143a36.6 36.6 0 0 1 1.787 1.338c.456.364.801.742 1.324.926a1.11 1.11 0 0 0-.585.685c-.236.809-.693 1.496-1.485 1.853-.83.372-1.766.138-2.641.229-1.191.12-2.231.687-3.099 1.496-1.823 1.703-2.738 4.705-5.288 5.51-1.523.48-3.213.177-4.756-.04-1.721-.244-3.399-.436-5.133-.182-1.661.243-3.231.818-4.748 1.519-1.421.658-2.993 1.402-4.255 2.382-.259-.801-.521-1.593-.72-2.411a28.76 28.76 0 0 1-.784-5.891c-.057-1.891.049-3.791.211-5.674.081-.941.208-1.877.288-2.818.021-.236.063-.49.095-.743 2.252-1.33 4.618-2.348 7.003-3.397l.019-.008a7.02 7.02 0 0 1 .22-.097.035.035 0 0 0-.008-.013c.272-.167.462-.389.576-.639 3.438-2.28 6.311-5.393 8.453-9.024.898-1.522 1.762-3.101 2.937-4.434 1.251-1.423 2.736-2.268 4.574-2.708 2.148-.515 4.363-.824 6.564-.999 1.202-.095 2.546-.243 3.856-.237.912.006 1.806.084 2.626.311 1.214.333 1.924 1.257 2.687 2.191a66.021 66.021 0 0 1 2.134 2.729c.644.885 1.253 1.8 1.781 2.76.317.575.61 1.167.857 1.777.087.216.201.461.254.685.053.226-.044.465.209.465-1.046.015-1.035 1.687.004 1.625 4.069-.236-1.759-8.183-2.611-9.29-1.206-1.569-2.451-3.615-4.382-4.344a1.393 1.393 0 0 0-.084-.029c.562-.533 1.006-1.171 1.43-1.82.438-.668.959-1.433 1.103-2.226.091-.504-.537-.792-.834-.35-.434.644-.643 1.46-.966 2.168-.33.719-.731 1.397-1.048 2.122-.763-.235-1.586-.342-2.425-.378 1.058-1.433 2.866-4.198 3.084-4.553a105.413 105.413 0 0 0 2.865-5.036c.984-1.839 1.828-3.754 2.77-5.614.534-1.054 1.073-2.117 1.667-3.14.205-.351.424-.702.674-1.021.048-.063.11-.116.167-.176l.171-.097c.342-.196.462-.653.703-.942.385-.467.837-.522 1.416-.529 1.233-.013 2.472.036 3.703.07a218.393 218.393 0 0 1 7.067.311c2.63.156 5.259.361 7.88.613 2.32.221 4.64.583 6.962.756-3.144 7.472-6.63 14.808-10.577 21.888a.911.911 0 0 0-.088.215Zm-17.442 19.248c-.507.232-1 .522-1.458.852a8.7 8.7 0 0 0 .074-1.598c.378.405.862.638 1.384.746Zm21.644-12.852a.105.105 0 0 0-.086.059c-.702 1.447-.408 3.064.737 4.199.6.592 1.908 1.26 1.865 2.232-.036.786-.891 1.446-1.257 2.095-.34.604-.466 1.268-.194 1.923.349.839 1.323 1.173 1.656 1.997.423 1.046-.264 2.308-.745 3.219-.448.843-1.027 1.687-1.412 2.578-2.575 1.334-4.88 3.38-6.862 5.458-2.169 2.272-4.031 4.945-7.476 4.878a.86.86 0 0 0-.763.426 67.46 67.46 0 0 1-2.88.068 139.62 139.62 0 0 1-5.055-.061c-.119-.408-.032-.962-.038-1.306-.021-1.11-.032-2.217-.078-3.327l-.038-.928c.606 1.097 1.789 1.596 3.137 1.52 2.167-.127 4.348-.482 6.494-.801 1.13-.167 2.259-.357 3.385-.56.925-.165 2.231-.123 2.877-.865.152-.173.161-.49-.078-.606-.64-.315-1.044-.14-1.747-.004a157.337 157.337 0 0 1-7.555 1.261c-.947.133-1.895.264-2.844.368-.828.089-1.762.209-2.429-.414-1.346-1.26-.592-3.371.26-4.644a.08.08 0 0 0 .01-.069c.803-.189 1.604-.408 2.402-.563a97.99 97.99 0 0 1 4.631-.767c3.182-.454 6.385-.754 9.583-1.056.792-.077.801-1.323 0-1.249-4.595.42-9.213.819-13.747 1.705-1.137.22-2.265.469-3.387.75-.53.131-1.098.336-1.654.343-.034 0-.068 0-.101-.003-1.088-.033-1.247-.965-.649-1.741.074-.095.15-.19.228-.281 1.057-1.26 2.373-2.101 3.729-2.972 1.519-.207 3.034-.668 4.521-1.006 3.672-.837 7.344-1.674 11.018-2.508.72-.165.414-1.273-.306-1.11l-8.367 1.896-4.081.926c-.816.183-1.834.553-2.793.687-.473.065-.932.073-1.346-.024-1.337-.317-1.405-1.989-.828-2.982.646-1.116 1.868-1.813 2.951-2.445 1.878-1.097 3.877-1.886 5.829-2.794l1.04-.229c2.015-.444 4.318-.661 6.215-1.475.568-.241.258-1.137-.304-1.124-1.473.032-3.013.556-4.452.866-1.557.338-3.116.674-4.673 1.01-.156.034-1.081.33-1.221.265-.089-.043-.12-.351-.15-.554-.095-.668-.165-1.369-.061-2.04.228-1.502 1.481-2.208 2.748-2.785 2.823-1.283 5.918-2.086 8.998-2.407a29.82 29.82 0 0 1 2.134-.144c.839-.026 1.53-.173 1.954.653.668 1.302 1.036 2.976 1.255 4.462Zm-3.92 47.204c-.615-2.128-.448-4.4-.869-6.571a35.575 35.575 0 0 0-.838-3.323c-.262-.883-.698-1.823-.747-2.744-.003-.062.069-.097.119-.069.868.497 1.534 1.572 2.029 2.415a16.166 16.166 0 0 1 1.409 3.177c.728 2.214 1.325 4.884.387 7.115-.279.664-1.26.797-1.49 0Zm-19.006-28.185c.519-.051 1.039-.15 1.559-.266-.581.566-1.118 1.249-1.416 2.006a31.48 31.48 0 0 0-.184-1.738c.013 0 .028 0 .041-.002Zm-4.995 44.293c-.917-.64-1.585-1.534-2.362-2.324-.764-.776.431-1.972 1.195-1.195.663.673 1.239 1.514 2.02 2.059.375.262.549.735.303 1.157-.218.371-.782.564-1.156.303Zm-5.111-24.59c1.673-.724 3.318-1.512 5.069-2.033 1.046-.312 1.489 1.32.449 1.63-1.612.48-3.125 1.196-4.665 1.863-.989.427-1.849-1.03-.853-1.46Zm-17.669-.507c-.409-1.009 1.227-1.445 1.63-.449.464 1.146.996 2.263 1.46 3.409.409 1.009-1.226 1.445-1.63.449-.464-1.146-.996-2.262-1.46-3.409Zm-17.439 20.167c-.272.364-.727.561-1.156.304-.36-.216-.579-.789-.303-1.157.805-1.074 1.621-2.135 2.566-3.093.765-.776 1.96.42 1.195 1.196-.843.855-1.582 1.791-2.302 2.75Zm-2.493-113.155c.775.53 1.455 1.174 2.118 1.837.77.77-.425 1.966-1.196 1.195-.558-.558-1.121-1.125-1.775-1.572-.378-.258-.548-.738-.304-1.157.219-.374.78-.56 1.157-.303Zm25.371 27.209c-.439.878-.833 1.74-.858 2.738-.027 1.088-1.717 1.089-1.69 0 .032-1.307.514-2.44 1.089-3.592.486-.975 1.943-.117 1.459.854Zm9.309-21.852c.909-.606 1.754.859.853 1.46l-2.19 1.461c-.909.605-1.754-.86-.853-1.46l2.19-1.461Zm-40.376 38.206c-.156 1.075-1.784.615-1.63-.449.237-1.645.527-3.268.973-4.87.292-1.048 1.922-.6 1.63.45-.446 1.602-.736 3.225-.973 4.869Zm-5.926 19.368c-1.088-.023-1.088-1.714 0-1.69.984.02 1.952.28 2.902.517 1.056.264.606 1.894-.45 1.63-.802-.201-1.62-.439-2.452-.457Zm-2.188 39.016c-.373.182-.757.345-1.135.518a2282.912 2282.912 0 0 0-6.989 3.217c-3.148 1.458-6.32 2.864-9.476 4.306-3.218 1.47-6.427 2.96-9.633 4.458-1.51.705-3.031 1.385-4.55 2.072-1.298.587-2.903 1.613-4.329 1.71-.073.005-.098-.088-.056-.135.539-.613 1.398-.969 2.106-1.368.722-.407 1.459-.789 2.192-1.178 1.528-.81 3.059-1.613 4.602-2.395 3.086-1.562 6.179-3.114 9.272-4.663 3.155-1.58 6.305-3.171 9.488-4.695a1540.896 1540.896 0 0 1 6.938-3.304c.351-.166.699-.346 1.058-.495.478-.197.84-.157 1.333-.279.802-.198 1.15.823.534 1.268-.508.366-.775.68-1.355.963Zm-11.283 17.337c-.174-.422.19-.935.59-1.04.48-.127.865.165 1.04.59a9.535 9.535 0 0 0 1.973 3.036c.759.781-.436 1.977-1.195 1.196-1.065-1.096-1.83-2.375-2.408-3.782Zm-8.3-27.14c-.771-.771.424-1.966 1.194-1.195l2.19 2.191c.771.771-.425 1.966-1.195 1.195l-2.19-2.191Zm-22.474-3.572c-1.574.462-3.411.887-4.485 2.23-.052.066-.14-.018-.109-.084 1.375-2.85 5.317-3.85 8.046-4.849 1.93-.706 3.91-1.292 5.908-1.816-.2-2.279.351-4.722.542-6.99.205-2.422.37-4.85.456-7.279.087-2.478.109-4.973.027-7.452-.081-2.469-.401-4.909-.542-7.37-.013-.238.318-.249.39-.053.829 2.284 1.183 4.814 1.453 7.223.278 2.481.37 4.955.335 7.45-.037 2.566-.186 5.126-.39 7.683-.098 1.212-.21 2.423-.317 3.634-.08.925-.118 1.842-.307 2.737 1.205-.296 2.412-.575 3.616-.847 3.838-.867 7.692-1.671 11.514-2.608 1.876-.459 3.725-1.01 5.593-1.499 1.758-.461 3.614-1.019 5.42-1.225.644-.073.726.809.3 1.108-1.468 1.031-3.417 1.748-5.112 2.325-1.701.579-3.47.996-5.213 1.425-3.636.894-7.307 1.626-10.972 2.388-3.66.761-7.327 1.516-10.945 2.455-1.743.452-3.48.906-5.207 1.414Zm-8.63-45.234c-.94.553-1.79-.909-.852-1.46 1.227-.72 2.534-1.262 3.852-1.79 1.012-.405 1.447 1.231.45 1.631-1.185.474-2.347.972-3.45 1.619Zm-3.407 62.816c-.943.548-1.793-.914-.852-1.459 1.32-.767 2.768-1.278 4.137-1.948.974-.478 1.83.981.853 1.46-1.37.67-2.816 1.181-4.138 1.947Zm-1.532-35.657c.912.867 2.13 1.275 3.278 1.73 1 .397.562 2.031-.45 1.631-1.43-.568-2.887-1.086-4.023-2.166-.79-.751.407-1.945 1.195-1.195Zm10.092-48.426c1.003.394.564 2.028-.449 1.631-1.123-.441-2.284-.777-3.407-1.218-1.003-.393-.564-2.028.45-1.63 1.123.441 2.283.776 3.406 1.217Zm17.804-19.234c1.066-.18 1.52 1.449.45 1.63-1.328.224-2.635.487-3.894.974-1.017.394-1.453-1.242-.45-1.63 1.26-.488 2.567-.75 3.894-.974Zm5.883 46.831c-.977-.48-.12-1.938.853-1.46 1.025.504 2.087.894 3.206 1.132 1.065.227.611 1.857-.45 1.631-1.258-.268-2.456-.736-3.609-1.303Zm5.557-26.379c1.052-.289 1.497 1.343.449 1.63-1.843.505-3.741.768-5.598 1.217-1.058.257-1.506-1.374-.45-1.63 1.858-.45 3.755-.712 5.599-1.217Zm23.57-8.279c1.07.198.614 1.828-.449 1.631-1.132-.21-2.279-.213-3.427-.214-1.089 0-1.087-1.691 0-1.69 1.304 0 2.591.036 3.876.273Zm76.872 8.834a217.145 217.145 0 0 0-8.297-.634l-.385-.022c-.014-.029-.033-.057-.052-.086-.904-1.328-1.57-2.655-2.147-4.155-.551-1.429-1.086-2.902-1.935-4.191-.969-1.469-2.276-2.619-3.71-3.615a17.057 17.057 0 0 0-2.414 1.996c-.777.763-1.972-.432-1.195-1.196a18.56 18.56 0 0 1 2.096-1.779c-.854-.52-1.726-1.008-2.577-1.493a127.586 127.586 0 0 0-9.784-5.041c-1.548-.717-3.116-1.353-4.694-1.997-.85-.347-1.688-.793-2.537-1.194.061-.601-.119-1.273-.579-1.668-.34-.29-.604-.397-1.01-.602-.091-.032-.146-.051-.171-.062.019.005.074.021.164.051.216.1.233.07.051-.087-.01-.342-.684-1.065-.838-1.418-.537-1.211-.704-2.492-1.496-3.595a4.162 4.162 0 0 0-4.636-1.579c-.177-1.828-.223-3.736-.912-5.368-.019-.044-.08-.063-.108-.015-.718 1.224-.779 2.587-.834 3.999a23.531 23.531 0 0 0 .171 3.997 6.9 6.9 0 0 1-.338.243 7.424 7.424 0 0 1-1.75.841c-1.174.389-2.406.558-3.638.617-3.179.152-6.456-.169-9.583-.714-3.162-.552-8.011-1.38-10.825-2.964-1.857-1.043-3.57-2.318-5.307-3.552.629-2.029.79-4.21.156-5.924-.076-.205-.397-.244-.458 0-.397 1.635-.514 3.28-1.042 4.897l-.025.071-.494-.331c-.381-.252-.898-.064-1.127.295-3.648 5.751-9.426 6.081-15.494 7.108-6.64 1.125-13.314 2.338-19.698 4.538-6.106 2.105-11.941 5.17-16.564 9.748a38.465 38.465 0 0 0-2.949 3.293c.894.113 1.78.288 2.655.563 1.036.326.59 1.958-.45 1.631-1.123-.354-2.26-.529-3.409-.616-3.14 4.299-5.59 9.173-7.707 13.97-4.063 9.198-6.707 18.994-7.923 28.967.668-.4 1.348-.782 2.045-1.137.968-.492 1.822.967.853 1.46a35.144 35.144 0 0 0-3.136 1.807 105.576 105.576 0 0 0-.51 13.145c.247 10.458 1.659 21.222 4.85 31.2 1.566 4.897 3.641 9.754 6.732 13.892 1.398 1.874 2.987 3.565 4.859 4.975a19.29 19.29 0 0 0 2.877 1.811c1.304.668 3.002.888 4.127 1.833.37.311.654.72.87 1.183-.125.879-.14 1.761.101 2.64a.942.942 0 0 0 .54.607c.003.076.003.15.003.221 0 .034.051.043.057.009l.032-.199a.798.798 0 0 0 .258.041c3.209.012 6.422-.067 9.635-.176-.248-.761-.517-1.516-.776-2.278-.35-1.034 1.282-1.474 1.63-.449.302.89.619 1.773.9 2.666 3.443-.128 6.885-.282 10.32-.395 7.308-.244 14.614-.324 21.924-.478 11.351-.241 22.785-.734 34.155-.252.393-.834.833-1.65 1.25-2.473.492-.972 1.95-.116 1.46.853-.291.572-.591 1.137-.876 1.708 2.302.12 4.603.278 6.898.494 3.917.367 7.796 1.02 11.709 1.426 3.978.414 7.869.341 11.816-.317.71-.118 1.128-.547 1.301-1.08a.027.027 0 0 0 .015-.013c.203-.236.393-.433.589-.604.235-.152.488-.281.786-.395a8.11 8.11 0 0 1 1.722-.427c.647-.097 1.302-.106 1.948-.186.545-.07 1.078-.174 1.61-.3a16.191 16.191 0 0 0 2.77-.922c.788-.344 1.499-.839 2.171-1.378 1.391-1.016 2.595-2.314 3.647-3.663a27.446 27.446 0 0 0 1.713-2.457c.913-1.476 1.69-3.008 2.476-4.553.286-.458.546-.927.784-1.405-1.536-.453-3.087-.822-4.715-.848-1.089-.018-1.088-1.709 0-1.691 1.867.03 3.634.466 5.389.986.085-.227.167-.456.243-.688.209-.484.383-.98.526-1.483l.254-.685c.19-.791.38-1.583.572-2.376.383-1.268.685-2.555.907-3.859.185-.858.329-1.723.426-2.598.296-2.119.537-4.235.554-6.378a44.199 44.199 0 0 0-.254-3.952 30.002 30.002 0 0 0-.304-2.661c-.182-1.311-.361-2.608-.663-3.902l-.678-2.625a50.572 50.572 0 0 0-1.997-5.36c-.042-.109-.256-.35-.384-.353-.098-.002-.233.087-.189.206l.013.033c-.044-.099-.086-.201-.131-.3-.038-.093-.186-.279-.3-.277-.006 0-.013 0-.021.002a.485.485 0 0 0 .085-.08c.758-.898 1.25-2.08 1.793-3.119.45-.859.875-1.763.997-2.733.108-.852-.038-1.691-.572-2.38-.609-.784-1.754-1.152-1.118-2.285.723-1.289 1.786-2.407.727-3.872-.539-.746-1.392-1.156-2.026-1.805-.729-.75-1.076-1.754-1.056-2.779.044.026.103.013.124-.051.613-1.851.169-3.884-.458-5.687-.342-.978-1.067-1.247-1.91-1.295 3.651-7.133 7.067-14.381 10.111-21.795.102-.243.201-.486.3-.729.148-.364-.165-.847-.526-.928-2.632-.577-5.374-.761-8.055-1.014Z" clip-rule="evenodd"></path><path fill="#fff" fill-rule="evenodd" d="M164.897 96.153c-1.45-17.685-5.865-33.348-26.613-34.016-9.363.083-18.92 2.073-27.53 5.755-20.928 10.497-27.568 48.853-9.13 64.293a.196.196 0 0 0-.007.33c3.81 2.563 8.044 4.673 12.284 6.445 11.296 4.777 24.593 6.852 36.113 1.67 17.58-7.483 17.844-28.306 14.883-44.477Z" clip-rule="evenodd"></path><path fill="#000" fill-rule="evenodd" d="M199.501 87.91a5.259 5.259 0 0 0 1.534-2.463c.249-.873.266-1.826.002-2.697-.283-.934-.894-1.678-.756-2.65.015-.095.034-.194.063-.294.528-1.83 1.828-3.151 1.363-5.18a3.51 3.51 0 0 0-.723-1.494c.038-.44.072-.884.1-1.328.762-1.785.735-3.907-.079-5.666-.099-.9-.249-1.792-.46-2.67.097-.775-.038-1.629-.287-2.307-.438-1.194-.98-2.37-1.567-3.527.069-.316.038-.65-.136-.948-.318-.54-.737-1.016-1.166-1.48-.303-.542-.608-1.079-.911-1.61-.14-.243-.295-.513-.466-.8.465-.863.714-1.705.222-2.72-.185-.382-.693-.663-1.112-.638-.457.027-.919.047-1.383.065-.868-1.048-1.851-1.989-2.904-2.53-1.067-.905-2.149-1.792-3.201-2.699l-.895-.773-.007-.022c-.22-.8-.467-1.591-.714-2.386-.154-.492-.201-1.008-.68-1.276-1.002-.56-2.542-.65-3.691-.744l-.342-.303c.522-1.39.429-2.868-.228-4.26-.224-.474-1.002-.687-1.429-.374-.984.722-2.152.978-3.308.872-1.699-1.306-8.55-7.212-9.609-7.836-.013-.022-.023-.044-.037-.067a8.584 8.584 0 0 0-2.131-2.326l-.348-.363a4.427 4.427 0 0 1 .955-2.207c.757-.9-.167-2.058-1.223-1.587-.076.034-.152.067-.228.103-.812.363-1.711.756-2.647 1.089-.342-.129-.691-.245-1.009-.373l-3.409-1.371c-.562-.226-1.155-.417-1.698-.682-.189-1.26-1.451-2.086-2.761-2.043a2.469 2.469 0 0 1 .498-.889c.674-.784-.226-2.238-1.19-1.54l-.205.145c-.267.188-.541.364-.818.535a1.864 1.864 0 0 0-1.466-.033c-1.157.454-2.224.914-3.243 1.625-.041.029-.084.053-.126.08-.506-.61-1.309-1.02-2.032-1.015h-.039c-.541-.825-1.532-1.303-2.489-1.187.065-1.183-1.119-2.238-2.196-2.366-1.259-.15-2.393.581-2.771 1.81l-.315 1.026c-.978-.493-2.009-.871-3.087-1.06-2.453-.43-4.852.028-7.216.709-.237.068-.473.138-.709.208-.337-.391-.653-.791-.955-1.165-.522-.644-1.775-.128-1.69.7.058.572-.174.983-.548 1.275-.41.06-.807.079-1.405.067-.791-.017-1.151-.041-1.978-.364-.385-.15-.865-.545-1.089-.899-.861-1.358-3.048-1.724-4.09-.429-1.096-.48-2.48.182-3.088 1.116-.318.487-.983.76-1.819.995-.627.176-1.269.309-1.914.425-.287-.39-.892-.65-1.336-.324-.301.222-.593.45-.881.684-2.22.306-4.43.317-6.546-.55-1.793-.732-3.438 1.27-3.143 2.952-.519.27-1.082.45-1.595.733a6.323 6.323 0 0 0-2.597 2.745c-.1.205-.19.414-.277.624-.418.34-.832.69-1.235 1.059l-2.014-1.034c-.502-.257-1.35-.078-1.449.59-.163 1.1-.558 2.01-1.122 2.773a45.926 45.926 0 0 0-5.286 3.248c-1.941.61-4.005.964-5.702 1.364-.58.137-.898.896-.57 1.4.346.536.693 1.07 1.037 1.605a40.646 40.646 0 0 0-2.727 2.946c-2.381 2.832-4.374 5.937-6.157 9.226-.705.285-1.411.568-2.117.854-.68.274-.986 1.065-.435 1.646.262.277.497.569.697.875-.999 1.655-2.176 3.164-3.822 4.153-.5.3-.876.772-1.077 1.306-.171.114-.34.237-.507.362-.465.35-.746 1.116-.2 1.57.382.321.74.702 1.045 1.122l.2.719a17.785 17.785 0 0 0-3.755 4.878c-.227-.036-.459-.013-.647.126-1.707 1.262-1.758 3.272-1.071 5.069-.414 2.707-.148 5.482.65 8.105-1.05 1.048-1.681 2.562-1.939 4.02-.454 2.562-.486 6.501-.604 9.115-1.145 1.106-1.96 2.537-2.415 4.075l-1.147.57c-.34.17-.59.616-.568.992.097 1.82.847 3.257 1.842 4.559.353 1.004.875 1.93 1.559 2.817.473.609.936 1.192 1.344 1.85.042.065.067.126.086.169-.16.173-.293.46-.41.665-.976 1.721-.99 3.737.395 5.236-.521.427-.538 1.289-.078 1.817 2.998 3.426 5.498 7.592 9.657 9.412a.926.926 0 0 1 .051.095c-.843 2.029-.957 3.083-.268 5.18.004.019.01.036.017.055.367 1.099 1.043 2.859 2.262 3.202.385.108.763.156 1.137.154.968.932 1.933 1.866 2.899 2.801.084.462.137.929.154 1.401.027.788.769 1.426 1.567 1.194.281-.083 1.836-1.594 2.121-1.585.144.143.284.287.423.433.513.539 1.225 1.389 1.285 1.953.114 1.063.81 2.28 1.937 2.496.422.429 1.099.558 1.616-.002.034-.036.068-.072.104-.104l.162-.019c.25.744.499 1.488.75 2.23.492 1.463 2.373 2.403 3.708 1.549.216.129.427.267.638.404.321.205.646.414.98.611.02.055.038.11.055.162.216.658 1.111 1.011 1.663.632a5.28 5.28 0 0 0 3.294-.042c.644-.22 1.259-.64 1.952-.697.043-.004.088-.001.132-.002.565 1.158 1.857 2.157 2.875 2.496 1.333.444 2.698.286 3.913-.259.327.656.739 1.276 1.23 1.85.273.317.765.249 1.046 0 .534-.473 1.064-.949 1.594-1.425.383-.148.77-.325 1.173-.49 1.262-.515 2.646-.729 3.813-1.474a6.476 6.476 0 0 0 1.505-1.329 10.843 10.843 0 0 0 2.221-1.715c.334.002.682-.077 1.02-.248 1.414-.718 2.157-2.181 2.223-3.677a25.93 25.93 0 0 0 2.007-8.511 21.19 21.19 0 0 0-.004-2.906c-.051-.681-.222-1.135-.48-1.75a5.298 5.298 0 0 1-.226-.588c.015-.651.023-1.302.032-1.951a3.652 3.652 0 0 1 .923-1.485c.674-.664.982-2.042.37-2.862l-1.196-1.592c.112-2.276.657-5.898-.552-6.279.049-.338.153-.672.212-1.008.283-1.615.114-3.058-.744-4.47a9.998 9.998 0 0 1-.456-.807l-.235-1.395a78.93 78.93 0 0 1-.34-2.167c-.053-.925-.101-1.851-.154-2.779-.049-.854-.104-1.708-.161-2.564.024-.382.057-.765.106-1.147.289-2.28 1.221-3.124 2.835-4.71.254-.04.505-.084.752-.134 1.152-.24 2.356-.61 3.541-.476 1.287.144 2.438.7 3.689-.01.367-.212 1.177-.795 1.246-1.258a.35.35 0 0 1 .019-.074c.087-.013.199-.023.269-.025.993-.034 1.941.357 2.943.249 1.185-.127 2.245-.653 2.943-1.433.893.22 1.806.32 2.733.197.778-.102 1.475-.355 2.164-.732.5-.27.342-.348.887-.129 1.24.504 2.362 1.167 3.758.823.725-.178 1.35-.569 1.877-1.095.124-.123.335-.307.477-.48.663.336 2.332 1.095 2.607 1.162.778.19 1.601.161 2.358-.093.555-.185 1.236-.693 1.724-.796.631-.136 2.034.744 2.788 1.046 1.323.53 2.724.661 4.063.114.461-.188 1.356-.938 1.701-.932.56.691 2.123 4.472 2.592 5.852 1.899 5.58 2.392 23.001 1.515 27.446-.034.131-.07.26-.106.391-1.077 3.866-2.199 7.797-4.001 11.398-1.701 3.395-4.052 6.451-7.426 8.304-3.499 1.924-7.606 2.429-11.54 2.169-2.533-.165-5.024-.675-7.474-1.313a94.241 94.241 0 0 1-3.814-1.086c-.551-.167-1.111-.323-1.652-.518-.955-.344-1.455-.372-2.37.07-.833.401-1.046 1.587-.613 2.333.706 1.218 1.999 1.302 3.247 1.657 1.272.362 2.548.708 3.833 1.019 2.461.592 4.962 1.046 7.485 1.255 4.517.379 9.171-.205 13.282-2.177.465-.224.913-.463 1.346-.72-.16.224-.323.448-.488.67-.456.615-.118 1.661.522 1.997.203.106.406.207.61.306.028.066.057.131.091.197.585 1.175 1.811 1.868 3.059 2.168 1.484.355 3.144.104 4.653.06l4.193-.127c.33-.009.659-.019.989-.03 1.661-.051 3.319-.099 4.977-.15 1.479-.044 1.41.07 2.798-.522a4.135 4.135 0 0 0 1.552-1.143 6.39 6.39 0 0 0 .772-.408c.794-.495 1.5-1.158 2.15-1.89 1.105.349 2.654.026 2.869-1.363.347-2.221 3.233-3.17 4.581-4.776 1.088-1.296 1.865-2.993 1.825-4.623 2.742-1.327 4.234-4.825 4.582-7.792.163-1.376.138-2.849.372-4.248.104-.112.197-.231.275-.358a29.734 29.734 0 0 0 1.817-3.436 4.737 4.737 0 0 1 2.486-.89c2.223-.129 2.641-3.128.522-3.851l-.029-.01c.574-1.437.526-3.139-.172-4.5.03-.148.057-.294.085-.442 1.189-1.278 1.872-3.056 1.796-4.787a5.864 5.864 0 0 1 1.817-.862c1.028-.283 1.035-1.539.274-2.1a3.56 3.56 0 0 1-.771-.783c.526-1.58.319-3.409-.756-4.707l2.047-2.625c.452-.579.691-1.561 0-2.111a331.57 331.57 0 0 0-1.327-1.055Z" clip-rule="evenodd"></path><path fill="#000" fill-rule="evenodd" d="M149.69 120.753c.725-1.28 2.888-1.072 3.218.42.671 3.026-2.935 5.819-5.674 5.889-2.722.069-5.776-2.248-5.382-5.176.098-.724 1.064-.636 1.394-.182l.128.174c.895 1.203 2.076 2.449 3.738 2.155.688-.121 1.313-.551 1.73-1.105.502-.669.447-1.467.848-2.175ZM132.383 98.62a1.617 1.617 0 0 1 1.068.077c.73.133 1.339.742 1.554 1.437.016.06.035.12.056.178l.033.088-.088-.223c.041.22.219.45.283.67.079.271.099.579.072.877.232.002.464.01.695.03l.224.02c1.252.116 2.625.33 3.367 1.411.417.608.026 1.703-.74 1.82-1.178.18-2.193-.472-3.367-.603-1.11-.123-2.272-.053-3.367.148-2.262.414-4.341 1.331-6.545 1.906l-.3.077v-.002c-.378.091-.807-.434-.433-.741 1.766-1.452 4.027-2.628 6.255-3.344-.325-.516-.425-1.197-.203-1.751.034-.115.077-.226.121-.338l.094-.229c.009-.108.03-.215.06-.32l.005-.031.003.002c.165-.54.599-1.006 1.153-1.16Zm22.53.083c.483-.483 1.162-.412 1.666-.031l.067.052c.475.211.868.673 1.127 1.1.268.444.446.897.453 1.386 1.169.003 2.289.354 3.147 1.298.277.305.467.775.314 1.188l-.091.246c-.288.781-1.584 1.23-2.024.312l-.021-.045c-.468-1.089-2.264-.975-3.219-.864-.665.078-1.322.244-1.965.429-.227.066-.451.136-.675.209l-.224.073c-.12.038-.743.377-.355.296.104-.021.182.131.076.182-.462.22-.954-.219-.924-.716.054-.861 1.421-1.333 2.079-1.63l.04-.018c.252-.117.516-.229.789-.333a3.847 3.847 0 0 1-.386-.754 3.329 3.329 0 0 1-.202-.78.757.757 0 0 1 0-.4l.005-.039a1.23 1.23 0 0 1-.026-.272l-.004-.035h.004c.013-.322.141-.645.349-.854Zm-7.716 9.174c1.855.574 4.916 2.136 3.949 4.548-1.35 2.215-4.93.587-6.666-.129-1.559-.516-2.37 1.669-.863 2.328 12.456 4.93 12.41-8.081 4.031-7.89-.922.021-.951.952-.451 1.143Zm-16.48-16.965.316-.092c1.645-.477 3.324-1.3 4.784-.015.574.504.692 1.552.281 2.18-.934 1.434-2.32 1.215-3.83 1.337-1.149.093-2.281.43-3.354.853-.877.345-1.69.83-2.458 1.373-.754.533-1.269 1.366-2.043 1.845-.284.176-.611-.005-.713-.29-.361-1.011.249-2.271.765-3.133.63-1.051 1.586-1.91 2.615-2.561 1.126-.713 2.372-1.124 3.637-1.497Zm23.965-1.088c2.78 0 5.455 1.546 7.01 3.814.529.77.141 1.911-.617 2.355-.851.498-1.761.14-2.322-.574l-.033-.043a8.651 8.651 0 0 0-3.404-2.733 9.002 9.002 0 0 0-2.119-.66l-.232-.04c-.326-.055-.704-.108-.999-.056-.157.02-.302.073-.436.152.064.14-.101.31-.255.225-.69-.38-.606-1.056-.035-1.583.807-.744 2.399-.857 3.442-.857Z" clip-rule="evenodd"></path><path fill="#000" fill-rule="evenodd" d="M148.503 116.101c-2.35-1.059-6.569-.135-8.1.232-3.561.854-7.144 2.7-8.251 5.593-1.247 3.259 1.242 4.286 1.608 4.118 2.465.174 5.401-1.377 7.984-1.777 2.097-.327 4.309-.613 6.274-1.728 1.434.789 4.674 1.216 7.289 1.906 2.227.588 3.192 1.862 5.257 1.591 2.474-.324 1.461-5.531-1.296-7.64-3.019-2.308-8.123-3.244-10.765-2.295Zm4.652 22.26c-2.056.501-2.194-4.006-2.424-5.598-.18-1.244-1.194-4.452-3.767-4.314-2.572.139-3.539 2.827-3.409 4.498.085 1.084 1.084 6.576-2.104 7.27-2.032-.007-4.383-.144-6.52-.538-2.515-.57-5.785-2.565-6.649 1.364-.311 1.414 10.768 5.615 15.684 5.995 4.985 1.011 10.818-.544 14.368-4.359.808-.868 3.082-4.471 3.244-5.354.34-1.854-.448-3.048-2.742-2.394-1.62.866-4.359 3.108-5.681 3.43Z" clip-rule="evenodd"></path><path fill="#000" fill-rule="evenodd" d="M167.178 109.153c-2.565 2.652-6.847 3.412-10.259 1.99-8.763-3.662-4.474-15.085 2.284-18.153.844-.21 1.972-.71 3-.823.093-.046.295.086.54-.039 7.452.832 9.149 12.404 4.435 17.025m-28.263.679c-2.877 3.817-8.225 4.995-12.595 3.22-8.633-3.401-5.571-13.53.336-17.502 12.476-4.69 17.629 7.244 12.259 14.282m-18.714-8.458-.024-.009.137-.061-.046.115c-.022-.015-.042-.033-.067-.045m52.916-4.126c-.704.001-1.722.117-2.305.606-1.438-4.851-6.745-9.34-11.361-6.067-3.635 1.17-6.332 3.763-7.865 7.21-2.764-1.644-7.11-.942-9.507 1.233-1.57-5.188-5.433-7.005-10.031-7.274-5.019-.822-10.021 4.054-11.582 7.966-1.298-.148-3.237-.561-4.458.24-7.924-2.079-21.778-3.225-23.389-2.07-1.148.44-1.778 3.152-.174 3.298 1.397-.199-.164-1.986 1.245-2.182 7.505-.465 14.79 1.047 22.216 1.682.663.892 2.805 1.19 3.948.832-1.8 6.635 2.085 11.15 7.906 12.502 9.015 2.071 16.857-5.996 14.5-14.386 2.731-1.36 5.872-1.3 8.846-.585-4.971 18.301 24.492 17.48 19.891-1.772 3.062 1.524 3.727-.926 2.12-1.233" clip-rule="evenodd"></path></svg>