<svg xmlns="http://www.w3.org/2000/svg" width="391" height="780" fill="none" id="laughing-lady"><path fill="#fff" fill-rule="evenodd" d="M274.216 718.537c1.434-5.783-.676-10.396-6.732-13.802-.521-1.376-12.227-5.839-21.528-12.389-8.356-5.884-14.417-13.962-14.672-14.41 0 0-1.878-4.362-2.093-6.331-1.027-9.443-.433-15.634-1.067-18.571 4.274-.56 14.781-277.573 13.082-286.754 2.783-.611 5.734-1.254 8.387-2.821.212-.054-.136-.668-.126-.783 6.657-13.042-3.555-57.39-9.954-69.668 5.082-.132 11.776-.822 14.922-5.058 1.49-.489 2.429-1.341 3.152-2.711a43.5 43.5 0 0 0 2.3-4.076c3.387-7.021 5.476-14.816 4.346-22.551.216-.069 1.324-.076 1.379-.385.109-1.902-.241-3.577-.813-5.373-5.815-20.23-12.815-40.147-22.068-59.193-4.636-10.194-14.229-13.913-24.168-17.74-4.782-1.875-9.565-4.039-14.556-5.268-.063-.348.235-1.408-.419-1.322-.807.168-.648 1.465-.948 2.192-11.539-9.428-4.221-14.286-11.179-19.449-7.2-3.73-15.98-3.882-23.918-3.075-2.929.085-5.272 1.403-5.963 4.345-2.517 6.087-8.416 10.568-14.851 11.941-.532-.945-1.993-3.654-2.812-2.799-9.294.317-23.385 3.722-32.084 6.269-8.732 2.226-17.566 6.29-19.851 15.76-4.145 16.875 2.45 86.226 13.267 99.582l.352.006c1.918 1.959 4.524 3.395 7.478 4.357-.066 6.244-2.038 12.34-3.019 18.446-2.209 11.075-3.907 22.161-6.369 33.295-.011 1.24-4.693 18.214-.077 14.811a68.18 68.18 0 0 0 3.147 1.414c-4.905 11.156-7.15 29.156-6.801 42.938.086 8.207-.254 15.397-2.098 23.802-13.647 71.212-25.68 230.491-25.962 232.62-.26 2.035 1.467 13.082 0 15.997-1.302 2.586-6.854 1.059-7.917 2.057-2.758 4.484-1.495 7.34-3.758 11.817-1.16 1.036-3.754 3.303-4.605 4.896-1.723 1.656-30.259 20.345-29.102 23.181 0 0-.13 1.361-.174 1.656-2.433 14.128 1.618 14.011 14.725 16.089 19.147 3.371 33.457-3.115 49.638-11.78 5.377-3.619 13.02-10.529 10.533-18.713-.069-.5-1.545-9.108-2.13-13.48 0 0 1.586-3.5-4.552-3.063 1.01-1.106 3.227-15.431 2.47-17.326-.48-4.881.266-9.312.03-14.335 2.571.19 47.71-213.393 76.023-226.666.175 1.419-.165 4.059 1.722 4.324 8.758 68.189 29.813 220.947 30.78 221.215-1.451 7.787-1.407 25.838-1.434 33.569-.222.206-1.241 1.114-1.406 1.336-.034-.058-.697.604-.731.621l-.09-.205c-2.983 6.712-7.329 13.625-3.488 20.203-2.851-.207-2.393 5.269-2.521 7.789 1.624 4.931 47.793 18.237 58.11 18.869 3.389.59 19.176-4.421 22.214-5.141 3.936-.735.075-8.037-2.021-10.159Z" clip-rule="evenodd"></path><path fill="#000" fill-rule="evenodd" d="M163.501 151.686c1.494-.046 1.78 1.831.758 2.609l-.042.031c-.871.616-1.279 1.167-1.752 2.151-2.304 6.087-8.802 9.578-15.158 8.285 2.208 4.11 3.69 8.087 5.9 12.127 10.175 20.919 43.591 27.725 47.587-.977-6.123-1.181-9.751-14.923-5.823-19.023l.107.499c1.132 5.383 1.907 10.893 5.995 14.951.124.037.243.048.361.048.156-.737.335-1.466.559-2.181.544-1.744 3.267-1.416 3.19.471 8.154 2.48 15.99 5.992 23.789 9.385 6.484 2.823 11.785 7.872 14.806 14.266 8.468 17.49 14.934 35.953 20.571 54.526.378 2.51 4.593 11.838 1.192 12.735.834 7.684-1.299 15.457-4.596 22.357-1.529 2.593-2.609 6.188-5.681 7.269-3.19 3.999-9.024 5.037-13.881 5.319 6.532 15.346 15.408 54.437 9.406 69.686.532 2.502-6.383 3.69-8.234 4.262 1.491 8.895 1.166 18.058.523 27.017-6.023 76.415-7.166 153.249-.829 229.684.372 4.764.774 9.528 1.199 14.289l.257 2.855c.337 3.802.624 7.588.536 11.42-.028 1.33-1.133 2.129-2.237 2.197-3.709 2.362-8.69 2.382-12.981 2.951.758 4.128 1.182 10.569 2.509 14.043 2.761-.72 4.54 1.849 1.788 3.3 3.388 1.875 5.13 5.466 7.842 7.987 7.449-3.019 8.835 1.492 2.749 2.521 1.655 1.379 3.411 2.652 5.227 3.861l.129-.018c2.148-.325 6.196-2.097 7.212.25.457 1.699-1.645 2.239-3.167 2.445 1.351.85 2.706 1.696 4.062 2.54 1.186-.521 2.362-1.172 3.572-1.589 2.978-.662 3.235 3.195-.651 3.412 2.434 1.795 5.794.761 7.35 3.294 5.693 2.294 8.384 9.222 7.055 14.759 1.999 1.774 3.402 4.433 3.565 7.105.385 2.863-1.898 5.556-4.991 6.31a238.347 238.347 0 0 1-10.541 3.206l-.369.127c-2.905.988-6.076 1.873-9.097 1.701-17.914-1.067-41.802-8.411-56.14-17.549-3.576-2.683-4.202-9.317.72-11.439-2.268-4.103-1.184-7.085-.223-11.554.668-2.915 1.574-5.906 3.215-8.603.146-.24.496-.168.515.068.215 3.05-.07 6.17-.298 9.24l-.025.341c-.204 2.833-.663 3.875.106 6.556 1.843 6.841 19.607 10.258 26.588 13.079a255.747 255.747 0 0 0 16.686 4.545l.413.09c4.763 1.046 9.667 2.628 14.683 1.807 2.601-1.889 6.506-1.358 9.062-3.518 3.856-4.156.824-10.247-1.877-14.023-2.613.832-4.846-1.406-6.769-2.59l-.071-.043c-1.964-1.24-3.923-.371-5.89-1.608l-.444.084c-7.226 1.374-12.821 2.942-1.296-1.171-1.898-1.184-3.801-2.379-5.645-3.634-3.785.455-7.932 2.439-11.449 2.619 2.367-2.202 5.596-3.421 8.64-4.631-1.772-1.343-3.458-2.78-4.966-4.36l-1.441.358c-8.85 2.194-12.329 2.827-.414-2.521-2.343-2.597-2.724-6.442-5.3-8.885-4.144.866-7.951 2.685-11.325 5.033-1.365.975-2.393 2.194-3.473 3.414-5.122 6.575-13.056 7.59-15.48-.939-.042-.175.233-.284.311-.136l.009.021c1.159 2.619 4.899 4.743 8.024 3.115l.094-.05c3.055-1.59 4.475-4.832 6.881-7.04 3.248-2.927 7.319-4.889 11.52-6.362-1.019-3.714-1.362-10.474-1.247-14.831-7.072.334-14.191-.006-21.138-1.348 1.113 8.099.381 18.639.892 25.862.74 2.424-3.759 3.938-4.237 1.524-.265-7.814.501-19.087 1.694-27.808l-.499-.121c-.471-.117-.966-.258-1.37-.486-4.459.504-3.243-10.803-3.991-13.983-5.03-70.127-15.626-139.625-24.631-209.29-1.249-.477-1.471-2.006-1.677-3.285-11.347 7.666-13.609 22.985-18.688 34.86-22.183 61.485-32.095 126.352-47.469 189.667l.084.022c.061.018.061.027-.065.018l-.029-.002v.005c.95.125 1.698 1.121 1.119 2.048-1.731 3.486-6.529 2.252-9.688 2.031.307 5.369-.845 16.954-.115 21.738 3.896.072 4.144 4.351 4.66 6.895l.04.262c.688 4.346 3.002 12.495 1.273 16.009 2.672 3.173.75 7.484-2.022 9.65-2.968 2.189-6.663 3.472-10.018 5.159-15.793 6.367-31.072 18.644-50.425 13.92l-.843-.177c-13.563-2.861-17.46-4.132-14.767-17.53-1.106-2.722-1.113-5.704.443-8.112 2.776-3.555 7.44-5.5 11.15-8.201 6.286-4.215 12.976-7.901 19.116-12.289-.229-.197.088-.27.274-.237 4.333-3.385 3.928-9.246 6.95-13.427.756-2.155 4.574-2.681 7.087-2.382-.785-4.016 3.052-22.298 3.539-9.385v.186c.01 1.993.336 8.649-.252 9.952 8.344 2.545 10.143 10.544 11.93 17.004l.114.031c.57.147 1.334.266 1.619.824 2.683-1.702 3.433-5.052 6.031-6.855-.729-.569-.767-1.654-.395-2.496 1.21-4.429 1.936-15.7 3.764-20.646-8.59-1.284-17.34-1.938-25.73-4.268-1.09 1.068-3.327.689-3.24-1.24 2.599-42.036 7.067-83.943 12.7-125.677 4.632-39.065 12.78-77.632 18.455-116.493l.048-5.333c.153-16.034.583-32.307 6.573-47.402a42.58 42.58 0 0 1-1.565-.715c-6.496 2.687-1.378-13.641-1.139-16.584 3.192-17.061 6.952-34.118 9.349-51.286-2.513-.907-4.833-2.194-6.769-4.064-11.736-9.534-18.54-86.75-14.274-102.276 2.226-9.766 11.661-14.564 20.654-16.772l1.328-.374c10.043-2.82 20.261-5.375 30.718-6.003.372-.337 1.467-.24 1.61.041.655.394 1.277 1.163 1.803 1.975 14.514-1.665 10.588-11.134 16.559-12.482Zm34.723 556.093c-2.032 4.605.668 8.108 5.195 10.045 15.676 7.254 33.176 13.083 51.143 14.196 5.482-1.323 10.911-3.51 16.467-4.863l.239-.043c1.956-.358 2.874-.717 2.706-2.745l.072-.819c.125-1.457.231-2.91.129-4.366-1.709 4.078-6.824 6.32-11.308 7.144-7.11 3.367-15.073-.057-22.059-1.5-11.346-3.443-35.894-8.853-42.584-17.049Zm-98.483.096-.234.072c-2.035.628-4.105 1.398-6.385.831-10.189 3.447-20.106 7.357-29.948 11.427-10.62 5.075-27.719 10.974-36.922-1.289 1.323 6.432-.547 8.632 8.24 10.236 13.94 4.537 25.143 2.214 36.712-3.985 8.475-4.113 17.592-7.383 25.796-11.853l.11-.077c1.614-1.15 3.561-3.248 2.631-5.362Zm-21.16-27.689c-2.66-4.898-9.82-7.587-15.143-5.782-.542 4.724.862 10.012-2.144 14.113 2.662.466 5.314 1.002 7.963 1.558l2.424.511c1.19.26 2.703.705 2.504 1.964-.22 1.392-2.05.967-3.268.617l-.472-.138c-3.42-1.005-6.836-2.03-10.213-3.179-1.78 1.955-4.17 3.489-6.488 4.97l.961.109c3.368.378 6.769.72 10.096 1.401 1.454.43 1.14 2.408-.347 2.25-3.973-1.034-7.935-2.204-11.976-2.946-1.975 1.304-3.941 2.614-5.921 3.911 3.894.562 7.805.613 11.697.944 2.52.233 2.52 3.67 0 3.471-4.546-.416-9.09-1.758-13.42-3.284l-2.28 1.497a585.023 585.023 0 0 1-8.028 5.193c-1.622 1.031-3.716 2.012-4.85 3.505-3.579 5.769 5.364 11.282 11.408 11.19 9.178.098 16.822-4.658 24.862-7.505 4.448-1.099 27.06-12.397 29.117-9.423 1.293-.62 3.093-.844 4.024-1.866.188-4.724-.809-9.673-1.646-14.437-.17-.832-.578-1.829-.623-2.683-3.767 1.387-4.84 6.633-9.797 6.187-.776 1.237-3.166.661-4.244-.322-1.173-1.069-1.32-2.574-1.6-3.915l-.13-.616c-.527-2.469-1.158-5-2.467-7.295Zm111.61-400.649-.606.153c-6.169 1.541-12.623 2.655-18.963 2.241-1.096 4.139-.524 13.982-4.982 15.555-1.523.573-3.815.108-4.513-1.444-9.221-.163-18.507-.986-27.728-1.533-6.942-.545-14.144-.524-20.826-2.626.809 4.069 1.088 8.063.635 12.224-1.559 17.748-6.69 35.04-8.41 52.711l-.079.842-.05-.029c0 .034-.003.067-.005.1.501.144 1.002.296 1.501.45.178-.09.42-.002.548.168 36.725 11.4 75.706 16.352 113.981 11.334 6.703-.835 13.358-2.005 19.966-3.391-.058-.59.844-.745 1.002-.188 1.466-.255 2.933-.534 4.391-.722-.176-.496-.206-1.031-.026-1.515 2.845-8.518 1.545-18.23.648-27.064-1.144-13.563-3.996-26.867-6.3-40.247-10.907-.495-21.748-2.272-32.707-2.049-1.154 2.986-5.179 5.495-8.33 3.787-2.225-1.199-2.883-3.813-3.776-5.974a1605.254 1605.254 0 0 0-5.371-12.783Zm-46.212-116.98c-11.453 3.377-23.187 5.788-34.535 9.536-9.432 2.345-15.87 8.251-16.268 18.323-.778 21.576 1.592 43.26 5.17 64.523l.186.96c1.985 10.247 3.764 20.673 7.513 30.44 5.472 2.539 11.685 3.263 17.672 3.556 8.737.444 17.473.9 26.201 1.47l6.844.443c1.986.129 4.747-.211 6.239 1.33.133.218.402.191.606.325l.04.03c.218.147.437.506.751.436.511-.158.707-1.174.827-1.659l.011-.044c.664-2.595 1.146-5.247 1.76-7.856 1.399-5.135 2.002-10.563 4.129-15.478-3.045-1.939-5.912-4.155-8.371-6.786l-2.965-1.042c-7.093-2.484-14.266-4.89-21.66-6.379-.177 1.62-2.505 2.546-3.374.851-1.44-4.318-1.707-9.006-2.699-13.457-2.254-13.277-4.931-26.506-6.49-39.89 4.297 11.854 6.524 26.402 9.808 39.213.152-.088.363-.037.369.173a49.49 49.49 0 0 1 36.014.447c2.874 1.151 5.794 2.184 8.653 3.371.977.55 2.922.516 3.25 1.72.351-.817.823-1.582 1.45-2.098.196-.402 2.419-1.121 2.636-.324 13.037 1.785 25.712 7.445 39.126 6.49-1.587-5.784-1.399-12.029-1.506-18.002l.033-.673c.276-5.884.476-13.166 2.474-18.008-1.279 12.19-.35 24.4 1.211 36.476 9.461-1.218 5.104 4.181-1.197 3.979-12.718.914-24.454-4.699-36.158-8.79-6.393-2.55-7.117-.39-6.832 5.672.006 7.892 3.587 15.095 6.831 22.098l1.457 3.27c2.423 5.443 4.812 10.85 7.166 16.357 10.282-3.403 21.859-1.536 32.511-.916 8.128 1.019 13.965.658 20.841-4.035 2.481-4.729 5.749-9.214 7.027-14.549 1.482-4.889 1.975-10.01 2.408-15.076l-.39-1.418c-5.012-18.19-10.558-36.291-18.136-53.617l-.41-.955c-2.569-6-5.179-12.296-10.377-16.499-8.724-6.429-19.513-9.28-28.684-15l-.058.419c-.931 6.561-2.538 13.363-6.746 18.642-7.776 9.529-22.456 9.797-32.407 3.608-10.351-5.711-16.561-16.346-19.582-27.462l-.036-.122c-.282-.991-1.07-3.99-2.333-4.023Zm28.111 106.937c-.007 3.494-.698 6.938-1.165 10.387 5.381-1.06 10.747-1.799 16.039-3.231-5.155-1.944-10.165-4.286-14.874-7.156Zm-12.958-28.182c-7.847-1.533-15.881-.616-23.64.619.843 3.911 1.806 7.787 2.612 11.704 2.778-.127 29.136 4.531 26.162 8.271 3.89 2.076 7.576 4.517 11.449 6.639a83.89 83.89 0 0 0 12.135 5.457l-.221-.491c-3.601-8.028-6.965-17.062-4.19-25.836-3.731 1.495-8.824-1.715-12.438-2.916-3.837-1.537-7.789-2.749-11.869-3.447Zm-56.491-31.086c.026-1.465 4.558 2.734 5.15 3.171l.358.322c4.349 3.94 8.646 8.274 11.07 13.679.177 5.313-7.756-7.557-8.856-8.343-2.4-3.083-5.324-5.76-7.722-8.829ZM228.07 222.73c-1.226.403 2.121-3.748 3.426-3.445.52-.076.971.676.395.934l-.287.126c-1.339.58-2.708 1.075-3.534 2.385Z" clip-rule="evenodd"></path><path fill="#fff" fill-rule="evenodd" d="M153.547 48.948c14.966-.816 28.224-5.012 38.759 4.38 0 0 17.041-12.701 19.885-7.864 1.905 3.241-.737 7.593-.029 11.592 4.62 7.86 4.359 21.163 4.62 24.28.658 7.858 4.805 37.426 4.805 44.448 0 3.584-2.961 12.971-4.805 18.194-4.105 11.627-11.939 17.553-24.788 17.553-12.848 0-33.819-10.717-40.545-20.233-.589-.833-4.401 1.599-8.388-2.621-4.319-4.572-6.715-13.292-6.715-18.49 0-6.596-4.272-11.17-3.775-19.613 1.11-18.857 4.963-50.754 20.976-51.626Z" clip-rule="evenodd"></path><path fill="#000" fill-rule="evenodd" d="M151.875 27.025c.195-.012.392-.003.589.017.216.01.432.03.648.073 1.1.21 2.08.791 2.84 1.61.022.02.038.044.057.066.357.267.687.57.984.893.052-.05.102-.1.156-.15.157-.137.321-.267.492-.39a6.465 6.465 0 0 1 2.458-1.31l.124-.034a.691.691 0 0 1 .071-.017 6.264 6.264 0 0 1 1.995-.32 5.775 5.775 0 0 1 2.386.42c.901.372 1.684.96 2.342 1.666.432.35.81.737 1.209 1.162a8.893 8.893 0 0 1 1.886 3.04c.057.16.106.322.152.486a40.54 40.54 0 0 1 3.023-.24 36.186 36.186 0 0 1 3.401-.054c3.127.102 6.186.652 9.148 1.66.593.175 1.171.397 1.726.672.872.346 1.696.787 2.473 1.32l.661.392c.332.197.665.397.987.602.767.49 1.494 1.04 2.182 1.633a23.619 23.619 0 0 1 2.584 2.44c1.505.81 2.843 1.848 4.09 3.086a30.49 30.49 0 0 1 3.07-1.54 30.644 30.644 0 0 1 3.617-1.277 23.438 23.438 0 0 1 3.069-.629c.468-.08.938-.144 1.41-.199l-.019.008c.333-.036.663-.067.998-.095l-.01-.003.43-.033.347-.028c.105-.01.257.234.266.32l.012.087c.078.088.15.185.199.245.062-.005.124-.01.186-.012.185-.017.399.312.508.438l.099.116c.112.135.225.29.243.46.121.984.235 1.97.339 2.956.041.746 0 1.486-.123 2.218-.093.71-.188 1.422-.283 2.13-.152.499-.301.996-.451 1.494-.059.19-.126.377-.19.564a30.565 30.565 0 0 1-1.355 3.647c.387.427.747.87 1.083 1.327.08.083.161.164.236.25a.243.243 0 0 1 .086-.081c.114-.05.197.01.268.107a6.35 6.35 0 0 1 1.63 2.495l.21.496.103.249c.268.72.475 1.46.646 2.209.153.589.263 1.186.333 1.79.513 1.719.919 3.477 1.302 5.212.06.273.031.517-.056.725l.224.217.382.38c.642.639 1.297 1.31 1.774 2.07.494.79.857 1.634 1.261 2.47l.087.178.178.357a9.356 9.356 0 0 1 .96 3.48c.105 1.211.091 2.532-.441 3.657a.08.08 0 0 1-.012.024c-.242 1.088-.841 2.098-1.75 2.742a3.52 3.52 0 0 1-.627.477c-.536.314-1.028.342-1.613.197l-.074-.02a5.806 5.806 0 0 0-.204-.05c.095.079.143.172 0 .238a1.207 1.207 0 0 1-.377.118c.049.064.054.133-.05.19-.228.12-.414.159-.604.125l.04.33c.312 2.493.591 2.986.834 5.665.162 2.742.418 5.477.772 8.2l.122.99c.391 3.136.83 6.296 1.503 9.382a61.51 61.51 0 0 1 .878 4.074c.35 1.04.594 2.104.729 3.19.198 1.104.333 2.218.411 3.342.273.718.406 1.448.399 2.192.036 1 .003 1.998-.104 2.991a19.23 19.23 0 0 1-.428 3.072 17.418 17.418 0 0 1-1.097 4.039 38.993 38.993 0 0 1-1.529 4.277c-.915 2.162-2.019 4.169-3.275 6.149-1.178 1.855-2.442 3.642-3.886 5.304-1.866 2.147-3.994 4.114-6.326 5.773a30.753 30.753 0 0 1-4.201 2.617c-1.796.924-3.62 1.756-5.565 2.318-1.213.351-2.448.592-3.698.778-2.453.362-4.994.307-7.462-.117a22.84 22.84 0 0 1-4.635-1.111 35.102 35.102 0 0 1-3.534-1.501 13.578 13.578 0 0 1-1.722-.99 19.036 19.036 0 0 1-2.6-2.027 16.91 16.91 0 0 1-.772-.697c-.121-.106-.055-.265.085-.303l.043-.005c-.055-.05-.112-.099-.166-.151a.199.199 0 0 1-.031-.034c-.026-.023-.055-.047-.079-.07-.092-.081 0-.261.081-.304a.2.2 0 0 1 .117-.014.194.194 0 0 0-.027-.024c-.009-.007-.011-.026-.009-.045l-.036-.028c-.121-.107-.059-.263.083-.304a.699.699 0 0 1 .305.016l.045.01-.081-.076c-.143-.123-.098-.26.078-.303.131.008.261.026.389.057l.096.026c.047.012.092.026.14.04-.081-.073-.162-.144-.24-.218-.078-.068.005-.265.076-.305.097-.055.287.021.375.085.216.024.501.118.606.208.287.275.584.538.886.794.182.057.356.133.489.247.342.327.698.635 1.061.934l.277.19.139.092c.522.305 1.045.609 1.565.915 1.907.644 3.814 1.289 5.719 1.931l.252.076 1.85.228c1.216.128 2.434.121 3.65-.019a12.54 12.54 0 0 0 2.707-.263 25.25 25.25 0 0 0 4.441-1.159c1.663-.605 3.247-1.401 4.793-2.259.555-.311 1.102-.64 1.638-.988.174-.124.347-.249.521-.377a43.103 43.103 0 0 0 3.286-2.733c.494-.453.969-.924 1.428-1.412.066-.072.13-.14.194-.212.44-.478.865-.973 1.271-1.486l.387-.436c1.563-1.941 2.952-4.029 4.201-6.179a38.666 38.666 0 0 0 3.073-6.693c.262-.827.49-1.666.68-2.514.351-1.02.581-2.065.688-3.131.036-.209.064-.417.093-.626l.016-.329c.003-.055.005-.11.005-.164.048-.332.088-.664.119-.995.019-.334.031-.669.033-1.003l-.026-2.05a5.73 5.73 0 0 1-.019-.197l-.052-.452c-.114-.934-.202-1.871-.316-2.804 0-.005 0-.012-.002-.019a42.56 42.56 0 0 0-.14-1.05c-.026-.209-.06-.417-.091-.626l-.059-.365a23.375 23.375 0 0 0-.406-1.887l-.071-.267-.414-2.074-.465-2.041a56.525 56.525 0 0 1-.753-4.133 160.64 160.64 0 0 1-.978-6.978 89.18 89.18 0 0 1-.599-6.214 86.03 86.03 0 0 1-.299-6.155c-.002-.093.059-.169.133-.212l-.007-.395c-.008-.349-.015.07-.018-.328l-.004-1.096c0-.091.001-.155.003-.16-1.269.088-2.122.016-3.348-.048l-.207-.01a28.24 28.24 0 0 1-3.349-.361c-.005.057-.043.097-.107.109-.114.005-.221.005-.33.007l.04.154c.003.079-.033.128-.109.15l-.317.014c-.423.017-.847.026-1.267-.031a7.676 7.676 0 0 1-1.111-.242 6.462 6.462 0 0 1-.691-.156c-.604-.173-1.202-.406-1.808-.59-.617-.13-1.244-.173-1.9-.017-.693.163-1.28.46-2.006.28a3.093 3.093 0 0 1-.426-.147l-.129-.01a1.219 1.219 0 0 1-.068-.007c-.757-.109-1.432-.587-2.154-.844a1.174 1.174 0 0 0-.746.056l-.061.028-.24.177c-.097.114-.192.229-.287.344l-.141.173c-.258.32-.534.606-.869.815-.403.372-.883.59-1.456.605-.325.009-.648-.06-.961-.16-1.183.366-2.449.44-3.629.084a5.269 5.269 0 0 1-1.978-.716c-.834.35-1.623.817-2.428 1.22l-.181.091c-.823.41-1.733.808-2.664.749a33.274 33.274 0 0 1-3.505-.434l-.158-.026-.575-.101-.464-.086-.237.09c-1.904.719-3.989 1.28-5.902.777a5.222 5.222 0 0 1-2.392-.91 2.181 2.181 0 0 1-.308-.19l-.02-.015-.018-.016-.01-.004c-1.042-.479-1.641-1.498-1.536-2.64a2.98 2.98 0 0 1 .009-1.098c-.34.4-.686.796-1.038 1.19-1.285 1.545-2.545 3.12-3.71 4.761l-.268.38a34.156 34.156 0 0 0-1.788 2.799 90.63 90.63 0 0 1-1.722 2.82 58.218 58.218 0 0 0-2.228 2.606l-.306.383-1.031 1.353a12.679 12.679 0 0 0-1.812 2.83 28.24 28.24 0 0 0-1.078 2.23c-.104.23-.204.462-.301.695a22.98 22.98 0 0 0-.839 2.787 14.679 14.679 0 0 0-.38 2.102l-.023.237c-.029.28-.05.559-.062.839a.951.951 0 0 1 .168.121l.174.062.14.041c.218.068.596.208.506.381l-.459.872c.048.05.069.102.038.159-.306.585-.615 1.17-.923 1.756a.141.141 0 0 1-.043.05c.263.12.52.253.765.398.477.284.828.614 1.154.998.342.204.665.426.969.682.375.394.703.825.98 1.292.257.441.466.9.627 1.382.072.253.105.516.103.784-.288 2.024-2.608.638-2.653.46-.318-1.223-.684-1.995-1.506-2.906l-.021-.014a15.712 15.712 0 0 0-1.437-.576c-.074.014-.15.024-.226.036.086.121.043.239-.13.26a8.148 8.148 0 0 1-2.264.124l-1.154-.164a7.281 7.281 0 0 0-1.367.699l-.143.095-.026.019c-1.114.893-1.974 2.081-2.563 3.375-.052.115-.102.232-.15.349l-.071.177-.004.01c-.77 3.017-.084 6.33 1.322 9.068a74.982 74.982 0 0 0 2.404 3.605l.812 1.059c.48.451.95.912 1.408 1.386.072.072.148.143.224.211.242.159.489.299.741.418.097.033.197.064.296.09.485.232.993.355 1.527.37a5.542 5.542 0 0 0 2.053-.246l.132-.044.098-.035c.361-.23.696-.517 1.014-.854.071-.073.204-.073.356-.033.083-.085.166-.175.245-.272.054-.06.14-.062.206-.017.226-.026.836.32.677.503-.026.042-.059.08-.088.12.107.055.214.117.309.181.499.138 1.235.634 1.176.784l-.008.012a1.666 1.666 0 0 1-.45.545l-.063.047-.14.098c.197.123.364.265.281.365a1.597 1.597 0 0 1-.126.208c.403.498.805 1 1.204 1.503.399.863.893 1.668 1.482 2.415.491.81 1.083 1.538 1.774 2.188.057.057.116.111.173.166.509.375 1.042.727 1.597 1.064l.239.144c.126.076.337.171.237.353a.17.17 0 0 1-.042.057c.349.228.71.443 1.083.643l.035.021c.141.09.332.253.131.386-.171.114-.625-.194-.839-.336a.516.516 0 0 1-.135-.026c.071.038.142.079.213.119l.108.059c.083.049.491.319.206.433a.585.585 0 0 1-.387-.104 8.53 8.53 0 0 1-.413-.218c.048.073.048.147-.071.194a.811.811 0 0 1-.121-.004c.28.177.567.343.864.499l.048.03c.126.082.326.236.18.369-.164.147-.615-.166-.731-.237l-.347-.207a.264.264 0 0 1-.086.02c.105.064.202.132.309.194l.146.079c.182.1.439.265.346.43-.094.164-.37.029-.549-.077l-.193-.119-.025-.015-.008.029a.03.03 0 0 1-.007.014c-.089.155-.313.053-.467-.036l-.124-.075c-.211-.127-.419-.252-.626-.379l-.31-.19h-.004c-1.071-.643-2.062-1.282-2.995-2.107a18.219 18.219 0 0 1-1.572-1.572c-.993-1.116-1.732-2.393-2.444-3.697-.012-.021.005-.076.033-.135a20.673 20.673 0 0 1-.23-.493c-.732.204-1.549.263-2.301.213a6.11 6.11 0 0 1-1.2-.204c-1.266-.175-2.486-.751-3.541-1.441-.066-.042-.126-.09-.187-.132a8.312 8.312 0 0 1-1.24-.854 20.52 20.52 0 0 1-2.156-2.064 24 24 0 0 1-1.359-1.77c-.432-.605-.869-1.209-1.306-1.814-1.214-1.896-1.99-4.078-2.292-6.309a12.728 12.728 0 0 1-.207-2.484c.012-.599.079-1.206.195-1.81-.069-.067-.138-.133-.206-.202-.038.067-.076.114-.1.09l-.544-.544a8.648 8.648 0 0 1-1.09-1.302c-.708-1.003-1.235-2.105-1.627-3.266a11.394 11.394 0 0 1-.544-2.685c-.023-.152-.047-.306-.066-.463-.152-1.234-.012-2.417.176-3.635a.193.193 0 0 1 .106-.157c.014-.096.031-.195.047-.294-1.573-1.662-2.706-3.665-2.613-6.084a6.248 6.248 0 0 1 .485-2.215l.036-.079c-1.313-.202-2.355-1.122-3.137-2.263a7.105 7.105 0 0 1-.201-.165c-1.4-1.193-2.37-2.881-3.034-4.665a10.866 10.866 0 0 1-.924-3.29c-.01-.083-.016-.164-.023-.246a21.016 21.016 0 0 1-.257-5.455 27.052 27.052 0 0 1-.774-3.42 24.11 24.11 0 0 1-.19-1.663l-.004-.03-.007-.1-.02-.25a2.573 2.573 0 0 1-.009-.123c-.401-5.076.736-10.073 2.617-14.775.164-.423.333-.845.508-1.263l.185-.437c1.888-3.039 4.723-5.496 7.124-8.092.829-.895-.511-2.24-1.343-1.34-1.595 1.724-3.307 3.376-4.852 5.148-.273.02-.546.028-.819.014a6.505 6.505 0 0 1-1.382-.22c-1.114-.164-2.128-.612-3.05-1.271-1.232-.573-2.284-1.654-2.389-3.065a2.825 2.825 0 0 1 0-.421 3.708 3.708 0 0 1 .278-2.079c.05-.182.114-.363.195-.54a3.49 3.49 0 0 1 1.095-1.38c.012-.007.021-.011.031-.019.049-.052.097-.104.152-.151.08-.074.166-.142.256-.206a12.932 12.932 0 0 1-.857-1.643c-.269-.626-.406-1.26-.482-1.932a8.126 8.126 0 0 1-.048-.791 8.787 8.787 0 0 1-.033-.368c-.059-.938.05-1.912.401-2.79.026-.066.06-.132.09-.2.067-.2.141-.399.231-.593.351-.747.85-1.38 1.465-1.899.333-.334.705-.63 1.112-.881.239-.15.513-.282.8-.392.513-.27 1.171-.516 1.705-.535.064-.002.121.005.183.005.05-1.36.226-2.842.765-4.075.313-.893.783-1.687 1.491-2.258a3.978 3.978 0 0 1 1.548-1.002l.112-.039.043-.012c.568-.275 1.18-.384 1.81-.381.733-.038 1.482.1 2.12.436.133.071.276.159.411.253.102-.203.216-.41.347-.615a9.21 9.21 0 0 1 1.653-1.951c.076-.07.159-.13.24-.197.311-.282.641-.543.983-.78a8.226 8.226 0 0 1 2.399-1.14 8.027 8.027 0 0 1 3.053-.495l.214.01.141.009c1.028.066 2.042.318 3.011.697 1.005.396 1.855.995 2.646 1.682.185-.255.396-.497.655-.725.074-.064.152-.12.226-.18a5.803 5.803 0 0 1 1.087-.822 4.102 4.102 0 0 1 1.176-.458c.418-.142.857-.23 1.304-.258Zm-4.88 97.707c.042-.002 2.241.821 3.337 1.353l.054.027c1.263.625 1.871 1.076 3.007 1.879.076.055.154.137.154.218 0 1.17-.285 2.601-1.271 1.967a23.794 23.794 0 0 0-.43-.269l-.218-.131-.007.002c.002 0 .005-.002.007-.005a29.897 29.897 0 0 0-6.809-3.062c-.164-.059 1.05-1.889 1.385-1.787-.193-.076.759-.19.791-.192Zm22.556-51.688c-1.427.152-2.855.302-4.282.449-.91.104-1.822.197-2.734.275-1.37.102-2.74.118-4.106-.069a13.753 13.753 0 0 1-1.43-.277c-.32.234-.653.455-.992.666l-3.772 2.88c-2.529 1.983-5.003 4.086-7.231 6.406-3.891 4.054-7.06 8.796-9.052 14.05-.181.106-.32.292-.367.576-.352 2.154-1.381 4.117-1.753 6.262-.366 2.112.121 3.908 1.45 5.582.284.358.866.339 1.222.097.083.163.442.156.568-.562.592-.639 1.097-1.309 1.44-2.138.252-.61-.172-1.034-.686-1.117.213-.768.454-1.529.725-2.282.803-2.237 1.824-4.375 3.109-6.38 1.13-1.764 2.439-3.3 3.845-4.84.017-.021.045-.028.076-.033l.292-.323c.04-.044.124-.04.216-.016.088-.093.174-.187.264-.28.088-.094.185-.066.24.01.149-.033.422.128.506.18.142.095.187.201.066.336a1.49 1.49 0 0 1-.064.07c.164.068.325.16.451.25.439.098 1.057.505.95.626-.226.235-.444.474-.66.718.19.133.313.263.263.32a29.055 29.055 0 0 0-2.564 3.098 22.677 22.677 0 0 0-1.618 2.548 32.015 32.015 0 0 0-1.864 3.861c-.076.201-.15.403-.221.604-.788 2.202-1.377 4.487-1.627 6.814l-.01.157c-.047.838-.065 3.083-.151 3.619.525.258 1.071.478 1.639.659.106.031.216.059.325.085.062-.026.126-.048.19-.066a6.705 6.705 0 0 1 1.627-.437c.376-.049.75-.066 1.124-.056l.16.007c.167.004.331.016.497.033-.01-.095-.014-.187-.022-.282-.047-.031-.083-.073-.085-.131a15.617 15.617 0 0 1-.007-3.199c.071-.557.154-1.112.244-1.666.093-.455.2-.903.316-1.351.309-1.256.72-2.482 1.219-3.681 1.42-3.42 3.455-6.504 5.502-9.57 1.494-2.24 2.907-4.53 4.453-6.732 1.316-1.874 2.698-3.72 4.173-5.475 1.472-1.75 3.028-3.436 4.707-4.996.271-.249.544-.49.822-.73 1.591-1.422 3.32-2.59 5.12-3.737.069-.045.192.005.294.09l.291-.179c.048-.03.097-.058.146-.087.045-.028.095.02.121.06.124-.064.247-.126.371-.188.09-.072.183-.141.274-.213a86.569 86.569 0 0 1-4-.295Zm16.743-15.8a9.417 9.417 0 0 0-3.249-.086c-.456.067-.909.147-1.359.244a8.835 8.835 0 0 1 2.376 3.335c.576 1.415-1.722 2.025-2.29.63-.548-1.345-1.585-2.377-2.838-2.995-.271.15-.533.314-.784.495a8.717 8.717 0 0 0-.926.867 8.936 8.936 0 0 0-1.591 2.506 9.833 9.833 0 0 0-.366 1.882c-.234 2.452.469 4.839 1.678 6.95l.047.001a22.454 22.454 0 0 1 3.372-1.476 31.513 31.513 0 0 1 2.892-1.728 30.432 30.432 0 0 1 6.652-2.56l.266-.066c.543-.139 1.09-.26 1.639-.367l.33-.062h.005l-.036-.353c-.185-1.387-.729-2.674-1.432-3.864-.527-.898-1.323-1.817-2.206-2.552l-.005-.003a8.03 8.03 0 0 0-1.257-.571l-.163-.057-.755-.17Zm-28.95-2.107c-2.242-.211-4.484-.19-6.725-.008a57.619 57.619 0 0 0-4.37.602c-.981.169-1.943.406-2.888.7l.541 1.09c.903 1.818 1.829 3.623 2.919 5.34a25.7 25.7 0 0 0 1.838 2.533c.449.579.943 1.114 1.485 1.607.142.173.294.337.448.496a8.704 8.704 0 0 0 1.608 1.097c.467.34.954.635 1.462.895l.191.096 1.781.682.288.08.145.037.27.056.203-.11.104-.053c.057-.03.097.028.109.07.005.018-.002.041-.014.065l.259-.14c.446.18.92.325 1.428.42.23.043.46.076.691.105l.031.02a.16.16 0 0 1 .015.012h.253c1.775.171 3.576-.055 5.348-.373 2.509-.251 5.017-.529 7.523-.788.048-.005.067.016.067.05l.154-.015c.223-.023.484.349.316.484.135.08.266.197.363.287l.057-.005a10.314 10.314 0 0 1-.8-2.11l-.242-1.227a11.077 11.077 0 0 1-.112-1.427 8.144 8.144 0 0 1-.019-1.119 14.855 14.855 0 0 0-1.442-.51l-4.165-.509c-.834.03-1.667.09-2.499.182-.942.083-1.883.19-2.821.318-.088.01-.245-.109-.34-.246l-.401.054c-.209.026-.427-.391-.152-.476.1-.04.2-.077.299-.113l.15-.053-.086.01a.262.262 0 0 1-.104-.02c-.221.029-.442.057-.66.083-.277.035-.214-.33-.02-.416l.093-.034c-.164-.102-.308-.382-.105-.473l.027-.01c.095-.038.188-.07.283-.105a.153.153 0 0 1 .002-.085l-.392.05c-.036.004.135-.245.216-.295l.015-.006.187-.057c.029-.08.181-.259.233-.275.689-.216 1.33-.41 2-.56a.215.215 0 0 1 .114-.08c.418-.1.84-.178 1.263-.244.028-.043.057-.074.09-.076a16.277 16.277 0 0 1 3.152-.092c.202.018.403.04.605.066.387.043.775.097 1.159.17.964.166 1.905.417 2.822.755l.211.08c.23.085.458.175.684.273a9.47 9.47 0 0 1 .425-1.195c.026-.076.055-.15.086-.223l-.231-.137c-.05.094-.152.168-.218.128a28.126 28.126 0 0 0-5.237-2.778 26.825 26.825 0 0 0-3.166-1.164 39.191 39.191 0 0 0-1.629-.479 22.426 22.426 0 0 0-.824-.16 23.744 23.744 0 0 0-4.351-.747Zm54.388 3.762c-.2.345-.409.688-.63 1.025a24.089 24.089 0 0 1-3.82 4.52c.38 0 .76.014 1.135.05.647.06 1.28.167 1.898.317.05-.04.106-.06.151-.028l.161.111c1.324.357 2.568.917 3.694 1.669l-.02-.149c-.004-.024-.007-.05-.012-.074.019-.291.024-.583.015-.872-.233-1.71-.815-3.283-1.48-4.875-.013-.031-.004-.071.016-.112a15.588 15.588 0 0 0-1.108-1.582Zm.306-13.435c-.496.09-.988.206-1.477.35-.919.139-1.81.38-2.669.724-1.185.42-2.335.908-3.48 1.425a28.664 28.664 0 0 0-6.205 3.806c-.121.092-.238.187-.354.282-.425.367-.838.751-1.23 1.156-.411.446-.824.892-1.235 1.34-.504.526-1.083 1.002-1.539 1.57a2.967 2.967 0 0 0-.247.373l.268.092c.226.076.188.498-.035.436a2.221 2.221 0 0 1-.219-.075c.031.04.052.08.057.116.014.113-.073.27-.214.23a1.568 1.568 0 0 1-.192-.067.883.883 0 0 0-.033.218c.012.005.024.01.038.012.157.055.451.299.494.465.033.128-.076.265-.216.227a1.861 1.861 0 0 1-.307-.118c.067.064.119.133.124.192.009.109-.086.263-.216.227a1.65 1.65 0 0 1-.599-.296c-.043.057-.104.102-.154.088l-.093-.029a.987.987 0 0 1 .071.073l.034.036a11.585 11.585 0 0 1 1.686 2.33 18.71 18.71 0 0 1 .736-.597l.067-.058.068-.058-.496.163.011-.013c.035-.045.144-.194.195-.244l.013-.01a11.041 11.041 0 0 1 2.227-1.548 9.968 9.968 0 0 1 1.639-.856c1.365-.633 2.757-1.114 4.187-1.56.214-.068.427-.142.641-.208.062-.021.074.005.064.047l.112-.033c.199-.064.539.287.404.45.081.067.161.14.232.21l.05.051.057-.016c.17-.053.456.211.638.398l.134.142c.102.109.302.334.057.422l-.306.104c.009.062-.017.114-.112.15-.107.035-.211.073-.316.111.063.055.126.113.187.17l.091.088c.107.11.363.351.137.458l-.028.012-.292.104c.038.085.029.166-.1.213a46.707 46.707 0 0 0-4.996 2.027 15.547 15.547 0 0 1-3.862 1.505c-.112.035-.354-.133-.454-.301l-.202.06-.102.027-.033.008a10.4 10.4 0 0 1 .546 2.116c.012.064.022.13.029.194a32.635 32.635 0 0 1 6.343.125 22.14 22.14 0 0 0 2.15-1.454c.209-.162.415-.328.619-.496a23.744 23.744 0 0 0 3.318-3.54 23.466 23.466 0 0 0 2.366-3.814 24.432 24.432 0 0 0 1.443-3.918c.338-1.235.454-2.436.54-3.714.028-.209.047-.417.064-.626l-.002-.089-.003-.043a23.184 23.184 0 0 0-.119-1.342Zm-17.401 15.873a3.627 3.627 0 0 1-.169.054c.034.074.065.145.095.218l.004-.001.224-.176a.794.794 0 0 1-.154-.095Zm17.068-19.234c.428-.158.751-.19.969-.09-.323.024-.646.055-.969.09Z" clip-rule="evenodd"></path><path fill="#000" fill-rule="evenodd" d="M184.875 130.943c4.071-.493 8.018.75 11.997 1.377 2.102.331 4.206.578 6.332.67.428.019.856.03 1.284.038.04-.376.25-.721.707-.928.937-.423 1.686-.614 2.715-.574.941.038 1.886.134 2.812.303 1.683.308 3.374 1.007 4.605 2.221 2.849 2.81 2.416 7.322.214 10.382-4.548 6.323-12.85 6.616-19.96 6.534l-.656-.009c-6.474-.092-15.736.871-18.677-6.48-1.081-2.703-.931-5.836.393-8.428 1.58-3.092 4.904-4.703 8.234-5.106Zm20.222 10.527-.058.003c-2.984.114-5.969.195-8.955.248a111.416 111.416 0 0 0 .545 4.095c.039.254.181.648.141.9l-.015.099c.154.07.293.181.396.343.036.056.062.112.088.168 2.319.019 4.814-.026 7.178-.447l.004-.051c.043-.301.169-.504.336-.643.166-.961.151-1.985.215-2.939.04-.592.083-1.184.125-1.776Zm-11.294.291c-2.151.037-4.304.065-6.455.039l-.976-.015c.206 1.104.431 2.204.617 3.315.195 1.159-.827 1.895-1.711 1.865.099.017.198.033.297.047 2.763.39 5.631.287 8.435.284-.151-.879-.09-1.87-.112-2.603l-.005-.114c-.043-.94-.073-1.879-.09-2.818Zm-14.613-.202c.074.574.22 1.136.437 1.659.918 2.21 3.024 3.241 5.251 3.675-.386-.133-.693-.453-.771-1.001-.193-1.363-.262-2.748-.267-4.132-1.553-.015-3.116-.048-4.65-.201Zm34.003-.472c-1.105.26-2.39.141-3.474.19-1.016.046-2.032.086-3.048.127.048.693.094 1.384.145 2.076.065.894.072 1.839.243 2.729 2.045-.696 3.877-1.813 5.251-3.599.343-.445.649-.967.883-1.523Zm-28.785-6.518c-1.84.434-3.581 1.353-4.517 3.033-.555.997-.8 2.179-.753 3.343 1.555-.18 3.137-.249 4.711-.306.006-.282.012-.565.021-.847l.024-.723c.043-1.378.065-3.109.514-4.5Zm9.524.168-.81-.091c-2.25-.256-4.499-.524-6.748-.37-.326.022-.657.057-.988.106.398 1.432.364 3.114.53 4.531.065.549.146 1.092.236 1.634l.39-.019c2.414-.13 4.83-.21 7.246-.306 0-.453.003-.906.01-1.359l.009-.453c.027-1.157-.048-2.461.125-3.673Zm11.297-.184c-2.356.379-4.791.46-7.106.463a30.988 30.988 0 0 1-2.772-.137c.06.491.092.987.137 1.471.091.978.195 1.954.309 2.93l.101.853c2.969-.134 5.939-.279 8.908-.43l.419-.022.117-1.641c.08-1.093.168-2.187.292-3.276l-.093-.033a1.54 1.54 0 0 1-.312-.178Zm1.023.407c.13 1.547.202 3.1.298 4.649l1.957-.104.978-.055c1.269-.073 2.898-.456 4.152-.099.096-1.137-.23-2.246-1.259-3.01-1.806-1.342-4.105-.864-6.126-1.381Zm-6.686-13.826c2.914-1.665 10.227-3.368 10.69 1.867.213 2.408-1.582 4.404-3.677 5.295l-.079.033c-1.965.806-5.448 1.717-7.149-.032-1.415-1.455.462-4.064 2.221-2.872.904.612 2.806.161 3.815-.13l.063-.019c1.088-.319 2.54-1.341 2.09-2.678-.399-1.183-2.093-1.4-3.155-1.438-1.584-.057-3.126.311-4.696.43-.248.019-.325-.34-.123-.456Zm12.072-8.416c3.955-.185 6.416 4.125 5.506 7.657-.157.609-.84 1.207-1.499 1.139l-.166-.015a1.498 1.498 0 0 1-.247-.041c-.626-.173-1.188-.823-1.142-1.496l.012-.196c.092-1.669-.089-3.591-2.076-3.995-1.685-.343-2.625 1.276-2.645 2.766-.004.264-.302.449-.536.307-1.218-.74-1.429-2.212-.964-3.479.59-1.606 2.066-2.568 3.757-2.647Zm-29.354.924c2.878-.958 5.984.573 7.378 3.113.489.141.977.517.909 1.093-.098.829-.246 1.351-.821 1.979-.901.983-2.587.481-2.961-.729l-.016-.055c-.425-1.564-2.15-2.596-3.722-2.048-1.836.639-1.782 2.574-3.07 3.701a.443.443 0 0 1-.514.066c-1.368-.659-1.122-2.644-.635-3.781.64-1.491 1.883-2.817 3.452-3.339Zm-3.921-8.724c2.333-2.375 8.415-4.673 10.011-.287.304.835-.343 1.962-1.215 2.135-1.427.284-2.693-.335-4.111-.224-1.148.09-2.345.473-3.263 1.183-2.541 1.965-3.1 5.289-4.871 7.791-.086.121-.254.07-.27-.073-.403-3.642 1.164-7.923 3.719-10.525Zm30.421-2.338c1.548-.546 3.301-.499 4.857-.015a9.435 9.435 0 0 1 4.115 2.624c.503.55.969 1.156 1.342 1.801.198.342.407 1.049.632 1.47 1.22.702 1.741 2.303.649 3.442l-.049.05-.146.145c-.587.579-1.472.831-2.273.599-1.792-.518-2.01-1.927-2.631-3.422a6.125 6.125 0 0 0-1.963-2.504c-2.013-1.517-5.312-2-7.735-1.285-.129.038-.28-.126-.188-.245.459-.594.723-1.081 1.338-1.56a7.192 7.192 0 0 1 2.052-1.1Z" clip-rule="evenodd"></path></svg>