<svg xmlns="http://www.w3.org/2000/svg" width="240" height="324" fill="none" id="monster"><path fill="#fff" fill-rule="evenodd" d="M204.98 141.63c-2.179-6.006-.542-13.61-5.035-18.58-1.329-.808-2.034-.358-2.581 1.051-.33 1.854-1.103 8.237 1.679 8.234.35 3.987.131 8.003-.726 11.915-2.053-.33-3.55.726-5.048 1.511-1.117.586-2.235 1.021-3.583.619-5.569-.982-7.156 4.868-7.224 9.643-.082 2.33-.301 7.762-1.326 10.022-4.644-9.62-14.395-13.999-23.687-16.162-1.457-.403-2.7-.954-3.634-1.895-7.828-3.092-4.068-13.224-7.669-19.046-5.638-6.922-12.408-8.914-20.937-7.728-7.463.826-12.536 8.409-12.075 15.567.137 1.461-.739 2.997-1.254 4.5-5.151 6.167-13.167 8.925-20.06 12.651-22.994 11.243-30.963 19.834-39.898 43.757-4.18 9.001-9.183 17.736-10.845 27.649-1.952 11.682-1.958 23.639-1.279 35.436-1.268.152.112 9.22 1.225 12.362.382 1.076 1.295 1.853 2.434 1.835 2.29 1.113 7.667 5.6 10.063 5.452 7.739-.477 15.262.26 22.718-.121 8.067-.413 16.056-1.918 24.158-1.723 14.127.341 4.013 1.18 18.629 1.844 9.227.425 42.89-4.616 52.091-3.793 7.484 1.575 10.898-1.08 9.757-8.902-.422-2.998-1.77-9.665 2.664-9.949 2.097.244 3.833 2.341 5.405 3.566 13.88 10.338 28.06 2.894 29.177-14.101 2.104-14.254 5.053-17.621-1.359-31.855-20.285-52.989 10.277-45.79-10.358-70.609-1.611 1.404-1.202-2.343-1.422-3.15Z" clip-rule="evenodd"></path><path fill="#000" fill-rule="evenodd" d="M197.271 122.653c1.107-1.088 2.867-.817 3.947.15 1.098.983 1.76 2.528 2.324 3.86 2.531 5.987 1.941 12.543 3.222 18.808 2.343 1.266 4.458 2.918 5.955 5.142 2.276 3.377 3.355 7.311 2.214 11.313-.589 2.072-1.591 3.991-2.305 6.018-.762 2.157-1.229 4.4-1.453 6.678-.22 2.236-.249 4.485-.186 6.73.034 1.162.095 2.323.156 3.483.055 1.04.239 2.125-.009 3.144l-.031.117c.097-.015.192-.034.287-.055.816-.182 1.534-.465 2.386-.353.663.087 1.007.64.726 1.266a2.282 2.282 0 0 1-.481.695c1.711 12.66 4.7 25.117 6.667 37.737.892 5.725 1.435 11.468 1.129 17.265l-.033.575c-.312 5.322-1.079 11.188-3.783 15.843-1.263 2.179-3 4.113-5.104 5.505-.964.639-1.997 1.137-3.119 1.387-5.814 2.316-11.961 1.748-17.444-1.315-2.465-1.376-4.925-2.98-6.938-4.971-.978-.968-1.922-2.2-2.501-3.546.002.302-.053.611.008.909l.122.589c.913 4.375 4.393 20.543 4.439 21.9.026.733-6.136.715-6.805.737l-.019.001c-9.979.416-19.965.194-29.939-.219l-.787-.033c-9.673-.409-20.199-.96-29.882-1.242l.02-.162c.116-.87.68-4.739.743-5.036l.002-.01c.274-1.106.804-4.548.525-5.69-.718-2.94-3.952-2.269-6.228-1.957l-.479.063c-.369.051-1.265.182-1.257.191-.241-.252.334-.967.475-1.158l.114-.158c.611-.856 1.164-1.745 1.104-2.848-.147-2.694-3.996-2.542-5.887-2.355-.133.013-.188.221-.034.252l.373.078c1.2.258 3.865.914 3.805 1.908-.035.564-.635.98-1.002 1.335-.405.392-.807.814-1.105 1.296-.575.926-.706 2.176-.137 3.14.656 1.112 1.819 1.242 2.984 1.141l.066-.006.769-.074 1.538-.15c.381-.037 1.605-.358 1.962-.137.507.314-.102 1.704-.216 2.162l-.007.032c-.098.663-.157 7.609-.167 8.068-7.546-.175-15.093-1.854-22.64-1.46-5.994.314-11.973.855-17.957 1.325l-.15-1.285c-1.659-13.992-4.26-32.455-3.011-46.295.097-1.084-1.593-1.077-1.69 0-1.29 14.311 1.534 33.536 3.177 47.709-2.547.194-5.096.37-7.647.504l-.65.033c-8.682.434-17.643.46-26.139-1.532-.262-.061-.35-.323-.295-.541a.168.168 0 0 1-.248-.097c-.99-3.264-1.492-11.574-1.94-15.17l-.03-.235c-.461-3.494-.725-7.028-.916-10.543a164.208 164.208 0 0 1 .182-21.095c1.654-22.401 8.242-45.032 22.067-63.035 3.342-4.352 7.147-8.333 11.713-11.413 4.478-3.022 9.502-5.15 14.6-6.879 3.37-1.144 6.793-2.122 10.215-3.099l.39-.191.195-.094c1.217-.577 2.415-1.209 3.662-1.722l.275-.113c1.806-.724 3.911-1.366 5.866-1.344 3.167-1.595 5.827-4.007 5.569-7.875-.105-1.589 2.387-1.587 2.476 0 .233 4.223-2.368 7.218-5.683 9.228l.016.016.016.018a16.054 16.054 0 0 0 1.669 1.64c3.579 3.048 8.106 5.578 12.632 7.243 5.309 1.955 10.614 2.54 16.104.96a29.322 29.322 0 0 0 8.073-3.75 25.82 25.82 0 0 0 2.189-1.619 14.669 14.669 0 0 1-1.633-2.912c-.892-2.08-1.629-4.897-.719-7.093.224-.541 1.114-.875 1.424-.186.856 1.885 1.213 3.922 2.21 5.766.38.701.818 1.367 1.308 1.995 0 .033 3.744.674 3.744.674 4.525-.002 8.786 1.737 12.79 3.91 2.366 1.284 4.692 2.65 7.011 4.018l4.532 2.675c.334.197.708.387 1.082.59-.437-2.16-.651-4.362-.507-6.546.218-3.292 1.498-6.894 4.889-8.067 1.603-.556 3.458-.385 5.015.233.719.285 1.5.663 2.168 1.168.323-1.454 1.686-2.544 3.055-3.026a5.939 5.939 0 0 1 1.358-.305 9.856 9.856 0 0 1-.011-.712l.003-.184a79.083 79.083 0 0 0-.011-3.231 74.648 74.648 0 0 0-.346-6.07c-.173-1.683-.473-3.347-.696-5.023l-.093-.721c-.188-1.42-.504-3.188.613-4.285ZM61.142 260.282l-.378-.224c-1.237-.731-2.511-1.404-4.01-1.066-1.428.322-2.44 1.482-2.973 2.788-.251.618-.382 1.24-.48 1.898-.054.368-.09.74-.155 1.106l-.022.114c-.03.146-.074.349-.115.526-.39-.172-.782-.444-1.1-.605l-.258-.13c-.603-.3-1.23-.586-1.888-.725-1.425-.302-3.005.134-3.819 1.411-.696 1.091-.682 2.378-.416 3.601l.02.085c.115.508.712 2.541 1.58 2.245.846-.289.959-1.413 1.023-2.161l.004-.072c.03-.564-.083-1.75.556-1.964.799-.268 2.335.955 3.03 1.274 1.243.571 2.61.74 3.621-.371.907-.997.984-2.455 1.218-3.719l.061-.318c.125-.642.366-1.667 1.076-1.642.58.022 1.217.624 1.696.909.528.315 1.076.578 1.649.802 1.337.523 2.824.69 4.246.536.824-.089 1.36-.483 1.652-1.258a3.75 3.75 0 0 0 .226-.706c.462-1.736-2.062-2.975-2.992-1.422a6.292 6.292 0 0 1-3.052-.912Zm155.302-11.608c-.77-.549-1.815-.431-2.502.188l-.041.038a7.808 7.808 0 0 0-.899 1.085l-.087-.067a1.473 1.473 0 0 1-.041-.033l-.037-.031c-.569-.481-1.163-.921-1.895-1.118-1.907-.512-3.64.765-4.473 2.402-.395.777-.564 1.579-.761 2.417l-.016.077c-.08.39-.183 1.182-.525 1.375-.126.071-.411-.07-.693-.232-.644-.372-1.222-.846-1.853-1.237-1.48-.919-3.162-1.299-4.824-.636-1.645.655-2.824 2.202-2.852 4.005-.021 1.328.869 3.647 2.543 3.485.335-.032.767-.239.821-.625.144-1.026-.664-2.287.263-3.134.897-.819 1.826-.13 2.638.438l.582.408c.944.657 1.918 1.258 3.114 1.33 1.513.09 2.911-.746 3.672-2.035.689-1.165.699-2.483 1.237-3.679.118-.261.421-.502.32-.623.408.213.935.825 1.189.997 1.265.854 2.957.848 4.066-.285.442-.45.724-1.007 1.051-1.537.118-.192.266-.37.374-.567.04-.072.104-.342.158-.582l.082-.382.008-.063c.07-.578-.134-1.032-.619-1.379Zm-48.743-5.045c-1.454-.764-3.246-.473-4.555.452-1.469 1.037-2.19 2.631-2.68 4.316-.356 1.226-.527 2.917-1.552 3.805-1.193 1.034-3.193-.063-4.452-.471-1.523-.492-3.354-.694-4.84.035-1.457.714-2.159 2.172-2.31 3.733-.14 1.457.069 3.376.9 4.595.081.12.238.089.289-.038.546-1.345.441-2.884.885-4.276.473-1.486 1.583-1.801 2.991-1.401 1.47.417 2.815 1.197 4.327 1.475 1.611.296 3.206-.009 4.476-1.075 1.069-.896 1.716-2.201 2.153-3.501.426-1.268.496-2.966 1.403-4.018.229-.266.628-.587.999-.621.551-.05.75.359 1.194.673 1.173.828 3.046.844 3.764-.612.236-.477.352-1.154 0-1.621-.616-.818-1.123-.812-1.936-.635a.805.805 0 0 1-.088-.088l-.025-.03c-.215-.273-.633-.534-.943-.697Zm-57.578-8.597c-.048-1.095-1.366-2.146-2.406-1.381-.167.122-.332.247-.494.377l-.066.071c-.194 0-.374-.051-.565-.112l-.334-.107c-.877-.278-1.721-.503-2.657-.297-1.611.354-2.633 1.744-3.158 3.22-.489 1.375-.328 2.778-.558 4.188-.217 1.337-.904 1.859-2.194 1.573l-.066-.016c-2.565-.614-5.487-2.332-7.736.023-2.43 2.545-.84 6.587 1.82 8.222.115.072.244-.046.218-.167-.354-1.644-1.385-3.212-1.04-4.957.24-1.209 1.08-1.782 2.279-1.589 2.521.406 4.88 2.416 7.465.957 1.292-.729 2.004-2.098 2.326-3.501.289-1.262.207-2.686.763-3.876.607-1.303 1.631-.359 2.733-.181 1.561.252 3.753-.567 3.67-2.447Zm84.587-38.938c.005-1.088-1.685-1.089-1.69 0-.063 13.785-6.509 26.526-7.667 40.174-.092 1.084 1.599 1.078 1.69 0 1.159-13.652 7.604-26.367 7.667-40.174ZM55.146 218.658c-.89-1.008-2.193-.695-3.252-.19a35.057 35.057 0 0 0-4.572 2.597.378.378 0 0 0 .29.688c1.07-.206 2.112-.436 3.15-.77.78-.251 1.592-.615 2.406-.744-.051.187-.113.37-.186.551-.133.369-.288.731-.42 1.101a52.832 52.832 0 0 0-.726 2.236l-.114.375c-.476 1.571-.938 3.857 1.257 4.34.814.18 1.62-.175 2.378-.454l.156-.057 2.763-.979c.33-.117.94-.198 1.212-.403l-.043.21c-.057.278-.112.551-.232.829l-.067.153c-.687 1.557-1.552 3.114-.751 4.835.685 1.474 2.306 2.173 3.869 1.755 1.484-.398 2.559-2.07 1.79-3.525-.287-.542-1.125-.807-1.657-.469l-.143.095c-.168.11-.456.298-.463.333l-.124.031c.09-.264.15-.669.229-.849l.289-.657c.538-1.234 1.004-2.49.593-3.874-1.175-3.964-5.16-1.711-8.1-.579.043-.168.085-.333.12-.495.128-.574.266-1.145.404-1.716l.28-1.18c.254-1.086.45-2.296-.336-3.188Zm150.42-4.424c.002-.094-.113-.166-.194-.111-1.879 1.264-3.137 3.903-2.431 6.152.343 1.091 1.073 2.049 2.096 2.579 1.273.659 2.679.408 4.016.126l.568-.121c.401-.085.796-.146 1.203-.034.14.039.302.161.435.187-.055.093-.113.255-.143.315l-.096.195a3.695 3.695 0 0 0-.252.611c-.2.697-.151 1.445.173 2.094.603 1.211 1.868 1.893 3.184 2.009.785.07 2.761-.617 3.228.215.928 1.653 3.569.541 3.056-1.288-.348-1.237-1.332-2.037-2.552-2.371-.65-.178-1.323-.154-1.984-.081-.259.028-.517.068-.777.096l-.194.018c.05-.004-.538-.018-.774-.034l.051-.136a.505.505 0 0 1 .02-.048c.263-.563.457-1.123.442-1.751-.029-1.134-.762-2.122-1.726-2.668a4.937 4.937 0 0 0-2.954-.591c-1.11.123-2.687 1.002-3.778.539-.822-.349-1.101-1.567-1.114-2.365-.019-1.201.464-2.34.497-3.537Zm-76.559-7.882c-3.024-1.358-5.621.961-7.395 3.18-.092.114.023.307.167.218l.236-.147c1.449-.909 3.056-1.983 4.851-1.674 1.626.281 2.028 1.345 1.705 2.795l-.095.408c-.344 1.493-.608 3.038.249 4.427.808 1.311 2.386 1.884 3.863 1.919 1.704.041 3.175-.752 4.734-1.305l.123-.043c.661-.229 3.076-.826 3.109.534.016.622-.65 1.352-.906 1.911-.335.731-.557 1.499-.553 2.311.009 2.025 1.698 3.67 3.697 2.688.777-.382.977-1.478.572-2.182-.571-.993-.802-.941-.402-1.984l.115-.293c.492-1.256.884-2.549.331-3.867-1.104-2.633-4.414-2.952-6.78-2.08l-.086.033c-1.472.57-5.881 2.856-5.577-.377.12-1.273.506-2.494.236-3.781-.251-1.196-1.085-2.193-2.194-2.691Zm-14.572-10.813c-.552-.972-2.405-.624-2.251.61l.049.384c.063.526.076 1.02-.287 1.488-.44.568-1.195.739-1.88.653-1.449-.184-2.374-1.529-3.969-1.215-1.295.255-2.19 1.315-2.708 2.471-.548 1.224-.536 2.551-.945 3.812-.47 1.45-1.473 1.383-2.725.876l-.27-.111c-1.198-.499-2.4-1.052-3.735-.814-2.217.396-4.127 3.806-2.05 5.453.376.297 1.031.142 1.015-.42l-.002-.107c-.01-1.023.248-2.343 1.42-2.584 1.243-.256 2.647.879 3.801 1.206 2.989.845 4.692-1.405 5.2-4.067l.018-.102c.162-.932.29-2.656 1.265-3.092.519-.233 1.073.34 1.507.57a5.484 5.484 0 0 0 2.162.644c2.823.215 6.031-2.755 4.385-5.655Zm70.643-3.676c-.93-.404-2.318-.179-2.545 1.035l-.138.764c-.27 1.476-.7 3.322-2.151 3.854-.907.332-1.949-.251-2.762-.606-.977-.427-1.93-.793-3-.895-2.171-.206-3.788 1.051-4.556 3.015l-.067.175c-.62 1.65-1.457 4.806-.101 6.145.198.195.597.29.84.108.801-.601 1.004-1.59 1.279-2.517l.024-.079c.292-.963.531-2.023 1.059-2.89.979-1.612 3.536.229 4.766.654 2.019.698 4.114.29 5.657-1.203.975-.944 1.551-2.138 1.947-3.401.253.131.516.244.799.32 1.077.292 2.356.138 3.176-.678 1.54-1.533.705-4.282-1.643-3.837-.462.087-.766.529-.821.98l-.031.071c-.591-.195-1.237-.801-1.732-1.015ZM76.293 178.17c-2.194-2.257-6-1.033-7.5 1.361-.312.497.202 1.126.749.975 1.306-.36 3.148-1.777 4.528-.875 1.023.669.467 2.416.373 3.393l-.013.146c-.119 1.331-.146 3.151.89 4.147.597.574 1.511.496 2.298.414l.25-.026c.927-.093 1.848-.256 2.736-.542.816-.262 1.59-.618 2.356-.995l.192-.095c.34-.168 1.472-.836 1.81-.417.178.219-.26 1.178-.352 1.392-.344.805-.78 1.562-1.096 2.381-.556 1.442-.603 3.07.178 4.446.756 1.334 2.395 2.415 3.848 1.39.831-.587.829-1.654 0-2.241-.44-.311-.882-.515-1.063-1.037-.237-.679.068-1.4.363-2.029l.353-.748c.781-1.672 1.562-3.594.47-5.302-1.128-1.763-3.42-1.791-5.153-1.057-.99.42-1.893.982-2.924 1.306-.714.225-1.43.375-2.16.457-.163-.879.067-1.864.07-2.738.003-1.327-.244-2.718-1.203-3.706Zm113.105-31.402c-3.702-.543-5.493 2.769-5.749 5.958-.23 2.896.239 5.8.972 8.615.274 1.044.583 2.075.906 3.09.52 1.63 1.084 3.257 1.771 4.825.209.473.42.949.657 1.405.81.665 1.504 1.561 2.134 2.421l.414.569.111.153a25.913 25.913 0 0 1 2.734 4.644c.713 1.576 1.243 3.219 1.655 4.896l.101.419c.317 1.291.784 2.832.22 4.033 1.109.342 2.212.653 3.39.818 1.627.228 3.319.243 4.961.183a68.058 68.058 0 0 0 4.75-.35l1.138-.125.353-.042a.742.742 0 0 1-.11-.184c-.405-.972-.353-2.1-.398-3.146l-.006-.115a89.877 89.877 0 0 1-.109-3.483c-.028-2.182.031-4.369.27-6.54.207-1.899.53-3.8 1.035-5.645.509-1.87 1.287-3.627 2.005-5.423.71-1.775 1.295-3.599 1.232-5.535a10.354 10.354 0 0 0-.769-3.557.116.116 0 0 1-.08.027c-1.439-.053-2.802-.469-4.192-.82a35.836 35.836 0 0 0-4.494-.862l-.32-.038c-1.257-.141-2.627-.21-3.789.33-1.257.585-2.049 1.887-2.527 3.136l-.053.144c-.848 2.368-.654 5.528 1.97 6.649.813.348 2.67.562 3.088-.541.188-.503-.198-1.247-.344-1.723-.171-.566-.283-1.124-.27-1.716a.97.97 0 0 1 .911-.952l.046-.003c.917-.04 2.807-1.097 2.991.425.036.295-.19.606-.429.75a5.088 5.088 0 0 1-1.508.592c.072.317.173.627.273.936a.524.524 0 0 1 .194-.055c.775-.063 1.542.059 2.317.068l.424.003c.602.005 1.127.038 1.71.35.539.287.444 1.008 0 1.316-1.164.808-3.135.334-4.348-.486.053.416.028.841-.15 1.287-.524 1.324-2.026 1.983-3.369 2.04-1.194.05-2.335-.326-3.288-.985-.194.695-.507 1.363-.642 2.084-.177.947.034 2.054-.296 2.944-.329.896-1.603 1.496-2.341.617-1.079-1.285-.743-3.32.205-4.622.505-.689 1.422-1.48 2.356-1.604a6.12 6.12 0 0 1-1.496-2.198.12.12 0 0 1-.08.004c-3.036-.831-4.688-3.583-4.79-6.472a6.072 6.072 0 0 1-.699.434c-.581.313-1.327.038-1.506-.611-.165-.605.315-1.351.989-1.3.384.032.771.034 1.153-.03a2.68 2.68 0 0 0 .156-.029c.034-.222.079-.444.133-.664-1.147.131-2.347-.057-3.456-.302-.955-.209-.733-1.729.228-1.693l.155.007c1.261.06 3.123.264 4.204-.535.19-.275.401-.535.629-.78a1.89 1.89 0 0 0 .079-.195c.581-1.674-2.172-2.629-3.412-2.811Zm-33.227 23.549c-1.441-.386-2.958.14-3.949 1.228-.833.915-1.264 2.038-1.649 3.187l-.22.661c-.321.935-.689 1.677-1.834 1.321-1.467-.457-2.739-1.254-4.335-1.191a5.754 5.754 0 0 0-3.88 1.728 4.8 4.8 0 0 0-1.307 4.03l.015.089c.114.677 1.103 3.093 2.152 1.981.468-.496.376-1.045.487-1.675.106-.6.332-1.189.702-1.676a2.496 2.496 0 0 1 2.745-.894c1.362.403 2.565 1.233 4.032 1.252 1.543.021 2.853-.779 3.705-2.036.687-1.015.932-2.203 1.415-3.306l.047-.105c.406-.908.683-1.236 1.613-.802l.325.156c1.392.662 2.958 1.268 4.398.335 1.338-.867 1.908-2.609.783-3.877-.621-.7-2.058-.581-2.461.317-.071.155-.137.311-.201.468a1.755 1.755 0 0 1-.357-.147c-.754-.34-1.41-.826-2.226-1.044Zm-42.068-10.255c-1.643-.886-3.016.857-2.753 2.431l.013.069c.009.047.032.151.059.27a1.964 1.964 0 0 1-.25-.047l-.381-.046c-.601-.07-1.183-.106-1.784.086-1.418.456-2.115 1.835-2.15 3.248-.034 1.408.695 2.544.909 3.89.219 1.376-1.205.983-2.134.882l-.037-.003c-1.293-.131-2.652-.134-3.726.709-1.11.871-1.602 2.375-1.445 3.753.142 1.244.92 3.158 2.329 3.355.139.019.298-.011.369-.15.57-1.109-.223-2.333-.133-3.503.098-1.287.918-1.501 2.049-1.418 1.097.081 2.191.314 3.275-.013 1.175-.356 2.029-1.365 2.27-2.555.266-1.312-.223-2.533-.54-3.779-.106-.414-.157-.831-.085-1.254.016-.092.095-.176.124-.212.18-.034.45.052.605.069l.219.021c1.191.108 2.337.036 3.188-.948.436-.504.597-1.121.554-1.771l-.022-.263c-.024-.252-.068-.586-.199-.725l-.002-.007a2.26 2.26 0 0 0 .124-.183l.037-.063c.365-.608.153-1.5-.483-1.843Zm84.214-15.426c-1.637 0-3.184.535-4.422 1.991.442.42.794.909.989 1.481a9.103 9.103 0 0 1 1.905-.775c2.005-.56 4.748-.552 6.434.824.883.719-.087 2.008-1.038 1.786-.851-.199-1.591-.567-2.484-.609a6.72 6.72 0 0 0-2.28.288c-1.134.342-2.165.991-2.924 1.885-.253.3-.475.625-.661.977-1.416 2.688-.349 6.543 1.606 8.756-.767-2.549-.003-5.555 1.525-7.666 1.839-2.542 4.589-2.83 7.487-2.433l.096.013c2.803.395 6.274 1.086 8.37 3.147-.209-.476-.45-.936-.721-1.382-1.588-2.617-4.223-4.658-6.957-6.115a24.613 24.613 0 0 0-1.381-.687c-1.752-.805-3.704-1.481-5.544-1.481Zm.896-19.969-.007.03a.105.105 0 0 1-.004.017c-.096.859.132 1.846.249 2.713l.015.123c.245 1.974.569 3.95.674 5.939.103 1.913.064 3.897-.166 5.801l-.034.271c-.136 1.038-.216 2.255-.566 3.321 1.347.129 2.695.562 3.921 1.023.439.167.876.342 1.312.528-.545-2.898-.837-5.838-1.429-8.727l-.116-.575c-.643-3.196-1.247-6.412-2.909-9.271a8.583 8.583 0 0 0-.731-1.04.41.41 0 0 0-.209-.153Z" clip-rule="evenodd"></path><path fill="#fff" fill-rule="evenodd" d="M162.571 89.561c-.502-6.497.276-13.308-2.229-19.484-4.366-10.247-16.61-13.664-26.103-17.565-3.803-1.124-16.599-1.282-21.052-2.77-10.077-3.366-12.485-7.378-20.492-.967-1.352 1.095-2.198 2.285-2.815 3.912l.026.007c-.177.678.012 1.354.41 1.871-3.473 3.55-4.925 8.873-3.144 13.599 5.813 12.298 5.54 18.948 3.667 32.169-2.446 12.343 3.143 16.852 12.4 23.568-.377.731-.455 1.702.037 2.347 10.704 15.048 30.887 22.233 48.18 14.595 7.019-3.125 10.153-10.604 11.941-17.351 2.084-7.556 2.724-15.518 1.028-23.214-.684-3.56-1.576-7.093-1.854-10.717Z" clip-rule="evenodd"></path><path fill="#000" fill-rule="evenodd" d="M100.826 17.571c1.299-.195 2.281.611 2.747 1.748l.025.061c.15.387.317.763.496 1.133 3.252-1.596 7.891-1.186 9.949 2.046 1.468 2.308.572 5.047.019 7.494l-.363 1.613c.702.447 1.232 1.248 1.207 2.077l-.003.064-.148 2.249a11.64 11.64 0 0 0 1.28-1.545c.264-.484.549-.96.856-1.42 1.802-2.712 5.848-.355 4.36 2.548-.285.56-.606 1.091-.95 1.602a14.15 14.15 0 0 0-.953 2.328c.703.306 1.244.986 1.301 2.014.133 2.398-1.126 4.4-3.129 5.657-.589.37-1.197.442-1.749.305-.097.13-.194.262-.287.395a12.763 12.763 0 0 1 2.138 2.209 38.44 38.44 0 0 1 5.611-.415c2.29-1.122 5.032-1.099 7.494-.678 1.584.27 3.105.797 4.665 1.175 1.643.398 3.312.412 4.975.683 2.096.34 3.934 1.308 5.089 2.853 1.27.038 2.605.558 3.712 1.264 2.578 1.644 5.14 3.312 7.712 4.967.986.635 1.355 1.65 1.174 2.78l-.012.073-.087.47.203.288c.787 1.111 1.643 2.276 2.153 3.503a37.66 37.66 0 0 1 2.547 4.252c1.017 1.974 1.855 4.066 2.424 6.214.141.543.283 1.09.376 1.644.133.782-.072 1.389-.184 2.139-.14.951-.19 1.915-.338 2.868-.099.632-.636.943-1.198.96.211 1.608.363 3.227.509 4.833.205 2.295.345 4.597.465 6.898.621.903 1.891 1.617 2.808 1.865 1.269.34 2.6-.03 3.8-.463.755-.273 1.374.676 1.006 1.31-1.156 1.991-3.627 1.983-5.499 1.101-.793-.372-1.488-.91-2.003-1.612l.099 2.005.032.607c.38 7.087 1.202 14.418-.129 21.435-2.305 12.155-12.36 21.41-24.642 22.128-6.446.378-11.813-1.527-14.482-2.589-2.669-1.063-1.632-3.229.221-2.61 3.192 1.067 9.056 2.656 14.303 1.97 12.368-1.617 22.855-7.801 21.777-34.435-.152-3.777-.623-7.556-.724-11.333-.097-3.692-.061-7.387-.224-11.077l-.054-1.259c-.064-1.47-.132-2.949-.242-4.422-.133-.57-.243-1.15-.406-1.71a25.424 25.424 0 0 0-1.734-4.419c-.158.12-.336.207-.528.241-1.46.262-2.829.188-4.196-.42a6.6 6.6 0 0 1-1.724-1.119 2.626 2.626 0 0 1-.547-.648c-.661.01-1.323-.189-1.737-.664-.472-.542-.551-1.102-.366-1.62l.02-.052-.047-.017c-.557 1.444-1.669 2.714-2.888 3.572-1.926 1.361-4.337 1.754-6.648 1.79-2.552.038-5.244-.355-7.762-.756a22.844 22.844 0 0 1-1.976-.39c-.025.026-.05.056-.078.08-2.161 2.07-5.201 2.603-7.943 1.421-1.585-.683-2.914-1.781-4.088-3.041-.017.66-.051 1.319-.108 1.972l-.024.26c-.117 1.215-.342 2.506-1.261 3.383-1.485 1.423-3.64.852-5.353-.073.002.044.002.09.002.137l1.392 4.721.1.336c.338 1.118.709 2.237.811 3.407.194 2.236-1.293 4.445-3.778 3.695-1.303-.392-2.347-1.489-3.349-2.367l-.631-.546c1.633 5.341 2.765 10.872 2.871 16.446.006.302-.253.53-.541.541a5.145 5.145 0 0 1-2.07-.374c-.038-.003-.076-.005-.116-.011a7.848 7.848 0 0 1-3.169-1.198c.217.691.314 1.433.257 2.208-.014.188-.308.254-.35.047-.545-2.682-3.683-4.71-6.387-4.196-2.903.552-5.04 3.05-5.565 5.893-.562 3.054.514 6.586 2.506 8.942.917 1.086 2.123 1.993 3.555 2.221a4.527 4.527 0 0 0 1.972-.118c.27-.08.524-.192.781-.298.376-.152.816-.175 1.171-.336.805-.361 1.614.38 1.206 1.207-.355.721-.674 1.207-1.263 1.579.477.583.91 1.395 1.071 1.612.82 1.108 1.652 2.154 2.586 3.166a27.13 27.13 0 0 0 3.084 2.834l.461.365c1.056.838 1.976 1.614 2.721 2.816.587.949-.173 2.236-1.274 2.222-3.444-.049-5.947-3.076-7.73-5.72a14.293 14.293 0 0 1-.714-1.187 2.527 2.527 0 0 1-.269.359l.197.528c.583 1.556-1.93 2.572-2.658 1.12a22.136 22.136 0 0 0-1.83-3.001 1.55 1.55 0 0 1-1.018-.619c-.555-.805-1.179-1.619-1.705-2.477a21.402 21.402 0 0 0-.898-.803c-.088.078-.18.156-.266.239-.384.877-.86 1.678-1.45 2.432l-.126.161c-1.129 1.424-2.6 2.881-4.42 3.229-.555.106-1.09-.585-.597-1.027 1.273-1.145 2.78-1.925 3.954-3.204.58-.63 1.11-1.324 1.567-2.051l.104-.168.235-.376-1.59-1.089c-1.46 1.248-3.362 1.819-4.976 2.852l-.16.105c-1.46.977-2.999-1.183-1.828-2.369 1.29-1.302 2.367-2.855 3.51-4.302-.537-.991-.792-2.162-.887-3.345-.038-.335-.067-.671-.096-1.006-.82.013-1.644-.268-2.341-.752l-.264-.188a7.903 7.903 0 0 1-2.588.378c-2.003-.059-2.823-2.348-1.57-3.796 1.278-1.479 3.515-1.803 5.288-1.084.057-.03.116-.061.173-.093a2.049 2.049 0 0 1 .03-1.052l-.027-.188a4.861 4.861 0 0 1-.743-2.004 4.667 4.667 0 0 1 .07-1.703c.044-.187.136-.382.206-.578a3.734 3.734 0 0 1-.255-1.118 2.403 2.403 0 0 1-.119-.15c-.88-1.236-.702-2.725.135-3.725.004-.063.01-.127.019-.19a5.237 5.237 0 0 1-.135-.334c-.818-.826-1.418-1.819-1.306-3.05a3.163 3.163 0 0 1 .813-1.863c-.08-.236-.088-.51.01-.738-.72-1.912-.628-4.214-.111-6.353a2.874 2.874 0 0 1-.16-1.052c.058-1.588 1.432-3.046 3.058-3.027.196.002.38.027.556.065l.002-.038c.063-.476.193-.917.385-1.312a.83.83 0 0 1-.258-.147 14.459 14.459 0 0 1-3.302 1.271c-.85.213-1.721-.754-1.192-1.552.245-.37.516-.704.807-1.007-.414.002-.835.03-1.261.085-.765.099-1.618-.423-2.115-1.129-.617.6-1.236 1.198-1.855 1.797-1.567 1.52-3.936.401-4.183-1.603a3.524 3.524 0 0 1-1.284-.638 21.943 21.943 0 0 1-7.851 1.776c-1.952.08-3.093-2.194-2.18-3.8a12.686 12.686 0 0 1 2.25-2.888c-1.36.417-2.766.717-4.2.91-.776.103-1.872-.54-2.183-1.252-1.187-2.739-1.086-5.594.281-8.26.053-.105.112-.207.17-.308.14-.353.295-.702.462-1.044-1.682-1.754-1.828-4.362-.921-6.546-.364-.59-.503-1.3-.256-1.942a16.632 16.632 0 0 1 2.998-5.024 5.347 5.347 0 0 1-.321-.758c-.72-2.188.114-4.828 1.798-6.352 1.058-.96 2.275-1.534 3.575-1.902.547-.968 1.25-1.84 2.07-2.576.032-.07.063-.14.1-.21 1.275-2.404 3.6-3.694 6.09-3.992.097-.94.731-1.838 1.652-2.13a7.742 7.742 0 0 1 1.152-2.297c.817-1.112 2.176-1.636 3.456-.907.701.4 1.373.858 2.003 1.365.282-.133.603-.218.965-.246l.091-.005 2.083-.106c.873-.387 1.743-.793 2.616-1.188a7.007 7.007 0 0 1 1.747-1.063 7.098 7.098 0 0 1 2.203-.53 19.01 19.01 0 0 1 1.826-.506 20.131 20.131 0 0 1 4.47-.48c.03-.389.046-.783.043-1.182l-.003-.2c-.034-1.278.987-2.3 2.189-2.48Zm-1.46 102.304a6.686 6.686 0 0 1-.625.106c.063.156.127.313.188.469.169.095.34.186.511.271a4.361 4.361 0 0 1-.074-.846Zm-10.855-3.226-.14.258-.067.126a4.6 4.6 0 0 1 .894.017l-.001-.032c-.038-.013-.076-.025-.113-.042a4.731 4.731 0 0 1-.573-.327Zm5.867-11.805c1.87.109 3.453.396 5.153 1.214l.146.071c1.502.746 3.987 2.124 3.777 4.1-.059.562-.467 1.154-1.109 1.11-1.76-.121-2.765-1.896-3.957-3.003-1.202-1.116-2.679-2.264-4.134-3.031-.206-.108-.125-.45.099-.461h.025Zm-8.476-26.036c-.448.015-.298.45-.068.086.02-.03.042-.059.068-.086Zm24.176-29.066c-4.241.112-8.511 2.618-11.688 5.15-2.765 2.204-5.152 4.824-7.266 7.649a44.017 44.017 0 0 0-1.405 4.29c-.26.955-.422 1.92-.64 2.885l-.067.295c-.171.32-.298.663-.39 1.019.384.386.884.663 1.434.794a.893.893 0 0 1 .441.255c.443-.74.83-1.52 1.055-2.347l.008-.038a48.363 48.363 0 0 1 2.767-4.051c2.734-3.604 5.744-6.888 9.363-9.62 2.745-2.072 5.812-3.695 9.074-4.75a9.91 9.91 0 0 0-2.686-1.53Z" clip-rule="evenodd"></path><path fill="#000" fill-rule="evenodd" d="M155.1 117.053a.17.17 0 0 1 .325 0c.464 1.448.737 2.865 1.43 4.227.172.176.294.399.36.638.324.539.685 1.05 1.089 1.534.507.608.877 1.18.608 2.011a.976.976 0 0 1-.907.691c-1.186.053-1.861-1.078-2.281-2.257-2.934.975-6.165 1.526-9.24 1.284-2.5-.197-5.223-.824-7.461-2.101.014.483.032.965.049 1.448.031.893.271 1.871.178 2.748-.092.87-.586 1.544-1.481 1.679-.77.115-1.724-.399-1.874-1.225-.174-.958.148-1.627.413-2.532.235-.799.418-1.616.62-2.424.204-.816.371-1.639.522-2.465.11-.605.031-1.287.245-1.857.017-.045.06-.077.109-.062 1.14.327 1.205 2.163 1.2 3.148v.049c-.002.2 0 .401.002.602l.436.095c2.391.518 4.713.911 7.227.768 2.949-.167 5.542-1.246 8.34-1.985-.232-1.329-.304-2.78.091-4.014Zm-9.862-26.201a11.09 11.09 0 0 1 4.1-.593c2.95.146 5.76 1.492 7.694 3.735a11.449 11.449 0 0 1 2.805 7.573c-.014 2.878-.769 6.118-2.192 8.637-2.989 5.293-9.971 5.329-14.989 3.219-5.355-2.251-7.533-7.93-6.243-13.42.969-4.13 4.277-9.084 8.825-9.151Zm8.724 4.087c-1.579-1.268-3.569-1.838-5.579-1.694a8.347 8.347 0 0 0-2.92.76c-.482.226-.913.543-1.387.779-.423.21-.881.332-1.318.509l-.162.07c-.717.32-1.439-.139-1.475-.807-1.559 2.189-2.299 5.157-2.287 7.79.009 1.939.47 3.953 1.583 5.567 1.237 1.794 3.288 2.741 5.346 3.243 1.971.482 4.119.649 6.095.102 2.05-.567 3.375-2.124 4.128-4.064 1.636-4.21 1.771-9.208-2.024-12.255Zm-7.04 5.219c.895-1.221 2.5-1.286 3.383 0 .556.81.474 1.591.43 2.523l-.008.209c-.026.738-.023 1.515-.299 2.196-.355.876-1.044 1.436-2.021 1.32a1.8 1.8 0 0 1-1.335-.885l-.01.005c-.392-.782-.493-1.576-.559-2.429l-.045-.627c-.056-.823-.059-1.598.464-2.312Z" clip-rule="evenodd"></path></svg>