<svg xmlns="http://www.w3.org/2000/svg" width="240" height="324" fill="none" id="old-lady-with-tea-mug"><path fill="#fff" fill-rule="evenodd" d="M114.339 135.723c5.216-3.973 18.308-5.759 23.875-1.934 5.497 3.841 6.096 10.053 8.658 15.768 2.417-1.14 6.409.493 7.11 2.736.869 1.059.908 4.032 1.507 5.454 26.08 4.153 30.039 24.493 33.178 47.585 4.153 23.432 13.58 46.813 9.487 70.925.533.772.954 1.522 1.343 2.413.931 1.586-.269 3.83-2.148 3.743-2.431-.213-4.839-.505-7.283-.596-6.773-.235-13.552-.207-20.328-.121l-.924.012c-34.148.425-68.294 1.263-102.443 1.485-1.239.002-1.845-1.109-1.68-2.206.333-2.207.642-4.416.965-6.625-8.077 2.135-16.664 2.672-24.718.225-.564-.574 1.313-.263 1.61-.35-7.412-5.067-5.199-15.742-4.542-23.431 4.083-26.345 5.522-55.494 21.297-77.974 6.825-9.175 16.83-16.438 28.327-18.073l.32-.043c3.361-.449 7.108-.593 10.047-2.423 3.306-2.64 4.714-7.518 8.192-7.564 1.148-.015 2.711 1.439 4.392 2.426.125-2.171 1.295-4.003 1.553-5.686l.021-.144c.269-1.962-.1-3.728 2.184-5.602Zm56.047 70.305c-7.329-5.094-26.261-2.534-26.694-2.249-.955.628-1.366.683-1.882 1.499-.509.067-1.019.137-1.527.21-1.021.333-.265 1.589.914 1.141-.709 3.059 1.378 5.235 2.209 8.259.269.982.009 2.748 0 3.751.08 1.28 1.494 2.791 1.258 4.074-.837 4.563-5.383 9.014-3.467 13.439 1.27 2.499 5.089 3.774 7.628 4.623 5.26 2.02 14.426-.076 17.482-4.623 1.631-2.425 3.519-8.543 4.491-10.441l.216-3.01c.531-7.484 1.004-15.539-.628-16.673Z" clip-rule="evenodd"></path><path fill="#000" fill-rule="evenodd" d="M104.912 144.288c.506-.448 1.255.115.933.721-.722 1.361-1.463 2.65-2.433 3.853-.588.73-1.218 1.42-1.856 2.102 1.638 1.417 3.043 3.177 4.369 4.827 1.696 2.109 3.3 4.308 5.204 6.238 1.878 1.904 3.955 3.235 6.465 4.122l.507.176c2.523.886 5.218 2.082 6.64 4.471.28.471-.284 1.053-.759.759-2.47-1.53-5.373-1.838-8.062-2.849-2.597-.976-4.862-2.479-6.862-4.398-1.998-1.915-3.675-4.094-5.424-6.227-1.73-2.109-3.592-3.911-5.638-5.695-3.158 2.125-6.762 3.05-10.427 3.958l-.4.099c-3.67.909-7.32 1.964-10.761 3.547-3.035 1.395-6.02 3.061-8.493 5.331-2.624 2.41-4.667 5.487-6.536 8.496-4.182 6.733-7.122 14.109-9.71 21.575a222.842 222.842 0 0 0-6.762 23.701 167.34 167.34 0 0 0-2.292 12.318 184.45 184.45 0 0 0-.793 5.987c-.247 2.136-.304 4.333-.96 6.386-.28.88-.943 1.246-1.607 1.214l-.134 1.687c-.179 2.248-.346 4.497-.402 6.759-.093 3.762-.051 7.513.22 11.266l.038.512c.212 2.74.687 5.818 2.747 7.824 2.132 2.077 5.412 2.731 8.286 2.768 6.694.087 13.138-3.077 19.062-5.853a206.038 206.038 0 0 0 17.828-9.474 270.353 270.353 0 0 0 8.748-5.428 234.062 234.062 0 0 0 4.21-2.79c.798-.542 1.554-1.135 2.367-1.616-.398-.371-.576-.953-.243-1.462-2.348-2.04-3.325-5.678-3.44-8.623-.092-2.376.258-4.746.534-7.1.139-1.188.31-2.373.49-3.554.07-.467.124-.967.206-1.46a193.689 193.689 0 0 1-19.55 9.348 155.175 155.175 0 0 1-10.425 3.85l-.714.235c-3.337 1.093-6.753 2.125-10.203 2.749-.184.034-.334-.239-.137-.325 3.362-1.484 6.84-2.736 10.252-4.103l.56-.228a1.236 1.236 0 0 1-.2-.029c-2.001-.483-3.987-1.228-5.95-1.855-1.821-.582-3.868-.947-5.57-1.825-.131-.068-.058-.25.07-.259 1.913-.133 3.99.425 5.867.754l.705.123c1.18.208 2.388.432 3.563.724.042-.393.262-.789.575-1.021 3.443-2.551 3.093-7.702 3.462-11.501l.273-2.821c.48-4.936.988-9.872 1.76-14.771.041-.261.446-.186.448.061.04 6.073-.419 12.118-.649 18.181l-.035.995c-.127 3.742-.227 7.627-2.582 10.506.329-.193.774-.193 1.041.125.328.39.517.828.511 1.258a338.167 338.167 0 0 0 6.357-2.743c6.78-3.005 13.418-6.368 19.88-10.006.696-.392 1.357-.084 1.701.432l.05-.007a.21.21 0 0 1 .025-.002l.05-.002h.005c.91-.5 2.149-.144 2.93.585.023.022.042.046.063.069a10.46 10.46 0 0 0 2.748-1.802c1.714-1.554 3.166-3.475 4.431-5.402 2.331-3.549 4.31-7.495 7.459-10.416 2.557-2.373 5.728-3.851 9.055-4.778a.332.332 0 0 1 .091-.27c.171-.175.293-.236.513-.129.018.008.028.02.036.033l.324-.555c.177-.301.359-.605.422-.684.378-.476.767-.948 1.162-1.41.669-.783 1.431-1.555 2.314-2.098 1.933-1.188 3.965-.516 5.953.134 1.201.392 2.397.797 3.596 1.196l.124.04c.894.287 1.94.539 2.339 1.486.158.375.183.764.109 1.141 8.49-2.159 17.919-1.167 26.204 1.368.318.098.635.359.702.703.949 4.87 1.372 9.864.942 14.816-.37 4.276-1.317 8.465-3.101 12.379l-.102.221c-1.677 3.627-4.335 8.099-8.394 9.236-2.451.686-5.161.282-7.661.156-2.429-.123-4.913-.14-7.319-.522-2.143-.341-4.021-1.302-5.345-3.045-1.143-1.504-1.744-3.322-2.237-5.13-.226.072-.45.149-.671.235-.931.364-1.72.951-2.433 1.642-1.506 1.459-2.674 3.231-4.25 4.623-1.427 1.261-3.052 2.241-4.796 2.995-3.613 1.562-7.489 2.186-11.31 3.013l-.267.058c-2.877.632-5.813 1.407-8.353 2.906-.05.441-.25.856-.572 1.128.447.421.637 1.087.244 1.712-1.1 1.746-2.994 2.739-4.694 3.855l-.11.073a205.46 205.46 0 0 1-15.627 9.429c-5.757 3.147-11.638 6.115-17.625 8.807.36 1.769.228 3.592.498 5.373l.041.254c.116.661-.04 1.213-.495 1.645l-.048.044v-.006l-.042.04-.014.012.004-.004a1.516 1.516 0 0 1-.161.131l-.07.045c-.439.266-1.003.263-1.452.028l-.05-.028-.087-.049c-.593-.342-1.002-1.187-.756-1.858.605-1.65.833-3.412 1.391-5.073l-.443.198-.583.255c-6.313 2.73-13.324 5.03-20.202 3.168-3.039-.822-5.879-2.563-7.4-5.399-1.496-2.791-1.707-6.032-1.786-9.137a73.592 73.592 0 0 1 .612-11.522c.339-2.55.75-5.148 1.382-7.672a1.904 1.904 0 0 1-.628-1.209c-.299-2.411.224-4.917.544-7.314.312-2.342.657-4.679 1.048-7.008a241.124 241.124 0 0 1 2.77-14.048c1.898-8.275 4.404-16.402 7.42-24.336l.265-.691c2.788-7.251 6.015-14.347 10.51-20.717 2.15-3.048 4.423-5.811 7.46-8.008 2.847-2.057 6.057-3.539 9.37-4.671 3.317-1.133 6.726-1.893 10.196-2.365 3.523-.48 7.242-.774 10.529-2.22-.416-.745-.06-1.752.64-2.215 2.355-1.556 4.533-3.581 6.643-5.452Zm75.382 67.679c.098-.15.333-.055.289.122-1.145 4.694-2.22 9.398-2.922 14.181-1.268 8.634-1.034 17.38-.931 26.078l.005.449c.054 4.685.128 9.37.282 14.053.079 2.367.233 4.757.149 7.125-.046 1.285-.388 2.5-.509 3.769-.106 1.11-.012 2.236.041 3.348.036.739-1.054.707-1.129 0l-.094-.915c-.124-1.158-.276-2.309-.655-3.417-.456-1.333-.675-2.642-.833-4.042-.243-2.145-.351-4.311-.444-6.47l-.064-1.494c-.391-9.026-.377-18.094.255-27.11l.047-.644c.626-8.522 1.712-17.731 6.513-25.033Zm-24.413-53.714c-.3-.123-.195-.575.137-.496l.602.143c4.414 1.058 8.749 2.204 12.869 4.172 4.123 1.97 7.613 4.91 10.387 8.525 5.391 7.028 7.632 15.569 9.401 24.101 1.965 9.482 3.755 18.998 5.738 28.476l.368 1.766c1.834 8.828 3.567 17.661 4.843 26.593l.092.648c1.287 9.186 2.061 18.689.656 27.899-.277 1.822-3.308 1.368-3.19-.432.343-5.204.588-10.381.351-15.596a165.304 165.304 0 0 0-1.455-15.582c-.614-4.352-1.529-8.65-2.338-12.967l-.127-.682c-.678-3.672-1.376-7.34-2.073-11.008l-1.042-5.493c-1.562-8.224-3.154-16.456-4.953-24.628l-.107-.481c-1.76-7.863-4.355-16.099-9.636-22.343-5.359-6.336-13.03-9.527-20.523-12.615Zm-19.472 83.399c.129-.288.579-.256.718 0 .543 1.002.603 2.281.706 3.413l.011.116c.13 1.381.246 2.767.317 4.152.134 2.629.198 5.254.19 7.887a160.347 160.347 0 0 1-.208 8.086l-.04.721c-.132 2.341-.355 4.952-1.467 6.999-.404.744-1.503.525-1.737-.227-.767-2.464-.373-5.385-.177-7.908l.153-1.969c.151-1.969.296-3.938.41-5.91.157-2.697.286-5.396.41-8.094.041-.877.085-1.753.131-2.63l.071-1.314c.06-1.1.055-2.306.512-3.322Zm-86.229 3.491.34-.328c1.042-1.02 2.359-2.592 3.9-2.494.614.039 1.005.549.878 1.154-.272 1.292-1.59 1.963-2.539 2.752-1.04.864-2.019 1.788-2.997 2.721a58.173 58.173 0 0 0-2.516 2.555l-.304.33c-.292.318-2.37 2.199-2.145 2.687l.012.022c.062.093-.042.221-.145.189-.898-.284-.842-1.053-.503-1.833.652-1.498 1.794-2.884 2.791-4.163a35.06 35.06 0 0 1 3.228-3.592Zm89.481-37.568c-.694-1.641-3.251-1.607-4.702-1.508-3.655.247-7.61 1.172-10.862 2.881-3.371 1.771-5.642 4.61-7.674 7.749l-.095.148c-1.981 3.08-3.889 6.726-6.99 8.843-1.58 1.079-3.424 2.065-5.341 2.491a.974.974 0 0 1-.624.481l-.13.03c-.546.121-1.394.254-2.127.174.005.359.002.715.011 1.054.025.974.036 1.951.036 2.925.001 2.04-.109 4.085-.024 6.125.076 1.805.331 3.691 1.197 5.304.635 1.184 1.474 1.967 2.486 2.715 2.49-1.518 5.305-2.444 8.163-3.14 3.456-.841 6.994-1.402 10.372-2.543 1.625-.55 3.188-1.268 4.604-2.245 1.503-1.036 2.65-2.439 3.831-3.811l.185-.213c1.205-1.383 2.52-2.706 4.224-3.456 1.466-.645 3.4-.76 4.682-1.76.671-.523.727-1.281.798-2.058-.822.117-1.691-.071-2.51-.167l-.424-.05c-.774-.092-1.531-.193-2.293-.39-.141-.037-.141-.25 0-.287.901-.232 1.794-.331 2.717-.44l.217-.027c.835-.109 1.713-.275 2.533-.091a6.928 6.928 0 0 1 .657-1.629c.418-.752 1.209-1.604 1.316-2.482a1.443 1.443 0 0 0-.152-.804l-.043-.079a.664.664 0 0 0-.203-.245c-.01.012-.032.025-.077.039-.631.199-1.181-.11-1.473-.586-1.24.154-2.592.102-3.755.154l-1.175.057c-1.256.057-2.569.082-3.749-.171-.165-.036-.214-.31-.049-.381 1.45-.62 3.21-.818 4.763-1.057.868-.133 1.742-.235 2.612-.352.579-.078 1.194-.207 1.794-.238 1.505-1.874.694-4.831-1.4-5.638-.763.336-1.449.141-2.283.069a27.852 27.852 0 0 0-2.501-.116c-1.674.007-3.448.448-5.105.258-.27-.031-.52-.39-.252-.609 1.269-1.036 3.087-1.373 4.698-1.594l.333-.045c.54-.071 1.197-.174 1.878-.235.154-.301.431-.528.846-.585.123-.017.247-.026.371-.037l-.002-.012c1.012-.049.968-1.76.691-2.416Zm-69.31 32.004a.913.913 0 0 1-.059.079l-.032.037.166-.067-.076-.049Zm86.977-35.671c-4.262-.458-8.529-.361-12.803-.238-.342 1.118-1.532 2.071-2.685 2.107.903 1.375.996 3.236.363 4.694 1.345.535 2.503 1.497 3.206 2.867.975 1.898.847 4.011-.116 5.765.822.745 1.307 1.955 1.259 3.095-.055 1.271-.812 2.357-1.441 3.41-.68 1.138-.703 2.14-.912 3.415-.306 1.866-1.564 2.997-3.182 3.704l.086.339c.417 1.625.936 3.339 2.129 4.527 1.534 1.529 3.914 1.515 5.941 1.611l.098.005c1.856.093 3.711.202 5.567.307l1.392.078c2.136.117 4.188.131 5.932-1.281 2.847-2.307 4.799-6.123 6.034-9.502 2.593-7.092 2.624-14.875 1.434-22.262-3.992-1.287-8.134-2.193-12.302-2.641Zm-35.438 11.767.031.002c.878.1 1.48.811 1.695 1.654.312 1.225.159 2.333.909 3.439.772 1.138 1.246 2.049 1.358 3.454.046.578.025 1.155.154 1.721l.093.396c.099.423.18.83.131 1.284-.045.414-.246.737-.662.87-1.352.433-2.397-.565-2.746-1.826-.302-1.089.101-2.387-.325-3.41-.236-.567-.671-1.041-.917-1.612a5.265 5.265 0 0 1-.405-1.772c-.074-1.163.954-2.561.38-3.615-.122-.225.017-.592.304-.585Zm-17.969-12.005c.916-.186 1.955-.613 2.858-.258.465.183.694.749.302 1.143-.681.683-1.671.721-2.589.882l-.08.014c-1.085.201-2.172.392-3.26.572-2.048.339-4.1.639-6.16.894-2.115.262-4.236.495-6.36.671l-.822.067c-1.794.144-3.661.252-5.422-.023-.256-.04-.214-.413 0-.478 1.929-.584 4.044-.74 6.038-.988 2.12-.263 4.237-.541 6.347-.87a220.43 220.43 0 0 0 6.309-1.074c.948-.176 1.894-.36 2.839-.552Zm33.054-1.875c-.804-.285-1.689-.706-2.56-.565-1.502.243-2.839 1.707-4.028 2.671l.597-.116c3.055-.587 7.1-1.22 9.665.723.006-.011.011-.022.019-.033.207-.315.447-.56.708-.829.025-.024.05-.048.073-.073l.142-.15-.323-.112c-.692-.245-1.512-.561-1.641-.607l-.009-.003c-.883-.299-1.766-.595-2.643-.906Zm-25.099-64.055c-.126-1.617 2.39-1.604 2.515 0 .272 3.502-.516 6.971-2.212 10.042-.012.022-.026.042-.039.063a49.369 49.369 0 0 0 3.23 1.555 47.404 47.404 0 0 0 4.286 1.625c1.316.424 2.937.591 4.043 1.472 2.333 1.859 1.456 5.715 1.008 8.215l-.07.394c-.224 1.286-.385 2.606.157 3.841.579 1.318 1.749 2.296 2.793 3.24l.211.191c.926.843 1.983 1.868 2.661 3.011.62-1.281 1.464-2.328 2.357-3.507.637-.841.183-1.119-.274-1.94-.441-.791-.656-1.634-.518-2.537.254-1.666 1.585-2.869 2.91-3.774 1.565-1.067 3.312-1.858 4.93-2.851 3.324-2.041 6.561-4.374 9.477-6.965.081-.071.22.023.156.12-2.304 3.506-5.005 6.535-8.325 9.107-1.347 1.042-2.761 1.907-4.185 2.816l-.409.263c-.572.37-1.285.866-1.543 1.496-.26.634.295 1.113.593 1.639.948 1.668.491 3.225-.633 4.64l-.052.065c-1.117 1.377-1.964 2.657-2.368 4.416-.87 3.779.341 7.714 1.609 11.261l.051.14c.686 1.912 1.415 3.81 2.011 5.752l.164.537c.54 1.788.982 3.55.376 5.388-.206.625-1.058.773-1.412.184-1.248-2.074-1.559-4.57-2.342-6.85-.763-2.223-1.638-4.405-2.375-6.637-.949-2.873-1.584-5.966-1.239-8.98-.01-.018-.021-.034-.03-.053l-.241-.528c-.659-1.431-1.295-2.68-2.492-3.821-1.249-1.19-2.605-2.243-3.588-3.683-2.134-3.128-.814-6.608-.556-10.028l.029-.42c.047-.71.073-1.675-.391-2.167-.522-.553-1.745-.694-2.437-.939-1.789-.633-3.551-1.371-5.23-2.257-1.598-.843-3.146-1.775-4.587-2.866l-.731-.55c-1.152-.87-2.347-1.82-3.12-3.005-.089-.136.062-.356.224-.291 1.289.524 2.468 1.357 3.674 2.081.019-.044.041-.089.065-.133 1.493-2.703 2.107-5.698 1.869-8.772Zm41.193 18.518c.514-1.41 2.856-1.301 2.762.374-.071 1.287-.617 2.448-1.116 3.616l-.054.125a23.24 23.24 0 0 1-1.823 3.476c-1.361 2.132-2.956 4.111-4.659 5.979-1.544 1.693-3.57 2.729-5.905 2.557-.984-.073-1.977-.323-2.839-.815-1.024-.584-2.137-2.338-3.443-1.913-.126.041-.244-.144-.135-.232 1.508-1.215 3.22.669 4.664 1.123 2.176.684 4.409-.072 5.809-1.832 1.462-1.837 2.808-3.894 4.037-5.895a28.416 28.416 0 0 0 1.685-3.156c.497-1.097.61-2.289 1.017-3.407Zm-3.507-8.674c-.063-.195.178-.38.349-.269.991.645 1.85 1.498 2.764 2.246a138.81 138.81 0 0 0 3.074 2.442c1.512 1.166-.242 3.313-1.573 2.039-1.822-1.743-3.818-4.022-4.614-6.458Zm-5.441-6.823c.402-1.553 2.784-.912 2.437.623l-.012.046c-.657 2.536.279 5.117 2.278 6.761l.073.06c1.264 1.012-.527 2.781-1.779 1.779-2.732-2.188-3.869-5.905-2.997-9.269Z" clip-rule="evenodd"></path><path fill="#fff" fill-rule="evenodd" d="M169.198 79.177c-4.163-25.188-35.95-29.73-56.664-24.428-.381-4.845-3.433-9.126-7.24-11.942-16.174-11.643-35.322 8.125-31.488 25.161.687 5.161 4.811 11.05 10.581 10.167-7.252 13.731-10.087 41.419 5.893 49.977 1.542 1.098 1.797 3.327 2.984 4.756 1.926 2.306 10.155 5.242 14.607 2.889 1.399 1.286 3.013 2.537 4.9 2.982 9.747 7.805 23.992 9.566 35.862 6.346 7.312-1.242 14.893-4.542 18.655-11.284 3.188-5.131 1.719-11.144.257-16.575-.631-2.987-1.042-5.999-1.295-9.036.518-.605.547-1.446.676-2.212.562-2.714 1.788-5.232 2.402-7.939 1.373-6.143 1.134-12.706-.13-18.862" clip-rule="evenodd"></path><path fill="#000" fill-rule="evenodd" d="M168.864 92.005c-.24 3.037-1.527 5.77-2.604 8.6.118-1.675.062-3.418.18-5.157-1.253-10.89-16.056-13.75-21.803-21.984.218-.465.296-4.622-.561-3.453-3.323 14.55-23.079 21.85-36.605 21.878-1.023-.843-3.052.048-2.669 1.729 2.023 8.87 2.466 18.15 1.167 27.163-.612 3.183-.715 7.013-2.624 9.755-2.026 1.928.41 2.082 1.75 1.647.374.526.768 1.036 1.164 1.545-1.925 1.331-4.735.605-6.728-.281-2.217-1.174-3.484-3.449-5.09-5.272-.877-1.766-2.207-2.781-3.917-3.737-9.513-6.468-9.268-20.657-7.902-30.912 3.98-30.516 37.836-45.24 65.008-34.639 14.674 3.754 21.549 18.931 21.234 33.118m-88.5-17.277c-5.803-5.781-4.635-15.888-.987-22.553 7.309-13.925 28.07-13.472 30.556 3.407-10.587 3.628-19.52 11.408-24.84 21.232-1.731-.186-3.406-.957-4.73-2.086m88.835 4.453c-4.163-25.188-35.95-29.73-56.664-24.427-.381-4.846-3.433-9.127-7.24-11.943-16.174-11.643-35.322 8.125-31.489 25.161.688 5.161 4.812 11.05 10.582 10.167-7.253 13.731-10.087 41.419 5.893 49.977 1.541 1.098 1.797 3.327 2.984 4.756 1.926 2.306 10.155 5.242 14.607 2.889 1.058 1.299 7.066 5.25 6.628 1.377-.442-1.043-1.807-1.316-2.717-1.831-1.911-1.056-3.571-2.543-4.876-4.291 4.098-11.558 3.785-24.428 1.49-36.329 13.718-.69 29.859-6.705 35.909-19.913 4.091 9.612 16.775 10.849 19.979 21.596.193 5.644-1.017 11.205-.14 16.852.258 5.532 3.181 11.027 1.491 16.522-4.721 11.983-21.716 13.741-32.944 13.24-2.667-.22-4.881-1.662-7.073-3.031-1.314-.624-2.879.682-2.073 2.075 3.074 4.291 9.397 4.666 14.252 4.511 12.601-.747 30.811-4.471 31.465-20.037-.415-6.17-2.836-12.075-3.012-18.308.518-.605.547-1.446.676-2.212.562-2.714 1.788-5.232 2.402-7.939 1.372-6.143 1.134-12.706-.13-18.862" clip-rule="evenodd"></path><path fill="#000" fill-rule="evenodd" d="M143.152 128.274a8.601 8.601 0 0 1-3.614-2.781 1.671 1.671 0 0 1-.338-1.297c.076-.467.352-.889.728-1.173.377-.284.849-.424 1.305-.353.397.062.791.279 1.104.73l.065.09a5.695 5.695 0 0 0 2.086 1.751 4.7 4.7 0 0 0 2.582.454c1.738-.196 2.935-1.136 4.208-2.413.158-.161.316-.327.474-.496a.746.746 0 0 1 .394-.303.864.864 0 0 1 .97.332c.097.143.153.32.135.524-.117 1.323-.808 2.503-1.79 3.43-1.091 1.03-2.537 1.742-3.898 1.992-1.499.275-3.027.078-4.411-.487Zm5.119-20.408c1.595.971 4.026 3.233 2.31 5.638-2.021 2.12-4.929-.311-6.362-1.411-1.329-.852-2.823 1.34-1.59 2.335 10.358 7.671 14.561-6.308 6.449-7.702-.894-.154-1.225.84-.807 1.14Zm-18.56-8.923c.176-2.189 3.508-2.686 3.84-.52.296 1.94-.053 3.723-.927 5.47-.834 1.668-2.932.89-3.091-.63-.213-2.037.068-2.958.178-4.32Zm25.365-.969c.465-.609 1.136-1.024 1.939-.79 2.511.735 1.771 4.301.889 6.037-.479.942-2.028 1.181-2.728.351-1.14-1.353-1.687-4.056-.236-5.39.039-.068.083-.138.136-.208Zm-22.487-8.608.397-.07c1.227-.212 2.752-.416 3.62.57.461.524.619 1.497 0 1.998-1.088.88-2.292.54-3.596.614a14.3 14.3 0 0 0-3.143.536c-2.272.65-4.123 1.835-6.063 3.137-.254.17-.514-.155-.393-.393 1.12-2.195 3.29-3.997 5.464-5.096 1.161-.587 2.43-1.073 3.714-1.296Zm20.198-.983.304.062c3.304.69 7.596 2.07 9.16 5.317.06.459-.003.557-.054.621l-.017.022c-.043.055-.076.13-.275.193a8.562 8.562 0 0 1-.168-.042c-.717-.188-1.284-.447-1.833-.716l-.596-.293c-.691-.34-1.388-.666-2.127-.907a25.038 25.038 0 0 0-4.844-1.07 1.988 1.988 0 0 1-.972-.37 1.464 1.464 0 0 1-.544-.827c-.116-.467-.082-.82.168-1.242.188-.316.458-.535.767-.661a1.798 1.798 0 0 1 1.031-.087Z" clip-rule="evenodd"></path><path fill="#000" fill-rule="evenodd" d="M167.178 109.153c-2.565 2.652-6.847 3.412-10.259 1.99-8.763-3.662-4.474-15.085 2.284-18.153.844-.21 1.972-.71 3-.823.093-.046.295.086.54-.039 7.452.832 9.149 12.404 4.435 17.025m-28.263.679c-2.877 3.817-8.225 4.995-12.595 3.22-8.633-3.401-5.571-13.53.336-17.502 12.476-4.69 17.629 7.244 12.259 14.282m-18.714-8.458-.024-.009.137-.061-.046.115c-.022-.015-.042-.033-.067-.045m52.916-4.126c-.704.001-1.722.117-2.305.606-1.438-4.851-6.745-9.34-11.361-6.067-3.635 1.17-6.332 3.763-7.865 7.21-2.764-1.644-7.11-.942-9.507 1.233-1.57-5.188-5.433-7.005-10.031-7.274-5.019-.822-10.021 4.054-11.582 7.966-1.298-.148-3.237-.561-4.458.24-7.924-2.079-21.778-3.225-23.389-2.07-1.148.44-1.778 3.152-.174 3.298 1.397-.199-.164-1.986 1.245-2.182 7.505-.465 14.79 1.047 22.216 1.682.663.892 2.805 1.19 3.948.832-1.8 6.635 2.085 11.15 7.906 12.502 9.015 2.071 16.857-5.996 14.5-14.386 2.731-1.36 5.872-1.3 8.846-.585-4.971 18.301 24.492 17.48 19.891-1.772 3.062 1.524 3.727-.926 2.12-1.233" clip-rule="evenodd"></path></svg>