<svg xmlns="http://www.w3.org/2000/svg" width="240" height="324" fill="none" id="spooky-man"><path fill="#fff" fill-rule="evenodd" d="m41.197 209.194 151.368 12.021.158 1.029c2.536 16.526 3.818 27.737 3.843 33.635l.001.18c0 5.848 1.794 15.147 5.383 27.899l.222.785-161.186.281-1.901-38.383 2.112-37.447Zm89.613-82.364c6.155.304 12.358 2.943 12.837 4.63 1.067 3.757 2.783 19.84 8.426 22.311 5.643 2.471 17.69.219 21.134 6.119 3.444 5.901 14.756 29.956 14.756 35.56 0 3.737-36.863 5.034-110.588 3.892.942-30.097 4.865-45.918 11.772-47.463l.616-.136c9.988-2.183 15.957-2.253 19.364-5.772 3.477-3.59 4.108-9.753 5.55-14.511.795-2.622 8.581-5.003 16.133-4.63Z" clip-rule="evenodd"></path><path fill="#000" fill-rule="evenodd" d="M144.307 136.236c.024-.018.047-.023.072-.011.48.231.579.691.744 1.171.241.702.52 1.387.777 2.082.514 1.395 1.004 2.788 1.576 4.159.588 1.412 1.196 2.799 1.893 4.162.336.659.698 1.306 1.065 1.948.254.446.49 1.059.824 1.478.025-.133.061-.26.104-.379a1.391 1.391 0 0 0-.127.07c-.085.053-.186-.053-.135-.135.181-.3.418-.503.688-.64.748-.831 17.233 3.133 21.74 7.585 8.162 8.063 13.671 18.032 17.294 28.638 2.001 5.852 3.843 11.762 5.747 17.646 2.011 6.222 4.111 12.416 6.126 18.634.442 1.368-.521 2.61-1.738 3.061a153.804 153.804 0 0 1-6.854 2.354c1.118 4.293 1.899 8.676 2.461 13.072 1.16 9.065 1.306 18.314 3.134 27.283.419 2.059.95 4.089 1.511 6.113l.13.467c.334 1.187.638 2.386 1.048 3.548.353 1 .809 2.008 1.056 3.039.29 1.214-.137 2.539-1.271 3.162-.911.501-2.215.294-2.764-.646a1.65 1.65 0 0 1-.207-.613 7.118 7.118 0 0 1-.226-.539 3.97 3.97 0 0 1-.072-.218l-.065-.22a65.06 65.06 0 0 1-.457-1.581 80.696 80.696 0 0 0-.751-2.533l-.136-.419a89.715 89.715 0 0 1-1.775-6.121c-1.852-7.397-2.245-15.055-2.753-22.635l-.027-.392c-.46-6.792-.735-13.57-.171-20.348l-.077.025-.077.023c-.733.224-1.469.444-2.206.657a.897.897 0 0 1-.067.024c-.472.146-.957.285-1.451.414l-.297.076-.209.057-.22.063c-.699.203-1.411.436-2.135.413-1.2.192-2.422.308-3.622.312.37 6.047.797 12.09 1.306 18.126.511 6.068 1.189 12.112 1.893 18.157.346 2.986.718 5.966 1.128 8.942.207 1.509.423 3.01.697 4.506.283 1.53.784 3.166.482 4.713a.065.065 0 0 0-.019-.004c-.101.448-.372.85-.843 1.127-.864.505-2.072.209-2.569-.675a4.097 4.097 0 0 1-.12-.228c-.509.218-1.067.302-1.752.309l-9.283.093c-4.219.042-8.438.086-12.659.148-13.253.195-26.505.42-39.758.581l-4.969.057c-7.454.078-14.912.232-22.365.23-3.729 0-7.454-.012-11.183-.103a336.507 336.507 0 0 1-5.412-.188l-.319-.015c-1.44-.071-2.97-.205-4.378.118-.389.757-1.382.913-1.901.14-1.188-1.77-1.512-4.24-1.731-6.403l-.078-.779a210.348 210.348 0 0 1-.614-7.277c-.562-8.604-.767-17.216-.51-25.837.131-4.394.535-8.763 1.012-13.132.15-1.363.307-2.724.476-4.083l.003-.483c0-.155-.001-.302-.005-.44l-.043-1.312a167.54 167.54 0 0 1-.08-3.28l-.006-.656-.007-1.222c-1.043-.099-2.157-.446-3.057-.613a165.95 165.95 0 0 1-4.367-.877 133.311 133.311 0 0 1-8.638-2.183l-.608-.175c-2.635-.759-5.307-1.57-7.8-2.706-.977-.446-1.95-.949-2.806-1.608-.051.693-.13 1.384-.176 2.071-.093 1.359-.203 2.714-.293 4.073l-.087 1.293c-.143 2.154-.272 4.306-.33 6.467-.257 9.427-.302 18.893.197 28.313.247 4.715.6 9.43 1.109 14.127.25 2.31.513 4.626.839 6.928.336 2.365.942 4.715 1.128 7.097.177 2.297-3.334 2.631-3.91.53-.691-2.519-.867-5.236-1.231-7.826l-.041-.287a184.88 184.88 0 0 1-1.006-8.281 187.55 187.55 0 0 1-.708-28.712c.24-4.587.81-9.157 1.498-13.696l.08-.524c.314-2.032.607-4.065.963-6.089l.136-.758c.319-1.74.564-3.631 1.082-5.371l-.154-.142c-.288-.268-.6-.578-.827-.913-.781-.105-1.447-.667-1.364-1.688.268-3.354 1.493-6.766 2.585-9.932a91.65 91.65 0 0 1 3.81-9.35c5.068-10.696 12.367-20.408 21.293-28.187 4.735-4.128 9.923-7.789 15.657-10.395 2.827-1.287 5.751-2.282 8.814-2.819 1.517-.266 3.049-.474 4.591-.518 1.251-.739 2.737-.428 3.948.382l.066.045h.003l.31.061c.076.015.074.136 0 .152-.004 0-.01.003-.015.005.199.156.387.323.562.503.579.592.577 1.306.279 1.883 1.773 1.644 2.892 3.756 4.065 5.884a20.504 20.504 0 0 0 4.905 5.909c7.342 6.091 18.14 8.786 27.339 5.91 6.764-2.114 12.542-7.835 14.14-14.723a1.736 1.736 0 0 1-1.177.017c-1.826-.651-2.522-2.647-3.22-4.316l-.034-.08a37.73 37.73 0 0 1-1.707-4.954c-.456-1.712-.724-3.519-.836-5.286a18.552 18.552 0 0 1 .012-2.096l.032-.578c.024-.523.017-1.058.456-1.403Zm-29.701-4.711c.025-.064.124-.097.162-.021 1.616 3.335.556 7.904-.972 11.085-1.599 3.327-4.007 5.85-6.862 8.033-.393.301-.796.596-1.206.886-2.381 1.682-4.502-2.853-1.753-3.72 2.864-1.456 5.193-4.051 6.811-6.778.875-1.473 1.65-3.007 2.244-4.618.591-1.606.946-3.278 1.576-4.867Z" clip-rule="evenodd"></path><path fill="#fff" fill-rule="evenodd" d="M92.953 59.685c1.095-1.176 2.497-2.052 4.028-2.332-1.4.7-2.769 1.43-4.028 2.332Zm-2.147 10.142a16.319 16.319 0 0 1-.364-2.706c.244.372.635.62 1.075.75-.284.635-.525 1.29-.71 1.956Zm73.315 14.053c-1.265-5.266-7.165-15.395-8.56-17.345-1.514-4.827 6.745-8.699 2.253-12.474-2.033-1.703-4.721-2.306-7.242-2.91-17.457-4.194-36.213-2.079-52.404 5.634-2.463-.519-5.029.494-6.82 2.274-8.413 8.46 3.053 23.724 5.56 33.261 4.302 10.635-4.56 12.424-3.609 21.422.738 4.648 5.445 5.877 9.417 6.579.636.149 1.487.172 1.692.845.644 3.929 2.85 7.673 5.812 10.215-.259.767-.062 1.699.852 2.373 8.275 6.152 18.709 9.231 29.029 8.677 12.3-.659 18.661-7.712 20.196-9.528 8.486-11.465 7.472-26.592 5.741-40.255-1.206-9.519.323.561-1.917-8.768Z" clip-rule="evenodd"></path><path fill="#000" fill-rule="evenodd" d="M126.195 40.06c.387-1.21 1.481-1.937 2.734-1.787 1.109.131 2.296 1.233 2.161 2.448a7.886 7.886 0 0 1-.099.661l.005.002h.005l-.027.08a4.191 4.191 0 0 1-.366 1.062c-.215.627-.422 1.257-.627 1.89.296-.013.598.004.904.06.317-.811.636-1.62.953-2.434.34-.869.579-1.985 1.251-2.657.859-.858 2.351-1.035 3.399-.423 1.107.647 1.502 1.797 1.261 3.03-.122.628-.542 1.065-1.061 1.34l-.056.029-.4.947a3.149 3.149 0 0 1 1.021-.262 45.51 45.51 0 0 1 1.846-3.023c.746-1.133 2.204-1.615 3.427-.898 1.094.64 1.682 2.323.898 3.428-.596.839-1.16 1.695-1.716 2.56.095.016.19.037.281.065.043-.057.087-.114.133-.171.607-.753 1.312-1.317 2.037-1.943.678-.587.991-1.51 1.882-1.957 1.122-.56 2.474-.291 3.142.825 1.432 2.39-.972 4.136-2.51 5.584a37.787 37.787 0 0 1 4.158-2.258 35.59 35.59 0 0 1 2.446-1.035c1.228-.457 2.221-.31 3.229.539.45.38.673 1.21.466 1.764-.401 1.061-1.035 1.706-2.146 2.012-.782.216-1.582.362-2.364.588-1.31.376-2.582.835-3.816 1.407.089.056.174.115.252.182a34.791 34.791 0 0 1 2.801-.775 36.04 36.04 0 0 1 4.751-.77l.531-.049c1.915-.184 4.218-.523 5.394 1.311.386.604.428 1.602 0 2.2-.82 1.15-1.636 1.378-2.992 1.4a84.686 84.686 0 0 1 6.735.995l.454.089c1.11.221 2.348.35 3.3.993 2.079 1.403 1.103 4.136-1.2 4.428-1.113.14-2.349-.332-3.441-.552a71.16 71.16 0 0 0-3.195-.566 55.179 55.179 0 0 0-1.662-.233c1.13.163 2.252.393 3.344.719l.304.091c2.111.644 4.961 1.67 5.62 3.927.399 1.371-.693 2.567-2.015 2.648-1.23.074-2.255-.66-3.298-1.2a13.985 13.985 0 0 0-2.354-.94 26.99 26.99 0 0 0-2.581-.65c.735.405 1.452.851 2.139 1.35l.316.233c1.828 1.362 4.615 3.472 3.971 6.026-.203.805-1.1 1.574-1.962 1.492-2.244-.21-3.482-2.6-5.174-3.88a21.352 21.352 0 0 0-1.433-.986c2.565 3.06 4.606 6.599 6.159 10.253 3.412 8.04 4.459 15.484 4.484 24.128l.001.268c.004 4.768-.104 9.623-.568 14.37-.431 4.385-1.221 8.714-3.21 12.685-3.331 6.66-9.823 11.846-16.983 13.82-7.967 2.198-16.872.48-23.398-4.592-1.665-1.294.543-4.102 2.243-2.908 6.793 4.765 15.577 6.275 23.373 3.049 6.184-2.557 11.163-8.058 13.274-14.393 1.343-4.029 1.734-8.326 2.214-12.526l.032-.279c.507-4.392.8-8.814.796-13.235-.006-8.211-1.185-14.97-4.796-22.418a39.496 39.496 0 0 0-6.534-9.6c-.799.163-1.648-.065-2.455-.152a80.787 80.787 0 0 0-1.236-.124c.421.272.834.555 1.239.845l.532.383c1.666 1.193 3.778 2.552 3.35 4.858-.116.624-.737 1.197-1.339 1.338-2.183.52-3.683-1.602-5.157-2.861-1.283-1.095-2.624-2.076-3.991-3.059-.311-.222-.623-.444-.938-.663.296.345.583.695.864 1.049l.415.526c1.255 1.571 3.065 3.614 1.947 5.65-.317.576-.993.958-1.648.946-2.252-.047-3.148-2.604-4.204-4.219-.909-1.384-1.895-2.688-2.916-3.992-.281-.358-.564-.715-.851-1.072-4.73.245-9.444.87-14.075 1.87-3.181.687-6.31 1.577-9.416 2.552l-.258.082c-1.681.541-3.413 1.234-4.624 2.422-.173.819-.041 1.682.125 2.5l.129.625c.531 2.617.893 5.185.622 7.871-.281 2.771-1.115 5.263-2.133 7.837-.482 1.214-.981.994-1.152 2.296-.131.991-.05 2.015.04 3.015l.075.848c.187 2.22.282 4.642-1.173 6.474-.226.281-.71.169-.871-.112a3.613 3.613 0 0 0-.205-.324c-.701-1.016-1.776-1.595-3.006-1.819-.156-.028-.095-.237.036-.254a4.31 4.31 0 0 1 2.861.674c-.397-1.372-3.469-.705-4.478-.438l-.035.009c-1.26.338-2.45.888-3.5 1.666-2.114 1.564-3.335 4.003-3.273 6.63.06 2.582 1.394 4.969 3.684 6.205a7.48 7.48 0 0 0 3.613.871c1.305-.013 2.467-.586 3.775-.505.756.046 1.335.858.898 1.566a3.581 3.581 0 0 1-1.111 1.13 37.174 37.174 0 0 0 4.014 7.002 23.042 23.042 0 0 0 2.949 3.338c.849.794 2.69 1.714 2.586 3.039-.036.478-.283.769-.718.947-1.353.553-2.999-1.352-3.904-2.271l-.072-.073a25.253 25.253 0 0 1-3.053-3.686c-1.589-2.342-2.575-4.982-2.983-7.754-2.17.653-5.043.04-6.814-.761-5.564-2.515-7.383-10.012-4.001-15.004a9.765 9.765 0 0 1 2.408-2.46 2.271 2.271 0 0 1-.568-.438c-.947-1.006-1.616-2.318-2.28-3.528l-.08-.145a58.401 58.401 0 0 1-1.667-3.246l-.194-.413c-1.164-2.504-2.184-3.599-3.015-6.232a52.877 52.877 0 0 1-1.836-7.763l-.108-.697c-.236-1.528-.459-3.162-.287-4.714-1.185.387-2.376.626-3.55.045-.772-.383-1.2-1.499-.935-2.3.192-.59.513-1.052.921-1.416a3.342 3.342 0 0 1-.672-.452l-.175-.152c-.71-.617-.76-1.79-.33-2.564.043-.074.085-.15.125-.224.41-.733 1.257-1.213 2.094-1.2.135.002.27.002.407 0a3.623 3.623 0 0 1-1.136-.444c-1.64-1.008-1.433-3.741.551-4.223.833-.2 1.752-.118 2.669.097-.034-.019-.068-.038-.102-.059-.693-.425-1.274-1.255-1.208-2.107.072-.943.376-1.615 1.208-2.11.723-.426 1.745-.467 2.463 0 .624.408 1.234.859 1.822 1.343-.59-.725-1.101-1.514-1.308-2.35-.256-1.043.171-2.178 1.11-2.727.747-.438 1.537-.389 2.243-.05a2.38 2.38 0 0 1 .458-1.6c.744-1.015 2.096-1.599 3.273-.859.154.098.361.265.562.47-.391-1.245-.038-2.551 1.295-3.114.813-.344 1.914-.17 2.62.423-.448-2.424 3.128-4.206 4.518-1.701.316.567.628 1.164.907 1.776l.103.23.011-.005-.071-.168-.073-.168c-.386-.898-.879-1.832-1.014-2.807-.198-1.441.444-2.808 2.011-3.02.81-.11 1.71.258 2.253.9-.294-2.236 2.203-3.86 4.001-2.191.851.79 1.306 1.946 1.846 2.96.307.574.619 1.144.926 1.72.078-.094.162-.187.251-.278a38.228 38.228 0 0 1-1.105-4.16c-.283-1.322.378-2.696 1.743-3.07 1.24-.343 2.793.423 3.07 1.744.194.93.425 1.85.678 2.764a4.5 4.5 0 0 1 .513-.093c.015-.172.031-.345.048-.517l.067-.611c.148-1.397.297-2.992 1.026-4.179 1.245-2.029 4.435-1.188 4.469 1.211.019 1.24-.486 2.47-.662 3.699-.076.534-.12 1.075-.145 1.616.34-1.796.807-3.57 1.347-5.315.064-.21.131-.418.197-.628Zm-27.523 69.276c2.799-.433 5.357 1.128 7.016 3.316.302.399.103.964-.169 1.3-.197.247-.461.277-.759.315-.342.044-.775-.233-.925-.531-1.067-2.13-2.97-3.477-5.163-4.305-.04-.015-.053-.087 0-.095Zm3.879-38.171.085-.091c.566-.588-.329-1.486-.897-.897-.597.62-.995 1.374-1.377 2.137-.364.728.729 1.37 1.095.64l.166-.332c.262-.516.54-1.026.928-1.457Zm-7.86-1.206c.802-.136.462-1.358-.338-1.223-1.035.175-2.067.373-3.103.548-.802.135-.462 1.357.338 1.223 1.035-.175 2.067-.374 3.103-.548Zm47.823-8.345c-.775-.259-1.108.966-.337 1.223 1.066.356 2.123.72 3.135 1.214.73.357 1.373-.736.639-1.095-1.109-.542-2.267-.951-3.437-1.342Zm-48.007-1.643c-.757-.303-1.086.923-.337 1.223l2.738 1.095c.758.303 1.087-.923.337-1.223l-2.738-1.095Zm57.568-2.978-.1-.063c-.687-.445-1.323.653-.64 1.095.401.26.888.436 1.255.746l.077.068c.593.56 1.491-.334.896-.896-.435-.411-.985-.64-1.488-.95Z" clip-rule="evenodd"></path><path fill="#000" fill-rule="evenodd" d="m154.378 120.877.174-.009c1.19-.067 2.345-.241 3.407.425a2.218 2.218 0 0 1 0 3.786c-1.116.697-2.329.468-3.581.436a199.668 199.668 0 0 0-3.095-.057 411.213 411.213 0 0 0-6.184-.016 195.97 195.97 0 0 1-5.582-.057l-.797-.021c-1.908-.052-3.905.013-5.784-.358l-.081-.014.003-.004c-.326-.11-.498-.629-.109-.809 1.865-.865 3.996-1.227 5.998-1.639 2.028-.416 4.09-.716 6.146-.952 2.053-.234 4.121-.4 6.184-.532 1.099-.07 2.2-.128 3.301-.179Zm-6.24-26.57.136-.092c1.494-.986 3.639-1.936 5.36-1.187a.953.953 0 0 1 .251.16c.422.009.847.044 1.274.108 3.368.508 6.48 2.72 8.002 5.764 1.73 3.46.908 7.107-2.153 9.46-1.503 1.157-3.271 1.989-5.173 2.177-.622.061-1.281.073-1.878-.115.282.602.497 1.231.608 1.895.379 2.272-.522 4.145-2.637 5.126-1.859.863-4.432 1.193-6.271.104-1.554-.919-1.045-3.965 1-3.692 1.381.184 2.625.645 3.989.057 1.112-.48.437-2.099.102-2.95-.56-1.423-1.385-2.763-2.054-4.145l-.124-.259c-.42-.901-.943-1.853-1.343-2.824-.22 1.14-.615 2.259-1.08 3.295-1.104 2.459-3.241 3.963-5.787 4.667-2.618.724-5.691.892-8.39.803-2.745-.09-5.635-.81-7.644-2.8-3.679-3.646-2.623-10.026 1.249-13.074 2.505-1.972 6.034-3.323 9.275-2.973 1.623-.365 3.439-.158 5.063.21 2.198.498 4.296 1.565 5.732 3.263.107-.267.23-.523.37-.768-.063-.029-.102-.123-.04-.179.115-.103.232-.201.35-.3.468-.657 1.072-1.228 1.813-1.732Zm-26.623 17.089c-.132-.187.126-.431.312-.312 1.519.981 3.11 1.872 4.853 2.392 1.703.507 3.472.455 5.182.888.643.163.541.999 0 1.204-1.882.714-4.005.115-5.793-.642-1.814-.768-3.411-1.911-4.554-3.53Zm10.2-15.662.045-.055-.11.037c-2.13.717-3.884 1.9-5.31 3.627-2.429 2.942-2.458 7.62 1.175 9.608 1.958 1.072 4.271 1.123 6.445 1.009l.44-.023c1.909-.106 3.858-.262 5.7-.779 2.009-.563 3.405-1.778 4.174-3.736l.064-.165c.767-2.015 1.166-4.256-.258-6.08-2.411-3.089-7.984-3.706-11.429-2.23-.825.354-1.487-.509-.936-1.213Zm22.105-.829a1.034 1.034 0 0 1-.186.148c-.692.415-1.469.42-2.236.61-.706.175-1.397.388-2.047.72a25.52 25.52 0 0 0-3.039 1.816c.207.33.392.68.551 1.049.438 1.021.586 2.096.54 3.175.672.582 1.234 1.306 1.83 1.96l.525.578c.612.676 1.22 1.359 1.79 2.068.338.422.682.853 1.012 1.297.044-.132.105-.262.19-.385.322-.464.819-.699 1.386-.564.497.118.829.342 1.348.346.636.004 1.249-.133 1.851-.329 1.182-.386 2.341-1.08 3.206-1.978 1.952-2.028.922-4.885-.601-6.817-1.542-1.957-3.757-3.228-6.12-3.694Zm-17.385 4.87c.626-.18 1.559.105 1.834.748l.198.467-.017-.037c.07.166.137.326.191.496l.185.143c.158.176.305.361.439.557.318.543.41 1.239.247 1.847-.268 1.006-1.191 1.652-2.216 1.658-2.998.018-3.733-5.049-.861-5.878Zm18.086-.91c1.385-.061 2.308 1.162 2.419 2.42.062.715-.082 1.498-.287 2.182a2.127 2.127 0 0 1-2.328 1.52c-.834-.112-1.572-.747-1.78-1.563a6.02 6.02 0 0 1-.442-2.139c-.026-1.356 1.128-2.362 2.418-2.42Zm-18.28-11.313c1.405-.227 2.747.456 2.951 1.967.206 1.524-.915 2.53-2.322 2.68-2.652.282-5.36.35-8.025.466a96.5 96.5 0 0 1-3.337.078l-.557.004c-1.034.007-2.384.21-3.319-.299-.061-.033-.058-.108-.02-.155.657-.81 2.016-1.154 2.987-1.51l.082-.031a56.025 56.025 0 0 1 3.732-1.275l.64-.19c2.354-.693 4.775-1.345 7.188-1.735Zm8.918-.741c.868-.327 1.725-.123 2.316.43 1.974.55 4.007.97 5.994 1.452l.541.133c2.492.622 5.23 1.102 7.547 2.242.246.12.091.435-.125.461-2.581.314-5.362-.185-7.928-.485-2.63-.307-5.272-.814-7.909-1.013-1.893-.143-2.168-2.569-.436-3.22Z" clip-rule="evenodd"></path></svg>