<svg xmlns="http://www.w3.org/2000/svg" enable-background="new 0 0 24 24" viewBox="0 0 24 24" id="kotlin"><path d="M.821 23.163c-.096 0-.193-.019-.285-.057-.281-.115-.465-.39-.465-.693v-7.957c0-.187.069-.367.195-.505L12.745.245C12.888.089 13.089 0 13.3 0h8.95c.303 0 .575.182.692.461.116.279.054.602-.159.816L1.354 22.94C1.211 23.086 1.018 23.163.821 23.163zM1.571 14.746v5.843L20.453 1.5h-6.822L1.571 14.746zM.75 11.417c-.092 0-.185-.017-.274-.052C.188 11.253 0 10.976 0 10.667v-9.82c0-.414.336-.75.75-.75h9.11c.298 0 .568.177.688.45s.065.591-.138.81l-9.11 9.82C1.155 11.333.954 11.417.75 11.417zM1.5 1.597v7.159l6.642-7.159H1.5zM22.013 24H3.87c-.302 0-.573-.181-.691-.458-.117-.278-.057-.599.154-.815l9.005-9.25c.142-.146.313-.219.537-.227.2 0 .393.08.533.223l9.138 9.25c.213.216.275.537.159.816C22.588 23.818 22.315 24 22.013 24zM5.646 22.5h14.571l-7.339-7.429L5.646 22.5z"></path></svg>