<svg xmlns="http://www.w3.org/2000/svg" width="464" height="635" fill="none" id="boy-sitting-on-legs"><path fill="#fff" fill-rule="evenodd" d="M84.51 240.401c-3.032 1.699-5.548 2.86-7.92 3.653l-3.487 1.165 3.28 1.661c2.228 1.129 4.346 2.568 6.476 4.401l1.643 1.414.794-2.016c1.041-2.65 1.549-5.663 1.506-8.957l-.033-2.586-2.259 1.265Zm145.655 8.557c-2.838 5.118-6.263 10.157-9.576 15.03-7.312 10.755-14.873 21.876-17.201 35.175-.272 1.654-.388 7.476-.388 7.476l2.167-.882c7.237-2.947 14.916-5.138 22.342-7.258a580.22 580.22 0 0 0 8.746-2.546 83.378 83.378 0 0 0 3.502-1.046c2.765-.869 5.378-1.689 8.124-1.829l.836-.043.419-.724c3.783-6.55.946-12.794-2.304-18.628-1.951-4.253-4.462-8.249-6.89-12.114-2.517-4.006-5.12-8.148-7.021-12.483l-1.249-2.846-1.507 2.718ZM90.509 303.217c4.302 4.506 8.298 9.084 11.877 13.608l2.717-1.249c-1.313-6.681-5.392-11.388-12.835-14.814l-1.759 2.455Zm143.908 100.658c-.431 0-.835.167-1.137.47a1.628 1.628 0 0 0-.474 1.166l1.611-.005v-1.631ZM55.414 515.277c-2.528-4.336-2.899-11.143.889-14.833-1.274-7.971 1.229-16.878 6.771-23.223l.013.019c8.23-12.325 8.835-16.717 2.822-30.494-10.746-.41-21.815-.533-32.308-3.044l.393-2.345a998.1 998.1 0 0 0-2.798-.734c.057.437.352 2.428.345 2.827-.49.536-1.675 1.034-1.895-.021-6.6-28.214-12.508-55.868-18.927-84.039-6.717-28.433-20.227-73.91 12.842-89.58l-.682-2.913c-1.826 0-2.56-1.99-3.397-4.801-3.732-10.058 3.524-19.92 10.308-26.141 9.274-9.285 17.83-19.593 26.106-29.558 23.608-28.704 55.731-67.008 96.793-60.501l-.138 1.691c6.423.808 13.13 2.506 19.634 1.323 22.205-3.847 46.363 4.856 60.02 22.724l.502-3.33c.047-.314.159-.605.656-.605.651-.023.995.509 1.236 1.001 23.571 9.317 33.335 39.646 40.868 60.434.962 3.514.69 4.553.607 4.76l-1.368.815c14.206 18.902 22.012 41.636 28.709 63.193 2.214 5.747 2.444 9.729-1.252 13.204 24.375 14.649 43.501 37.478 32.687 63.504-14.114 25.325-51.487 41.393-79.558 55.939-11.147 6.04-27.36 9.256-37.617 19.148-.686 1.012-1.669 2-2.265 1.918-4.76.705-11.846-29.035-10.769-31.417-5.026 1.797-10.616 1.702-15.872 2.64.471 1.034 2.013 2.436.859 3.587.078 3.493-.459 7.269-1.228 10.829 6.308-1.012 6.165 2.298.096.547-.165 1.542-.586 5.475-.747 6.966 1.812-.797 5.418-1.356 6.68-.11-.516 1.66-4.983.097-6.704.589-1.007 7.466-1.335 14.807-2.042 22.253 5.371 5.117 13.76 6.326 18.553 11.86 4.061 4.212 3.475 11.281-1.289 14.669 2.918 3.423.583 9.104-3.678 10.033-5.804 1.355-11.872-.519-17.595-2.093-9.513-3.134-19.477-8.018-30.457-14.932-4.344-2.707-7.58-6.959-9.117-11.977-11.14-34.339-14.117-57.672-8.859-69.384 3.001-2.267 6.346-.868 9.116-2.106 1.321-.59 2.511-1.384 3.471-4.199-14.453-1.419-35.522 1.219-47.107-5.708l.407-.867c-1.07-.683-3.42-3.54-4.314-4.459 1.612 19.393 2.907 39.288 3.548 58.612 2.126 3.575 3.93 7.275 5.911 11.404 1.378 1.353 3.789 3.673 2.374 5.207 0 0 11.896 27.859 15.531 41.942 3.461.146 4.865 6.01 4.733 9.904-.527 7.088-9.622 7.84-17.595 8.535-5.455.573-11.065.869-16.591.869-9.984.008-34.95-.68-37.311-9.532Z" clip-rule="evenodd"></path><path fill="#000" fill-rule="evenodd" d="M104.014 156.187c16.947-11.256 38.95-17.183 58.604-9.813.233.082.14.423-.103.369a54.505 54.505 0 0 0-9.433-1.193c6.43.785 12.67 2.472 19.182 1.335 21.75-3.591 44.814 3.785 59.265 20.679.373-2.482 3.459-2.39 4.465-.635 19.218 6.766 30.103 32.187 37.362 49.828.853 3.144 6.776 16.202 3.931 17.896 13.539 18.539 21.156 40.49 27.915 62.204l.194.528c1.534 4.25 2.705 9.059-.545 12.841 13.481 8.238 25.945 19.304 31.837 34.298 9.384 22.117-2.574 40.856-21.218 52.839-18.478 13.373-38.496 24.506-59.189 34.067-6.958 3.211-14.003 6.225-21.09 9.144l-.705.288c-5.567 2.288-11.184 4.977-15.348 9.379-8.097 11.81-15.576-23.568-15.658-28.498-3.797 1.141-7.979 1.166-11.898 1.762.498.853.536 1.962-.07 2.871.009 2.886-.297 5.795-.861 8.654 6.015-.533 5.807 5.532-.464 4.133l-.313 2.932c2.863-.886 8.91.53 5.368 3.941-1.855.916-3.832.072-5.81.169-.852 6.702-1.176 13.408-1.8 20.14 5.373 4.668 13.35 5.905 18.12 11.507 4.169 4.555 4.272 11.681-.5 15.969 2.564 4.374-.535 10.071-5.275 11.221-6.111 1.451-12.509-.483-18.406-2.115-10.722-3.528-20.869-8.861-30.416-14.843l-.415-.261c-4.724-2.943-8.143-7.523-9.767-12.826l-.348-1.075c-5.77-17.909-16.032-53.037-8.334-69.63 3.628-4.016 9.474.661 11.588-4.071-13.637-1.067-35.611 1.306-46.723-6.481 1.091 15.665 2.71 31.32 2.645 47.031-.277 2.067 1.12 3.359.558 5.444 2.029 3.465 3.78 7.078 5.518 10.694l.109.102c1.804 1.708 4.123 5.172 1.75 7.203 8.077 11.819 12.459 25.767 16.04 39.486 3.809.872 5.248 7.952 5.012 11.336-1.069 9.093-11.867 9.152-18.962 9.92a160.655 160.655 0 0 1-37.692-.495c-6.81-.596-14.337-2.374-17.728-8.959-2.735-4.728-3.162-11.821.62-16.063-1.105-8.125 1.487-16.593 6.55-22.999l.155-.193-.013-.005c-.116-.051-.106-.243.368-.339l.053-.01.227-.351c7.442-11.516 8.369-14.674 2.848-27.808l-5.017-.179c-9.297-.34-18.69-.829-27.687-3.137-1.274 1.06-3.516.937-4.016-1.142-6.545-27.962-12.55-56.055-18.93-84.057-6.633-29.471-20.924-74.209 13.659-91.298-3.532.001-4.32-4.23-5.178-6.901-3.147-10.377 3.788-19.965 11.041-26.702 25.463-25.521 44.621-57.673 74.928-78.131Zm-48.56 346.376c-.478 13.739 9.936 17.033 21.658 17.384 7.304.694 14.663.906 21.995.62l3.454-.2c5.769-.339 11.581-.763 17.195-2.077 3.697-.759 4.624-4.06 3.289-7.288-.577.257-1.26.274-1.793-.099-.598-.418-1.031-.861-1.359-1.383-18.995 8.439-42.896 7.515-61.304-2.195-2.36-.115-2.666-2.928-3.135-4.762Zm46.176-43.488c-6.904-4.169-20.885-5.981-27.554-.735.457 2.636-.611 5.074-1.613 7.423 3.043-.725 29.509-4.285 25.77 2.21-2.092 1.685-4.941.525-7.36.297-6.487-.538-13.02-.367-19.487.367-.564 1.578-.782 3.348-1.483 4.836 6.55-2.158 13.404-3.19 20.277-3.559l.382-.02c3.001-.159 6.513-.822 8.747 1.625 1.904 2.6-2.322 4.388-4.499 4.134-9.272-.278-18.563.065-27.826.463l-.407.671c-6.546 10.82-7.956 15.081-5.31 28.057-.015-.013-.03-.023-.043-.036-.01.702-.236 1.334-.716 1.806 19.963 6.467 38.556 6.1 58.393-.315-2.901-14.547-8.657-28.287-12.937-42.431-1.129-.631-1.465-2.026-2.311-2.949-.855-.073-1.703-.748-2.023-1.844Zm47.838-58.693c-8.698 6.141-4.77 13.397-2.365 21.735 3.515 12.256 6.215 24.743 9.223 37.129 1.772 11.002 8.739 20.544 18.764 25.492a42.571 42.571 0 0 0 14.511 4.537c1.952.198 4.115-.011 5.422 1.737.742.801.823 2.117 0 2.904-2.585 2.926-10.099.286-13.585-.444-25.831-7.817-29.757-26.504-34.739-49.933-2.414-13.012-8.346-26.716-4.767-39.913-2.165 1.156-5.491.76-7.026 2.943-3.544 22.42 4.273 45.165 10.299 66.6 1.338 4.504 4.162 8.465 8.271 10.829 8.766 5.345 17.953 10.229 27.674 13.603l.295.083c4.934 1.413 15.591 5.227 19.377 1.24.79-1.165.755-2.412-.241-3.186l-.482-.183c-.926-.357-2.016-.861-2.185-1.941l-.01-.075.035-.013c-.805-1.475.758-3.126 2.157-3.487 1.973-.072 2.89-1.383 3.592-3.309 1.257-9.425-11.998-11.944-16.393-18.393-.465 2.354-4.094 1.906-4.075-.469-.144-7.212 1.426-14.49 2.501-21.604-1.654-.071-3.412.597-5.022.235-.238-1.485 4.408-3.042 5.686-3.533.264-1.229.544-2.453.841-3.672-10.333.623-5.533-2.685.993-3.818.203-.691.381-1.401.543-2.103l.08-.35c.413-1.759.631-3.421.703-5.14-4.568 2.091-9.708 3.359-14.658 2.295-8.945-2.075-13.581-12.916-9.99-21.051-.817-2.886.787-5.955 2.237-8.389-5.889-.021-11.781-.182-17.666-.356ZM62.02 476.034c-.077.046-.15.098-.22.155l-.07.058.018.004c.085.018.208-.03.283-.209-.016.015-.016.007-.01-.008Zm.544-.182c-.14.004-.26.016-.365.031l-.06.01-.02.03c-.036.055-.059.078-.086.116a.955.955 0 0 1 .531-.187Zm10.679-8.593c-.482.064-.963.121-1.447.182l-.095.258a69.464 69.464 0 0 1 1.542-.44Zm21.377-20.854c-8.594.874-17.255.335-25.85 1.311 1.685 2.324 2.887 4.897 3.895 7.613 7.06-6.657 18.387-4.621 26.882-2.169a88.973 88.973 0 0 1-1.57-5.047c-1.271.204-2.722-.509-3.357-1.708ZM304.222 311.04c-11.747 11.952-29.5 15.238-44.694 20.514-3.689 2.307-1.886 6.878-1.416 10.35a265.458 265.458 0 0 1 2.085 17.169c1.877-2.167 6.795-2.45 9.546-3.331l.367-.083c3.671-.841 7.486-2.102 11.232-1.285 1.51.328 1.613 2.415.412 3.158-3.04 1.885-6.76 1.939-10.245 2.352l-.892.106c-3.084.367-6.192.701-9.291.571a1.176 1.176 0 0 1-1.029-.351c.386 6.006 1.16 12.097.898 18.112-.144 1.068-.487 2.23-1.247 3.021l-.025.092c-.429 1.519-1.827 4.231-3.437 2.223l-.302-.542c-2.364-4.26-4.605-8.713-5.748-13.47-.381 9.619-.688 19.233-1.073 28.849l-.012.231c-.098 1.632-.418 3.595-1.48 4.852.094.746-.576 1.181-1.175.914l-.079.037c-.574.256-1.497.493-1.847-.206-2.019-4.714-4.168-9.354-6.138-14.081.104 2.426-.013 4.857.064 7.285.039 2.77.555 6.028-.769 8.591-1.13 2.245-3.945 2.832-5.456.878-1.21-1.866-1.896-4.172-2.997-6.151-3.104 15.313-10.961-7.196-12.404-11.835a85.102 85.102 0 0 1-13.945 6.525c1.33 2.011 1.008 4.745 1.426 7.057.377 3.446.675 6.896.972 10.35l.11.661c1.811 10.804 4.449 21.848 10.255 31.253 4.915-4.806 11.364-7.641 17.671-10.187 7.595-3.126 15.128-6.396 22.558-9.892 20.084-9.429 39.422-20.484 57.449-33.424l.612-.428c10.018-7.04 20.458-16.27 20.714-29.404.864-21.531-17.167-36.219-30.67-50.481Zm-221.37-12.204C65.704 282.772 39.448 262 15.763 277.262c-22.124 18.697-4.596 63.526-.076 87.668 5.746 25.377 11.82 50.684 17.453 76.085 20.088 2.647 40.478 4.033 60.665 1.649-.228-17.91-1.438-35.797-1.834-53.713-.367-9.23-.24-18.497-1.625-27.64-1.176-7.433.334-16.413-3.812-22.907-1.535-2.365-4.03-4.435-4.588-7.285-.013-.133.161-.177.246-.103 1.213 1.065 2.188 2.336 3.475 3.357l.947.732c1.54 1.197 3.073 2.475 4.026 4.177.098-.725-1.74-7.191-.639-6.42l.208.567c1.48 4.065 2.814 8.177 3.194 12.526 1.453 14.823 2.264 29.719 3.508 44.563 3 1.351 5.757 3.336 9.034 4.054 5.366.53 10.74.23 16.116.159l.504-.005c15.685-.234 31.321.645 46.994.397 16.021.621 32.398-3.57 46.072-11.99-7.492-33.786 18.23-57.883 30.123-86.765-13.7 3.451-27.334 7.157-40.995 10.793 1.843 4.502-4.12 17.257-6.364 21.778-12.007 23.639-36.29 39.088-58.126 16.527.011.069.018.138.026.21-.733-.668-1.543-1.256-2.36-1.821-1.097 8.99-4.063 18.051-9.661 25.269l-.611.765c-1.746 2.175-4.275 5.034-7.071 3.391-2.059-1.112-2.446-3.276-2.046-5.459-6.727 7.31-14.056 8.961-9.459-3.618l-.153.157c-2.573 2.639-9.401 8.469-10.097 1.576.303-3.432 2.42-6.495 3.496-9.71-1.149.709-2.442 1.06-3.757.556-3.53-1.352-1.713-5.383-.926-7.92a1749.483 1749.483 0 0 1 6.094-19.211c-.716-3.799 1.553-7.58-.574-10.882-.911.476-2.137.376-3.017-.797-5.16-6.862-11.082-13.22-17.3-19.136ZM33.379 442.18c.005.038.005.072.007.11.198.013.393.03.59.048-.2-.048-.4-.107-.597-.158Zm169.406-24.672c-3.165-32.547 5.049-17.219-28.31-16.849.15.815-.923.721-.544.494-.483-1.799-3.221 3.472-3.603 4.156-.721 1.526-1.049 3.426-1.303 5.095-1.787 9.351 4.874 17.542 14.589 13.567-1.251-.104-2.656.347-3.693-.451.005-.002.007-.007.012-.013-.929-1.662 4.168-1.734 5.181-2.178 3.95-.825 7.91-1.591 11.837-2.515 1.913-.451 3.873-1.157 5.834-1.306Zm32.072-12.576c-.285-.166-.139.379-.044.103.013-.036.03-.069.044-.103Zm35.919-173.782c-14.277 1.018-23.521 8.06-33.653 17.09a69.227 69.227 0 0 1-2.308 1.913c4.427 7.752 9.2 15.299 13.814 22.944l.864 1.438c1.346 2.242 2.66 4.525 3.461 7.022 2.728 8.623-6.801 23.799-10.264 32.265-16.572 29.204-32.137 49.479-17.06 84.069.809-2.183-.978-9.803 1.696-10.1l-.054-.541c-.855-8.793-.893-19.383 1.774-27.147-1.476 15.024.124 30.769 5.825 44.794 1.492-13.297-.485-28.15-.026-41.808-.017-2.1 3.163-2.077 3.253 0l.108 3.526c.373 11.951 1.017 24.466 7.976 34.576.67-15.39-2.141-31.602 3.26-46.358.441-1.063 2.031-.981 2.077.282.099 5.023 2.227 22.025 5.897 24.974 1.008-3.076.905-6.44.743-9.662-.5-11.673-2.185-23.063-4.254-34.573-.374-2.275.296-5.074 2.654-5.951 1.752-1.665 4.171-2.845 6.171-3.793 12.714-6.273 30.203-5.064 38.803-17.983l.417-.629c1.003-1.515 1.943-3.011 2.366-4.828-1.159-4.323-2.825-8.536-4.24-12.781a462.634 462.634 0 0 0-3.924-11.202l-.457-1.237c-6.078-16.571-13.817-32.478-24.919-46.3Zm-98.444 169.562c-.326.106-.583.431-.86.673l-.06.051.169-.135c.179-.144.341-.278.59-.468l.161-.121Zm-75.296-8.537.077 1.004c.493.1.975.225 1.457.348a9.985 9.985 0 0 1-1.534-1.352Zm72.738-22.675c-.057-.197.225-.312.331-.138 4.149 7.289 12.318 10.191 20.182 11.346 1.339.313 1.175 2.159 0 2.548-4.396 1.455-9.472-.504-13.07-3.113-3.688-2.671-6.204-6.279-7.443-10.643Zm79.107-4.161c-.779 5.611-.708 11.334-.775 16.998.256-5.664.469-11.333.775-16.998Zm-114.558 9.882c.816.281 1.66.466 2.49.538-.882.42-1.89.21-2.49-.538Zm-63.98-181.446c-12.472 14.101-23.391 29.537-36.806 42.789-7.86 7.093-15.298 16.787-9.167 27.463 1.293.509 1.52 2.411.405 3.306.266-.035 1.977-.863 1.593-.185-3.437 1.465-6.459 3.588-9.062 6.156 16.22-11.913 37.727-2.375 51.873 8.302 6.982 5.093 13.473 10.706 19.552 16.747 2.175.389 4.424 1.549 6.237 2.455 12.505 5.998 14.464 14.103 13.433 27.059-3.753 7.143-5.529 15.311-8.144 22.969-2.69 5.953 2.602 1.941 3.36-.656 1.842-2.288 2.73-5.329 3.859-7.989l.081-.189c.32-.761 1.008-1.327 1.893-1.073.71.203 1.369 1.08 1.093 1.84l-.566 1.457c-2.744 7.04-5.578 14.117-7.763 21.331 7.382-4.414 11.037-12.769 14.912-20.147 1.064-1.962 3.929-.233 2.97 1.733a152.58 152.58 0 0 1-2.76 5.406c-2.513 5.348-4.336 10.99-5.845 16.698 8.297-4.941 11.189-15.007 13.575-23.502.148-2.423 3.647-1.946 3.286.433-.887 4.722-2.241 9.375-4.36 13.699l-.56 3.271c-.373 2.18-.742 4.361-1.094 6.545a.898.898 0 0 1 .623-.059c7.351-7.391 10.293-17.588 12.86-27.389-1.221-4.145.273-8.384.102-12.658.649-5.471-1.118-10.57-3.566-15.455-1.466-15.113-16.045-21.668-26.209-30.551-12.449-12.284-18.994-31.091-36.492-37.179-1.819.115-3.573-.275-5.275-.861-.075-.02-.088-.148 0-.161 1.732-.282 3.463-.724 5.199-1.04.468-1.523 2.338-1.709 3.745-1.028 15.13-6.621 27.67-18.264 39.692-29.341-11.739-10.843-26.938-17.575-42.673-20.196Zm69.62 153.704c.252.279.472.581.637.911.044.085.039.186.053.28a17.381 17.381 0 0 0-.69-1.191Zm-47.994-45.834c4.18 4.379 8.193 8.942 11.97 13.715-1.355-6.889-5.792-10.871-11.97-13.715Zm139.886-52.455c-9.075 16.368-23.284 30.746-26.607 49.726-.267 1.623-.285 3.267-.318 4.906 10.131-4.124 20.796-6.694 31.247-9.859 3.961-1.057 7.808-2.72 11.97-2.932 3.43-5.938.675-11.75-2.344-17.166-3.934-8.598-10.157-16.034-13.948-24.675Zm-146.248-7.961c-2.624 1.47-5.33 2.815-8.184 3.769 2.457 1.245 4.704 2.817 6.784 4.607 1.045-2.657 1.437-5.536 1.4-8.376Zm66.719-94.355c-1.362 11.991-1.296 24.364 1.893 36.067 4.756 18.238 22.364 35.29 42.288 31.714 20.103-4.195 29.983-24.982 34.127-43.26-10.586-13.411-27.158-21.8-44.237-22.475-11.106-.453-23.66 3.121-34.071-2.046Z" clip-rule="evenodd"></path><path fill="#fff" fill-rule="evenodd" d="M198.898 59.772c11.226 0 24.697 5.435 25.842 5.544l.031.001c.602 0 2.957 1.791 7.063 5.374l-4.447 8.662.359.343c1.723 1.65 3.193 3.152 4.354 4.337 9.476 9.674 11.18 47.657 8.946 60.903-2.233 13.246-6.369 26.207-25.627 26.207s-40.683-11.562-43.984-15.163c-2.2-2.401-4.671-3.551-7.414-3.45l-.335-.425-.404-.057c-3.796-.549-6.515-1.288-8.159-2.217-3.211-1.814-6.739-11.349-6.739-13.449 0-2.079-5.269-17.207-5.375-18.808l-.001-.044c0-1.338-6.884-7.49-6.884-9.443 0-1.954-1.388-1.836 0-8.72l.403-2.022c1.477-7.33 4.367-19.468 15.385-24.742 12.109-5.795 35.645-12.831 46.986-12.831Z" clip-rule="evenodd"></path><path fill="#000" fill-rule="evenodd" d="M150.044 72.331c6.039-6.4 40.323-16.3 57.668-14.202l.521.067c1.384.175 2.748.44 4.094.802 4.352 1.014 8.847 2.551 12.443 5.118 3.002 2.1 12.471 5.529 9.68 11.022 1.035 1.958 1.421 4.377.722 6.305-.088.666-.294 1.28-.557 1.916 2.211 3.258 3.961 6.942 5.378 10.447 2.477 8.819 4.018 17.997 4.243 26.995.751 17.096-1.126 37.516-16.037 48.571-9.007 7.004-23.117 7.24-33.239-1.446-.575-.678-3.276-2.51-2.375-2.832.269.283.544.559.825.829a.161.161 0 0 1-.01-.092l-.264-.239c-.497-.46-1.142-1.126-.408-.996.033.038.068.07.103.108.155.093.273.174.364.245l.047.037-.014-.015c-.423-.45-.677-.909-.045-.616l.084.041c.281.295.567.578.858.854a.164.164 0 0 1 .017-.1l-.271-.262c-.264-.259-.224-.26-.095-.47-.562-.787.488-.319.562-.012.657-.155 1.234 1.077 1.657 1.227 18.556 14.245 45.484 1.605 45.048-38.09l-.006-.776c-.128-12.693-1.197-25.738-6.455-37.228a33.007 33.007 0 0 0-1.712-3.225 31.314 31.314 0 0 0-1.397-2.284 20.726 20.726 0 0 1-4.135-.764 19.692 19.692 0 0 1-1.389-.4c-6.741.367-13.331.766-20.09 1.145l-2.111.131c-5.726.368-11.648.956-16.268 4.493-4.534 3.22-4.555 9.568-8.436 13.103-5.534 3.751-5.574 7.133-6.64 12.66.079 4.167 2.972 10.221-2.337 11.975.896 1.275-.353.662-.451.215-.01.002-.02.005-.028.005.798 1.482-.375.549-.479.073a.467.467 0 0 1-.188-.126c.804 1.298-.496.39-.419.153-1.554-2.385-4.752-2.755-7.006-2.123-.028.085-.128.092-.19.047-9.586 2.075-7.113 21.89 2.71 19.975.421-.086.411.116.494.135-.227-.595.413-.353.406-.228l.039-.002c.031-.003.019-.006.042.002-.22-1.217 1.015.546.917.619a.333.333 0 0 1 .118-.041l-.042-.115c-.205-.545-.187-.319-.186-.631-.154-.386-.165-.217-.129-.468.541-.419.701.851.881.944-.309-.431-.063-.782.229-.549 2.212 4.647 5.07 9.014 8.763 12.453.404.318.813.631 1.237.927 1.571 1.366 3.98 2.245 5.451 3.455 0 .02-.01.045-.025.07l.034.031.034.032.512.245c.15.128.285.271.406.428.128.148.24.311.336.484.048.21-.058.298-.258.207-.088-.03-.176-.065-.264-.097l.013.017c.029.044.223.495-.001.421l-.027-.01c-.123-.045-.245-.095-.366-.143.143.178.273.371.389.534a.842.842 0 0 1 .228.448c-.005.095-.058.135-.153.123a13.825 13.825 0 0 1-.432-.151l.041.078c.101.199.245.532-.01.421a8.253 8.253 0 0 1-.64-.231c-.017.035-.052.048-.122.015a12.897 12.897 0 0 1-1.936-.871c-.544-.396-1.094-.784-1.64-1.177a12.524 12.524 0 0 1-1.485-1.037 32.293 32.293 0 0 1-8.149-7.537c-3.684 3.186-11.048.143-15.604-2.351-4.029-2.229-5.613-6.349-6.023-10.792-.851-5.981-5.746-8.028-5.405-21.151-.008.002-.016.002-.026.002a2.584 2.584 0 0 1-.513-.213 2.603 2.603 0 0 1-.475-.29l-.183-.253a1.576 1.576 0 0 1-.245-.163l-.034.044c-.107.129-.035-.066-.029-.104l-.318-.432c-.754-1.028-1.581-2.181-2.255-3.104l-.021.038c-.015.028-.023.049-.016.057-1.604-2.3-3.112-5.079-3.531-7.769-.495-2.073-.301-4.208.13-6.128 1.851-6.722 7.912-21.933 15.871-28.453Zm43.518 92.962-.1-.089.088.11a.74.74 0 0 0 .171.161.143.143 0 0 1-.003-.055 3.978 3.978 0 0 1-.156-.127Zm14.074-103.787c-11.763-1.01-23.332 1.578-34.557 4.71l-.774.223c-6.382 1.818-13.131 3.455-18.525 7.347-7.535 5.764-11.426 14.932-14.822 23.397-2.965 6.29-1.45 13.382 3.019 17.774.465-4.364 1.257-8.601 2.496-12.803.259-.657.063-.872.62-.958.842 11.325-3.303 19.693 4.899 33.115 3.559 6.333-.561 10.967 9.49 14.299l.272.104c2.094.789 4.38 1.412 6.431.971l-.184-.299c-.187-.307-.244-.456.029-.588l-.028-.047c-.22-.416-.433-.836-.637-1.262-.082.027-.165.047-.251.07.056.103.063.205-.092.24-.553.19-1.12.266-1.701.23l-.125-.009a5.739 5.739 0 0 1-1.439-.271 8.456 8.456 0 0 1-.366-.065c-1.19-.263-2.45-.933-3.265-1.597-9.293-5.271-8.332-23.212 3.122-24.908.235-11.296 5.615-30.353 14.545-41.117 8.071-9.901 30.107-14.192 45.437-12.68l.67.224c2.365.21 4.62 1.263 6.986 1.751-1.699-1.272-3.627-2.119-5.613-2.838-3.956-2.417-8.492-3.725-12.874-4.647a12.688 12.688 0 0 0-2.763-.365Zm-46.913 68.748c.616-.334.546-.012.688-.105 4.429-.361 9.206 3.512 11.682 6.74-.195.203-.724-.398-.817-.493a.114.114 0 0 1-.043.028l.069.097c1.004 1.438-.986-.254-1.172-.603a.154.154 0 0 1-.103.02c.158.154.64.557.722.844l.128.106c1.204 1.03 1.104 1.804-.263.342.033.068.045.13.023.18l.047.032c.672.469 1.225 1.776-.18.434.146.981-1.393-.915-1.442-.901-2.663-2.088-6.583-4.117-9.923-4.39l-.115-.013c-.613-.079-.902-.26-.687-.661-.755-.179-.578-.55-.221-.538-.532-.349-.053-.684.256-.553-.212-.588.639-.196.717-.278.442-.681.561-.113.634-.288Zm-9.285-36.396c2.128-.778 8.412 1.552 7.91 4.637-.3.708-1.286 1.114-1.98.714l-.905-.606c-1.574-1.054-2.995-1.977-4.686-2.896-.92-.456-1.316-1.424-.339-1.849Zm12.105-4.585-.821-.534c-4.435-2.898-10.704-7.29.414-2.746 1.267.543 2.951.864 3.642 2.069 1.086 2.22-1.772 2.37-3.235 1.211Zm.499-13.003c-.356-1.348 4.071.234 5.36.651l.197.074c1.253.467 2.691.9 3.441 1.98.878 1.493-.9 1.802-2.002 1.128-2.258-1.474-4.735-2.586-6.996-3.833Zm11.259-6.281c-2.492-2.718 4.178-.115 5.177.608l.028.022c.746.524.595 1.652-.106 1.984-1.993.038-3.459-1.62-5.099-2.614Zm11.341-2.978c-3.962-2.843 1.257-1.49 3.07-.376 1.235 1.088-.037 2.924-3.07.376Z" clip-rule="evenodd"></path><path fill="#000" fill-rule="evenodd" d="M209.015 140.798c1.403-2.304 4.393 3.34 4.711 4.311.281.86.467 1.74.561 2.631a8.175 8.175 0 0 0 3.331.031c1.657-.317 2.669-1.207 4.108-1.97.995-.528 2.248.091 2.765.966.608 1.03.22 2.099-.58 2.866-1.516 1.456-4.501 1.79-6.481 1.404a8.38 8.38 0 0 1-3.092-1.264c-.006.115-.01.231-.019.346l-.018.199c-.152 1.615-.596 3.645-1.852 4.696-2.06 1.723-4.602-1.591-2.601-3.313l.062-.051c1.244-1.004 1.516-3.697 1.449-5.18a10.72 10.72 0 0 0-.527-2.871l-.063-.184c-.092-.26-1.097-2.731-1.46-2.416l-.017.017c-.15.179-.392-.029-.277-.218Zm11.201-13.002c1.893 1.149 4.778 3.829 2.741 6.679-2.398 2.512-5.85-.368-7.551-1.671-1.578-1.01-3.35 1.587-1.886 2.766 12.293 9.088 17.282-7.473 7.653-9.125-1.06-.182-1.454.995-.957 1.351Zm-20.22-10.624c1.85-.328 3.746.132 5.277 1.213l.116.084c1.476 1.077 3.126 2.969 2.28 4.826-.34.746-1.358.863-2.003.525-1.075-.563-1.27-1.948-2.229-2.715-.787-.628-1.846-1.009-2.859-.917-2.38.216-3.844 2.56-4.583 4.58-.095.258-.475.358-.623.081-1.743-3.253 1.342-7.095 4.624-7.677Zm29.642-1.227c3.545-.292 7.694 3.378 6.761 7.114-.448 1.793-3.111 1.742-3.585 0-.26-.958-.234-1.806-.925-2.602-.57-.657-1.38-1.038-2.251-.98-.96.065-1.846.544-2.518 1.217-.608.608-.971 1.498-1.601 2.036-.155.132-.362.141-.515 0-1.083-.997-.433-3.074.254-4.115.983-1.49 2.583-2.522 4.38-2.67Zm-36.393-5.4c2.274-2.01 6.406-3.951 9.473-2.962 1.763.569 2.531 3.406.563 4.305-2.279 1.041-4.907.617-7.226 1.696-.975.454-1.891 1.021-2.569 1.852-.535.655-1.078 1.517-1.851 1.894-.203.1-.478.102-.641-.082-1.694-1.914.772-5.395 2.251-6.703Zm32.484-3.062c1.406-.394 2.965-.386 4.393-.138 1.427.247 2.876.838 4.041 1.7l.136.1c1.272.958 2.79 2.35 2.709 4.046-.068 1.416-1.56 2.374-2.848 1.632-1.05-.605-1.544-1.818-2.433-2.625a8.372 8.372 0 0 0-2.514-1.56 8.672 8.672 0 0 0-3.14-.619c-.844-.014-1.693.263-2.521.351.069.14-.586.075-.961-.049-.278-.118-.279-.469-.183-.697.478-1.127 2.216-1.831 3.321-2.141Z" clip-rule="evenodd"></path></svg>