<svg xmlns="http://www.w3.org/2000/svg" width="240" height="324" fill="none" id="guy-with-beanie"><path fill="#fff" fill-rule="evenodd" d="M47.465 286.051c27.6 4.194 55.702 4.405 83.533 2.882 11.014-.825 22.062-.974 33.067.081 6.503.484 35.016 2.664 37.346-3.163-1.467-31.027-4.436-62.318-13.546-92.159-3.746-10.596-6.964-19.39-14.276-28.158-2.305-2.394-7.274-7.415-10.122-9.052-2.467-1.419-3.498-.913-4.915-3.309-1.408-2.646-2.446-7.066-4.445-8.934-2.035-1.901-5.051-1.221-8.79-.609.687-9.284-3.597-11.649-9.499-13.415-10.374-3.961-20.62-1.971-23.231 10.663-4.841 0-7.561 2.084-10.501 4.087-1.202.819-.366 2.904-1.801 3.548-2.656.946-7.35.714-9.907 1.878-11.629 5.295-21.986 12.972-28.788 24.185-15.25 23.938-25.725 74.366-23.912 102.739-.794 1.246.304 3.032.583 4.372.352 1.165 1.493 1.94 2.684 1.808 1.662 1.788 4.233 2.186 6.52 2.556Z" clip-rule="evenodd"></path><path fill="#000" fill-rule="evenodd" d="M161.709 155.78c-.169-.094-.02-.337.15-.257 8.186 3.842 14.465 10.582 18.884 18.369 4.575 8.063 7.183 17.218 9.431 26.166l.081.323c2.397 9.572 4.436 19.243 6.271 28.938 1.858 9.817 3.35 19.696 4.55 29.615a402.293 402.293 0 0 1 1.536 14.74c.206 2.46.393 4.922.562 7.385.067.985.13 1.971.185 2.956l.039.74c.033.671.113 1.343-.053 2.005-.143.571-.445 1.087-.71 1.611-.526 1.035-1.965.864-2.531 0l-.165-.252c-.375-.58-.687-1.12-.805-1.842-.114-.699-.118-1.432-.169-2.138-.094-1.3-.174-2.601-.265-3.901a489.748 489.748 0 0 0-.645-8.204c-.472-5.395-.977-10.785-1.598-16.165a520.117 520.117 0 0 0-4.12-28.583c-1.595-9.266-3.61-18.438-5.713-27.599l-.218-.947c-3.683-15.994-9.358-34.413-24.697-42.96Zm-87.187 62.628c.06-.16.32-.197.363 0 .551 2.483.606 5.041.69 7.584.083 2.508.08 5.028.043 7.538-.135 9.224-.388 18.44-.607 27.663-.11 4.613-.212 9.226-.29 13.84-.03 1.731-.055 3.461-.076 5.192l-.026 2.282c-.012 1.009-.039 2.006-.162 3.014-.08.663-.254 1.295-.62 1.864-.26.403-.63.608-.99.882l-.068.052c-.46.364-.944.366-1.4 0l-.133-.105c-.435-.34-.811-.606-1.089-1.145-.387-.749-.448-1.562-.514-2.387-.1-1.251-.034-2.521-.02-3.776.025-2.517.06-5.034.104-7.551.162-9.23.482-18.461 1.066-27.675.275-4.339.648-8.693 1.148-13.015l.095-.81c.152-1.272.29-2.566.446-3.865a28.455 28.455 0 0 1-6.118-5.879c-.128-.166.083-.399.238-.238 1.783 1.846 3.827 3.319 6.09 4.476.37-2.718.88-5.422 1.83-7.941Zm38.884-82.276c.032-.025.082-.035.112 0 .501.584.399 1.476.415 2.215l.002.069c.036 1.081.043 2.159.039 3.24l-.011 3.444c-.002.473-.04.966-.016 1.442l.013.184c.263.27.385.659.296 1.049-.016.502-.278.92-.66 1.183l.819 1.162.82 1.162c1.69 2.398 3.398 4.775 5.179 7.106a96.792 96.792 0 0 0 5.779 6.865 114.69 114.69 0 0 0 3.028 3.172c.419.421.848.831 1.272 1.247l.423.417c.249.25.563.497.729.813.097.187.119.647.154.723.313.687-.221 1.783-1.107 1.44l.04-.026c.162-.113.058-.114-.31-.005a1.408 1.408 0 0 1-.654-.16l-.061-.034c-.286-.145-.542-.427-.775-.653l-.058-.055c-.533-.499-1.04-1.029-1.551-1.551a89.46 89.46 0 0 1-3.115-3.342 104.688 104.688 0 0 1-5.723-7.092c-1.84-2.489-3.549-5.106-5.019-7.83a54.94 54.94 0 0 1-1.56-3.154c-.955-.307-1.176-1.322-1.11-2.466-.352-.821-.669-1.658-.857-2.513-.025-.118.125-.228.215-.126.306.347.588.717.86 1.096.164-.802.372-1.541.469-2.011l.423-2.078c-2.384-.124-4.997.856-6.641 2.572-.088.447-.432.767-.767 1.184a7.242 7.242 0 0 0-.966 1.574c-.553 1.242-.241 3.072-1.313 3.983a1.045 1.045 0 0 1-.365.201c.508 2.496.277 5.246.266 7.778v.222c.003 2.834-.092 5.67-.202 8.501l-.111 2.802c-.144 3.737-.238 7.476.125 11.193a83.385 83.385 0 0 1 8.709-6.745l.984-.658c1.179-.791 2.386-1.604 3.677-2.17 1.688-.741 3.293-.486 4.923.273 1.623.757 3.197 1.635 4.789 2.455 1.619.833 3.242 1.66 4.863 2.489 1.074.549 2.648 1.044 3.436 2.055.05-.223.109-.446.177-.669a1.473 1.473 0 0 1 .142-1.053c2.647-4.866 5.097-9.848 7.529-14.824 1.231-2.519 2.401-5.067 3.635-7.583l1.199-2.452c.2-.408.401-.816.603-1.223.302-.61.617-1.214.923-1.823.13-.257.292-.512.418-.772l.059-.13c.003-.007.294-.921.069-.834l-.019.01c-.115.065-.206-.079-.132-.171.317-.393.759-.045.94.318.499 1-.415 2.569-.767 3.527l-.019.053c-1.091 3.09-2.327 6.122-3.593 9.143-2.427 5.793-5.034 11.496-7.636 17.21l-.031.098c.555-.426 1.147-.812 1.655-1.188 1.279-.948 2.596-1.849 3.911-2.748a127.523 127.523 0 0 1 7.406-4.666l.504-.295c1.258-.733 2.504-1.328 3.997-1.108 1.386.205 2.676.95 3.929 1.556l.129.062 3.872 1.841a155.875 155.875 0 0 0-1.33-4.931 179.382 179.382 0 0 0-6.28-18.205l-.35-.863c-.473-1.184-.944-2.476-2.298-2.84-1.354-.365-2.906.176-4.142-.596-.113-.07-.099-.256.037-.29l.763-.192c1.433-.357 3.113-.716 4.468-.369 1.475.378 2.694 1.616 3.41 2.903.795 1.432 1.356 3.034 1.959 4.56l.096.241a175.45 175.45 0 0 1 1.997 5.214 176.302 176.302 0 0 1 3.486 10.603c.506 1.721.986 3.449 1.448 5.182.132.498.351 1.103.531 1.733.205.201.4.425.583.68.303.424.086.921-.291 1.175-.015.434-.111.842-.342 1.191-.898 1.365-3.275 1.014-3.178-.821.014-.281.124-.549.289-.776l-.004-.037-.019-.067c-.413-.198-.827-.418-1.264-.634l-4.063-2.009c-1.177-.581-2.481-1.48-3.79-1.702-1.22-.207-2.507.703-3.555 1.251l-.068.036a391.57 391.57 0 0 0-7.555 3.995c-1.223.661-2.43 1.349-3.649 2.018-1.018.559-2.118 1.362-3.263 1.677-.489.381-1.07.33-1.537.042.214 1.322.2 2.679.266 4.03.088 1.807.101 3.619.131 5.429l.011.678c.077 4 .118 8.001.134 12.002.054 14.247-.104 28.498-.14 42.744-.019 7.158-.161 14.322-.347 21.478-.079 3.032-.243 6.06-.421 9.087l-.098 1.652c-.207 3.484-.33 7.006-.975 10.444-.084.448-.842.459-.916 0-.594-3.684-.627-7.447-.741-11.174l-.024-.744a318.1 318.1 0 0 1-.188-12.002c.05-14.253.421-28.496.724-42.745.152-7.159.255-14.321.491-21.477.118-3.581.252-7.16.411-10.739.071-1.598.139-3.195.246-4.791l.047-.684c.033-.446.06-.886.092-1.323-1.441.527-2.759-.449-4.056-1.116-1.495-.769-2.989-1.539-4.484-2.307l-1.496-.766-2.995-1.529c-1.348-.688-2.387-1.373-3.825-.566-5.181 2.908-9.942 6.777-14.256 10.837-.827.779-2.576.569-2.785-.736-.895-5.574-.351-11.229.106-16.821l.168-2.076c.205-2.479.427-4.958.723-7.428.133-1.104.265-2.208.411-3.311l.112-.826c.183-1.307.302-2.606.691-3.859a.898.898 0 0 1-.346-.205c-1.17-1.111-.606-3.038-.072-4.358.527-1.304 1.331-2.442 2.337-3.422.22-.213.529-.351.84-.358 2.441-1.618 5.119-2.425 7.905-1.542.079-.375.159-.748.243-1.121l.085-.373c.217-.925.297-2.453 1.095-3.072Zm25.015 146.089a2.22 2.22 0 0 1 2.142.567c.555.555.775 1.384.566 2.142a2.205 2.205 0 0 1-1.458 1.514l-.079.024-.124.052c-.38.102-.76.102-1.139 0a2.153 2.153 0 0 1-1.497-1.497 2.162 2.162 0 0 1 0-1.14l.052-.124a2.209 2.209 0 0 1 1.537-1.538Zm44.973-75.502c.124-.143.326.04.249.192-1.18 2.314-2.495 4.611-3.787 6.866.103.625.206 1.245.324 1.849.504 2.575 1.12 5.104 1.522 7.704 1.445 9.346 2.196 18.793 2.839 28.223.646 9.463.728 18.931.825 28.413.009.822-.623 1.777-1.47 1.932-.387.071-.677.057-1.064 0-.882-.13-1.433-1.14-1.471-1.932a593.56 593.56 0 0 0-.986-15.883c-.698-9.381-1.125-18.786-1.688-28.176l-.199-3.282c-.213-3.556-.408-7.115-.472-10.676-.042-2.36.084-4.719.007-7.076-.072-2.175-.292-4.541.187-6.679.018-.08.144-.1.181-.024.499 1.05.814 2.192 1.058 3.356 1.285-1.625 2.593-3.255 3.945-4.807Zm-84.169-57.476c.18-.013.174.258 0 .278-2.521.293-4.957 1.319-7.338 2.192l-.204.074c-2.406.873-4.75 1.888-7.008 3.099-4.413 2.366-8.465 5.417-12.047 8.91-14.304 13.943-20.823 34.05-25.6 52.945-2.654 10.498-4.54 21.173-5.764 31.931a241.114 241.114 0 0 0-1.523 24.238 311.85 311.85 0 0 0-.021 4.216c0 .645.116 1.456-.056 2.081-.16.579-.61 1.09-.944 1.572-.395.573-1.104.543-1.505 0l-.147-.197c-.427-.567-.845-1.109-.906-1.849-.065-.794-.02-1.612-.022-2.41a199.03 199.03 0 0 1 .045-4.819c.062-3.078.183-6.156.363-9.23a234.77 234.77 0 0 1 1.831-18.652 245.194 245.194 0 0 1 6.84-32.587c2.84-10.086 6.204-20.141 10.996-29.483 4.449-8.674 10.286-16.743 17.988-22.805 3.581-2.819 7.48-5.169 11.684-6.938 2.12-.892 4.346-1.621 6.61-2.036 2.24-.411 4.469-.353 6.728-.53Zm39.631 115.152c.399-.003.845.085 1.189.306l.458.355c.124.159.248.319.371.48.287.374.325.978.265 1.424a1.67 1.67 0 0 1-.265.83l-.349.452c-.336.274-.615.469-1.022.6a1.669 1.669 0 0 1-.62.073l-.068-.004.041.005-.072-.008a4.698 4.698 0 0 1-.2-.022c-.045-.005-.091-.009-.136-.015a.706.706 0 0 0-.13-.001c-.516.048-1.036-.245-1.402-.581-.33-.304-.627-.947-.581-1.403l.02-.19a2.19 2.19 0 0 1 .199-.771c.133-.314.318-.591.569-.825a2.525 2.525 0 0 1 1.733-.705Zm-1.599-23.52c.685-.747 1.862-.802 2.712-.35.207.11.398.287.58.435.46.372.641 1.043.666 1.608.025.559-.27 1.223-.666 1.609l-.096.093c-.237.23-.576.431-.907.492-.535.098-.983.095-1.481-.115a2.276 2.276 0 0 1-1.047-.864l-.04-.067a1.153 1.153 0 0 1-.049-.084l-.022-.044c-.476-.916-.348-1.953.35-2.713Zm.355-23.644c.309-.097.618-.11.927-.041.21 0 .406.053.587.159.197.055.368.154.513.299.174.103.314.242.417.417.205.224.344.488.416.791l.083.618-.083.618-.234.556-.195.252a1.17 1.17 0 0 1-.418.418 1.16 1.16 0 0 1-.391.257 2.18 2.18 0 0 1-1.82.323 2.142 2.142 0 0 1-1.501-1.502l-.042-.29c-.055-.391-.063-.607.047-1.103a2.96 2.96 0 0 1 .263-.655c.314-.553.828-.932 1.431-1.117Zm26.838-17.009a138.95 138.95 0 0 1 2.662.005l.666.009c1.114.017 2.069-.098 2.945.676.636.561.356 1.503-.248 1.926-.914.64-2.062.318-3.113.248a142.36 142.36 0 0 0-3.328-.186c-2.149-.097-4.3-.158-6.451-.167-2.147-.009-4.296.011-6.443.045-2.184.036-4.458.24-6.63.013-.298-.031-.365-.423-.071-.525 2.047-.709 4.349-.938 6.494-1.209a98.688 98.688 0 0 1 6.65-.606c2.287-.131 4.577-.213 6.867-.229Zm-26.842-6.957.073.002c.391.001.757.092 1.097.275l.073.041.469.362c.287.29.486.631.596 1.023l.083.617a1.75 1.75 0 0 1-.2.893 1.735 1.735 0 0 1-.479.746c-.21.226-.459.386-.746.479a1.735 1.735 0 0 1-.819.201l-.074-.001a2.308 2.308 0 0 1-1.169-.317l-.469-.362a2.315 2.315 0 0 1-.596-1.023l-.083-.616c-.012-.32.054-.618.2-.894.093-.287.253-.536.479-.746a1.73 1.73 0 0 1 .746-.479c.255-.134.528-.201.819-.201Zm6.87-54.459c.5-.723 1.404-.08 1.275.502.034 1.633.118 3.219.489 4.819.17.732.393 1.466.737 2.137l.144.282c.445.88.791 1.709.191 2.674-.282.455-.793.796-1.346.772-2.454-.106-2.791-3.522-2.94-5.43-.154-1.964.324-4.123 1.45-5.756Z" clip-rule="evenodd"></path><path fill="#fff" fill-rule="evenodd" d="M130.31 50.45c9.459 0 20.807 4.587 21.772 4.68h.026c.508 0 2.492 1.512 5.951 4.536l-3.747 7.312.303.29c1.452 1.391 2.69 2.66 3.668 3.66 7.984 8.165 9.419 40.225 7.538 51.405-1.882 11.18-5.367 22.12-21.592 22.12-16.225 0-34.276-9.759-37.056-12.799-1.854-2.026-3.936-2.996-6.247-2.912l-.283-.358-.34-.048c-3.197-.464-5.489-1.087-6.874-1.871-2.705-1.531-5.678-9.579-5.678-11.352 0-1.755-4.439-14.523-4.528-15.875l-.001-.037c0-1.13-5.8-6.322-5.8-7.97 0-1.65-1.169-1.55 0-7.36l.34-1.708c1.244-6.186 3.679-16.43 12.962-20.882 10.202-4.892 30.032-10.83 39.586-10.83Z" clip-rule="evenodd"></path><path fill="#000" fill-rule="evenodd" d="M89.15 61.05c5.088-5.402 33.973-13.758 48.586-11.987l.439.057c1.166.148 2.315.372 3.45.676 3.666.857 7.453 2.154 10.482 4.32 2.53 1.773 10.508 4.667 8.156 9.304.872 1.653 1.197 3.694.608 5.322-.074.562-.247 1.08-.469 1.617 1.863 2.75 3.338 5.86 4.532 8.817 2.086 7.444 3.384 15.191 3.574 22.786.633 14.429-.949 31.665-13.511 40.996-7.589 5.912-19.477 6.111-28.005-1.22-.484-.573-2.76-2.119-2-2.39.226.238.458.471.695.699a.139.139 0 0 1-.009-.078l-.222-.202c-.419-.388-.962-.95-.344-.84.027.032.057.059.086.091.131.078.23.147.307.207l.04.031-.012-.012c-.356-.38-.57-.768-.037-.52l.07.034c.237.249.478.488.723.721a.138.138 0 0 1 .015-.085l-.229-.221c-.223-.218-.189-.219-.08-.396-.474-.665.411-.27.473-.011.554-.131 1.04.909 1.397 1.036 15.633 12.024 38.321 1.355 37.953-32.149l-.005-.656c-.108-10.713-1.009-21.724-5.438-31.422a27.99 27.99 0 0 0-1.443-2.722 26.702 26.702 0 0 0-1.177-1.928 17.435 17.435 0 0 1-3.484-.645c-.393-.099-.782-.209-1.17-.338-5.679.31-11.231.647-16.926.967l-1.779.11c-4.824.31-9.813.808-13.706 3.793-3.82 2.717-3.837 8.076-7.107 11.06-4.662 3.165-4.696 6.02-5.594 10.686.066 3.516 2.504 8.626-1.969 10.106.754 1.077-.298.56-.38.182-.009.002-.017.004-.024.004.673 1.251-.316.463-.403.062a.388.388 0 0 1-.159-.106c.678 1.096-.417.328-.352.129-1.31-2.013-4.004-2.326-5.903-1.792-.024.072-.108.078-.16.04-8.077 1.751-5.993 18.476 2.283 16.859.354-.072.346.098.416.114-.191-.502.348-.297.342-.192l.033-.002c.026-.002.015-.005.035.002-.185-1.027.855.461.773.522a.264.264 0 0 1 .1-.034l-.036-.097c-.173-.46-.158-.269-.157-.533-.13-.325-.139-.183-.109-.395.456-.353.591.719.743.797-.261-.364-.054-.66.192-.463 1.864 3.922 4.272 7.607 7.384 10.511.34.268.685.532 1.041.782 1.324 1.153 3.354 1.895 4.593 2.916a.13.13 0 0 1-.02.059l.028.026.029.027.431.207c.126.108.24.229.342.362.108.124.202.262.283.408.04.177-.049.251-.218.175-.074-.025-.148-.055-.222-.082l.011.014c.024.037.188.418-.001.356l-.022-.009c-.104-.038-.207-.08-.309-.12.121.15.23.312.328.45a.721.721 0 0 1 .192.378c-.004.08-.049.114-.129.104a14.118 14.118 0 0 1-.363-.127l.034.065c.085.168.206.449-.009.355a6.778 6.778 0 0 1-.539-.194c-.015.03-.044.04-.103.013a10.865 10.865 0 0 1-1.631-.736c-.459-.334-.921-.661-1.382-.993-.433-.26-.851-.55-1.25-.875a27.234 27.234 0 0 1-6.867-6.362c-3.103 2.689-9.308.12-13.146-1.984-3.395-1.881-4.729-5.359-5.074-9.109-.717-5.048-4.841-6.776-4.554-17.853-.007.002-.013.002-.022.002a2.196 2.196 0 0 1-.433-.18 2.198 2.198 0 0 1-.4-.245l-.153-.214a1.308 1.308 0 0 1-.207-.137l-.029.037c-.09.109-.03-.055-.024-.088l-.268-.364c-.635-.868-1.332-1.841-1.9-2.62l-.018.032c-.013.024-.02.04-.013.048-1.351-1.942-2.622-4.287-2.975-6.558-.417-1.749-.254-3.551.11-5.171 1.559-5.674 6.666-18.513 13.37-24.016Zm36.665 78.465-.085-.075.075.093a.631.631 0 0 0 .144.136.105.105 0 0 1-.003-.047 2.943 2.943 0 0 1-.131-.107Zm11.857-87.6c-9.91-.853-19.658 1.33-29.114 3.975l-.653.187c-5.377 1.535-11.063 2.916-15.607 6.202-6.349 4.864-9.627 12.603-12.488 19.748-2.498 5.309-1.221 11.295 2.543 15.002.392-3.684 1.06-7.26 2.104-10.807.217-.554.053-.735.522-.808.71 9.56-2.783 16.622 4.128 27.951 2.998 5.345-.473 9.256 7.995 12.069l.229.088c1.764.666 3.69 1.191 5.418.819l-.155-.252c-.157-.259-.205-.385.024-.496-.006-.013-.014-.025-.023-.04a29.452 29.452 0 0 1-.537-1.065c-.069.023-.139.04-.211.059.047.086.053.173-.078.203a3.691 3.691 0 0 1-1.433.193l-.105-.007a4.825 4.825 0 0 1-1.213-.229c-.103-.017-.207-.033-.308-.055-1.003-.222-2.064-.788-2.75-1.348-7.83-4.449-7.02-19.592 2.63-21.023.197-9.535 4.731-25.62 12.254-34.705 6.8-8.357 25.365-11.98 38.281-10.702.188.062.377.125.565.189 1.993.177 3.892 1.065 5.886 1.477-1.432-1.073-3.056-1.788-4.729-2.396-3.334-2.04-7.155-3.143-10.847-3.921a10.674 10.674 0 0 0-2.328-.309ZM98.148 109.94c.519-.282.46-.009.579-.088 3.732-.305 7.756 2.964 9.842 5.689-.164.171-.61-.336-.688-.416a.1.1 0 0 1-.036.023l.058.082c.846 1.214-.831-.215-.988-.509a.124.124 0 0 1-.086.017c.133.13.538.47.608.712l.108.09c1.014.869.93 1.523-.222.288.027.058.038.11.019.153l.04.026c.566.396 1.032 1.5-.152.367.123.827-1.173-.772-1.215-.761-2.243-1.762-5.546-3.475-8.36-3.705l-.096-.011c-.517-.067-.76-.22-.58-.558-.636-.151-.487-.464-.186-.454-.448-.295-.044-.577.216-.467-.179-.496.539-.166.604-.235.373-.574.473-.095.535-.243Zm-7.823-30.72c1.792-.656 7.087 1.31 6.663 3.914-.252.598-1.083.94-1.667.603l-.763-.512c-1.326-.889-2.523-1.668-3.948-2.444-.775-.385-1.109-1.202-.285-1.56Zm10.198-3.87-.692-.45c-3.736-2.446-9.017-6.153.349-2.318 1.068.458 2.486.729 3.069 1.746.915 1.874-1.493 2-2.726 1.022Zm.42-10.975c-.3-1.138 3.431.198 4.517.55l.165.062c1.056.394 2.267.76 2.899 1.671.74 1.26-.758 1.521-1.686.952-1.903-1.244-3.989-2.182-5.895-3.235Zm9.486-5.301c-2.099-2.294 3.52-.097 4.362.513l.024.018c.628.442.501 1.395-.089 1.675-1.679.032-2.915-1.368-4.297-2.206Zm9.555-2.514c-3.338-2.4 1.059-1.258 2.587-.318 1.041.919-.032 2.469-2.587.318Z" clip-rule="evenodd"></path><path fill="#000" fill-rule="evenodd" d="M131.904 116.766c3.622-.44 7.132.669 10.673 1.229 1.869.295 3.74.515 5.632.597.381.016.761.026 1.142.034.035-.335.223-.643.63-.828.833-.377 1.499-.548 2.414-.511.838.033 1.678.119 2.502.27 1.498.274 3.001.898 4.097 1.98 2.534 2.505 2.148 6.529.19 9.258-4.046 5.638-11.431 5.9-17.756 5.826l-.584-.007c-5.759-.083-13.998.776-16.615-5.778a9.213 9.213 0 0 1 .35-7.517c1.405-2.757 4.363-4.193 7.325-4.553Zm17.989 9.388-.051.002c-2.656.102-5.31.174-7.967.221.08.683.161 1.365.253 2.047.073.535.151 1.071.232 1.605.035.227.161.578.125.803l-.013.088c.137.062.26.161.353.306.032.05.055.1.078.15 2.063.016 4.282-.024 6.385-.399l.004-.046a.872.872 0 0 1 .298-.573c.148-.857.135-1.77.192-2.62.035-.529.074-1.056.111-1.584Zm-10.047.259c-1.914.033-3.829.058-5.742.035l-.869-.014c.184.985.384 1.966.549 2.957.174 1.033-.735 1.69-1.522 1.663a8.1 8.1 0 0 0 .265.042c2.457.348 5.009.255 7.503.253-.134-.784-.08-1.668-.1-2.322l-.004-.101a91.668 91.668 0 0 1-.08-2.513Zm-13-.18c.067.512.196 1.013.389 1.479.817 1.971 2.69 2.891 4.672 3.278-.344-.119-.617-.404-.686-.893-.172-1.215-.234-2.451-.238-3.685-1.381-.013-2.772-.042-4.137-.179Zm30.249-.421c-.983.232-2.126.126-3.09.17-.904.041-1.808.076-2.712.113.043.617.084 1.234.129 1.851.058.797.064 1.64.217 2.434 1.818-.621 3.448-1.617 4.671-3.209.305-.397.577-.863.785-1.359Zm-25.606-5.813c-1.637.388-3.186 1.207-4.019 2.705-.494.89-.711 1.943-.67 2.982 1.384-.161 2.791-.222 4.191-.273.005-.252.011-.504.019-.756l.021-.644c.038-1.23.058-2.773.458-4.014Zm8.471.15-.72-.081c-2.001-.228-4.002-.467-6.003-.33-.29.02-.584.052-.879.095.354 1.277.324 2.777.472 4.041.057.489.129.973.209 1.456l.348-.016c2.147-.116 4.297-.188 6.446-.273 0-.404.002-.808.009-1.212l.007-.404c.025-1.032-.042-2.195.111-3.276Zm10.051-.164c-2.096.339-4.263.411-6.322.413a27.507 27.507 0 0 1-2.466-.122c.054.438.082.88.122 1.312.081.872.174 1.743.275 2.612l.09.761c2.641-.119 5.283-.249 7.924-.383l.373-.02.104-1.463c.071-.975.149-1.95.26-2.921l-.083-.03a1.323 1.323 0 0 1-.277-.159Zm.91.364c.115 1.379.179 2.764.264 4.145l1.741-.093.871-.049c1.128-.065 2.578-.407 3.693-.088.085-1.014-.204-2.002-1.12-2.684-1.606-1.197-3.652-.771-5.449-1.231Zm-5.949-12.329c2.593-1.486 9.098-3.004 9.51 1.664.19 2.148-1.407 3.928-3.271 4.722l-.07.029c-1.748.719-4.846 1.531-6.359-.028-1.26-1.298.411-3.625 1.975-2.561.804.546 2.497.143 3.394-.117l.056-.016c.968-.285 2.259-1.196 1.859-2.388-.354-1.055-1.862-1.248-2.806-1.282-1.409-.051-2.781.276-4.178.383-.221.017-.289-.304-.11-.406Zm10.739-7.506c3.519-.165 5.708 3.679 4.899 6.828-.14.544-.747 1.077-1.334 1.016l-.148-.014a1.283 1.283 0 0 1-.219-.035c-.557-.155-1.057-.734-1.016-1.335l.011-.175c.082-1.488-.079-3.202-1.847-3.562-1.499-.306-2.335 1.138-2.353 2.466-.004.236-.268.401-.477.274-1.084-.66-1.271-1.972-.857-3.102.524-1.432 1.837-2.291 3.341-2.361Zm-26.112.824c2.561-.854 5.323.511 6.563 2.776.435.126.87.462.809.975-.087.739-.219 1.205-.731 1.765-.801.877-2.301.428-2.634-.651l-.014-.048c-.378-1.395-1.913-2.315-3.311-1.827-1.633.57-1.585 2.296-2.731 3.301a.395.395 0 0 1-.457.059c-1.217-.588-.998-2.359-.565-3.372.569-1.329 1.675-2.512 3.071-2.978Zm-3.488-7.779c2.075-2.118 7.486-4.168 8.906-.256.27.745-.306 1.75-1.081 1.904-1.27.253-2.396-.299-3.657-.2-1.022.08-2.087.422-2.903 1.055-2.261 1.752-2.758 4.717-4.334 6.947-.076.109-.225.063-.239-.065-.359-3.247 1.035-7.065 3.308-9.385Zm27.062-2.085c1.377-.487 2.937-.445 4.321-.013a8.402 8.402 0 0 1 3.661 2.34c.447.49.861 1.03 1.193 1.606.177.305.362.935.563 1.31 1.084.627 1.548 2.054.577 3.07l-.044.044-.13.13c-.522.516-1.309.74-2.022.534-1.594-.462-1.788-1.718-2.34-3.052a5.466 5.466 0 0 0-1.747-2.233c-1.79-1.352-4.725-1.783-6.88-1.146-.115.034-.25-.112-.168-.218.408-.53.644-.964 1.19-1.39a6.36 6.36 0 0 1 1.826-.982Z" clip-rule="evenodd"></path><path fill="#000" fill-rule="evenodd" d="M129.449 129.599c1.71-4.009 5.444-6.955 9.742-8.033 3.156-.788 6.469-.763 9.686-.45 1.686.163 3.494.296 5.083.923 1.357.535 2.462 1.546 3.294 2.733.989 1.407 1.662 3.017 2.135 4.667.067.235.13.471.189.709-.206 1.245-.642 2.305-1.795 3.088-1.125.764-2.467 1.077-3.805 1.188a6.217 6.217 0 0 1-.375-.194c-2.085-1.195-3.552-4.017-6.184-3.635-2.349.341-3.895 3.298-5.292 5.031-4.483.523-8.963-.825-12.611-3.39a7.426 7.426 0 0 1-.067-2.637m33.176-3.041a17.37 17.37 0 0 0-1.346-2.901 16.498 16.498 0 0 0-7.714-6.843c-7.631-3.268-17.505-.964-23.668 4.397-2.105 1.833-4.234 4.526-4.878 7.423a1.075 1.075 0 0 0-.523.279c-4.453-2.805-9.038-5.503-12.626-9.39-2.606-2.825-4.418-6.168-5.528-9.841-.091-.302-.578-.258-.563.077l.012.234c-.046-.144-.265-.07-.282.07-.597 4.462-1.344 9.193-.656 13.679.411 2.676 1.626 4.635 3.251 6.751 1.741 2.268 3.711 4.377 5.726 6.4 1.279 1.284 2.614 2.765 4.18 3.707 1.821 1.094 3.886 1.925 5.829 2.769a75.6 75.6 0 0 0 6.028 2.347c4.087 1.384 8.311 2.34 12.609 2.759 3.441.334 7.374.698 10.672-.597 2.527-.992 4.567-2.786 6.186-4.944 1.761-2.351 3.154-5.029 3.924-7.852.8-2.933-.465-8.052-.633-8.524" clip-rule="evenodd"></path><path fill="#000" fill-rule="evenodd" d="M170.723 102.353c-2.014 13.63-16.075 15.137-18.573 1.606.401-.175.689-.521.629-1.192-.014-2.95.901-6.066 3.56-7.706 2.748-1.692 5.963-1.86 9.143-1.817 6.068-.144 5.941 4.93 5.241 9.109m-20.774-5.928c-1.905-.08-4.314-.013-6.02 1.148-.469-1.263-1.687-2.612-2.919-3.334 4.577.134 9.288-.316 13.898-.666a8.79 8.79 0 0 0-2.798 3.19c-.619-.33-1.506-.3-2.161-.338m-8.394 7.373c-5.281 18.184-18.462 10.258-19.899 7.928-2.592-3.856-3.08-13.23-.822-15.737 3.232-2.267 7.807-1.683 11.625-1.739 7.015.095 11.996 2.194 9.096 9.548m35.403-8.363c-1.434-.188-2.968-.226-4.301.406-.411-1.746-1.701-3.206-3.156-3.849-.177-.22-.15-.34-.752-.306-3.696-1.112-7.832-.524-11.384.616-5.61.472-11.495.845-17.152 1.496-5.299-2.38-21.29-2.73-22.284 3.138-1.25-.187-3.379-1.17-4.429.164-7.705-1.307-15.667.51-23.406 1.318-1.947.36-2.95 4.227-.74 4.174 1.243-.338-.038-2.408 1.636-2.564 7.466-.816 14.769-1.973 22.312-2.109-.262 1.303 4.989 1.388 5.067.627.011.006.023.01.034.015-1.297 4.837-.126 11.8 2.219 14.8 3.286 3.928 11.535 5.055 15.192 2.527 4.718-2.332 9.627-14.041 8.248-17.932 2.502-.793 4.976-.555 7.573-.15-.595 1.68-1.621 5.815-.144 6.174-.271 8.211 7.198 13.334 14.084 9.966 5.961-2.799 8.045-11.659 7.316-17.036.742 1.434 6.971-.127 4.067-1.475" clip-rule="evenodd"></path></svg>