<svg xmlns="http://www.w3.org/2000/svg" width="434" height="550" fill="none" id="sitting-woman"><path fill="#fff" fill-rule="evenodd" d="M91.597 371.475c-5.09 12.695-11.183 27.105-16.79 39.471.45 3.918 2.135 7.924.816 11.848 5.81-3.773 12.343-6.142 19.01-7.933l.375 2.508c.743-.024 2.08-.037 2.832-.047a104.82 104.82 0 0 1-.348-3.781l-.002.001c-.93-10.805.807-21.867 2.929-32.427.518-3.81-.746-9.729-5.555-9.827-.715.109-1.893-1.822-2.327-2.196l-.94 2.383Zm67.267 146.039c-24.233 1.356-38.089-18.44-49.805-36.962-1.234.816-2.6 1.729-3.846 2.466-1.916 3.074-5.817 4.006-9.184 4.347-12.003.613-14.574-10.148-17.554-19.405-.568.397-1.837 2.421-2.791 1.977-5.39-1.193-10.638-2.619-16.352-2.263-6.559-1.398-40.545 13.548-37.408.514 1.532-5.668 9.963-8.354 14.306-12.266 6.315-7.174 4.777-16.402 7.794-24.944 2.508-8.57 5.439-16.643 10.862-24.52.49-29.443 1.594-65.479 9.228-91.664 4.868-18.376 10.898-37.375 8.58-56.658l-1.317-.036c-.575-.325-1.46-.571-2.167-.463-.596-.658-1.701-.458-2.511-.724-1.46-13.62-2.023-25.277-.17-37.633 1.72-20.402 14.616-28.747 33.45-33.191 20.699-6.778 34.743-13.686 45.467-30.542 2.029-3.42 3.261-7.47 5.964-10.354 6.71-8.479 26.008-7.082 30.992 1.847 2.177 5.223 2.364 11.319 4.019 16.748 6.509 23.063 36.445 20.346 52.293 32.956 6.977 5.166 9.225 13.14 10.129 21.258 1.14 10.208 3.317 20.037 3.038 30.183.728.138 2.394-.38 2.677.662-.663 2.192-9.162 2.184-11.532 2.572 3.118 16.482.29 33.032 2.796 49.566 3.862 18.577 11.462 35.829 17.43 53.775 2.297 5.931 3.835 12.289 7.252 17.69l-.061.048a34.82 34.82 0 0 0 1.748 2.606c.633.228 1.293.599 1.918.827l.139-.234.337.453.992-.418a95.992 95.992 0 0 1 4.592 2.454c19.097 11.57 31.594 23.31 46.566 37.848l-1.987 1.609c.723 1.005 1.599 2.335 2.302 3.394.586-.517 1.838-1.387 2.559-1.686 12.766 15.151 14.327 41.415 8.109 57.381-1.977 4.785-5.106 8.712-8.885 12.021-1.56 2.342-4.365 5.577-7.949 7.13l-.467.66c-.191.026-1.365.295-1.433.568-9.54 1.606-19.106 5.798-28.991 5.858-16.123-.14-29.977-13.209-42.909-21.84-8.18-5.825-17.711-9.826-26.544-13.72.658 3.357.471 4.509-3.185 5.778-3.256 1.294-7.174.282-10.203-1.139.079 5.564.523 11.121.37 17.055-.001 7.184.239 16.016-7.515 19.333-13.202 5.192-28.119 8.922-41.143 9.078Z" clip-rule="evenodd"></path><path fill="#000" fill-rule="evenodd" d="M326.998 418.965a71.68 71.68 0 0 0-1.411-2.052c.57.618 1.132 1.245 1.678 1.88a1.645 1.645 0 0 0-.267.172m-53.124-44.446a1.328 1.328 0 0 0-.306-.172c-.266-.11-.533-.225-.8-.335a31.438 31.438 0 0 1-1.423-2.149c.928.968 1.869 1.908 2.885 2.789-.118-.044-.238-.087-.356-.133m-8.744-3.736a634.812 634.812 0 0 0-13.065-6.74 1.25 1.25 0 0 0-1.054-.059c-1.88-.965-3.77-1.918-5.681-2.822-1.162-.548-2.334-1.065-3.501-1.587a3.109 3.109 0 0 1-.241-.42c-.7-1.493-.036-3.347.415-4.814.116-.369.067-.689-.079-.94.246-2.143.154-4.3-.27-6.243-1.005-4.63-3.49-8.85-5.855-12.898-2.429-4.156-4.558-8.33-5.935-12.957-2.767-9.288-2.98-19.011-2.78-28.621.22-10.675.838-21.348 1.267-32.016.128-3.18.254-6.36.356-9.543.249.148.449.302.821.412.605.177 1.223.323 1.836.466 1.224.287 2.465.487 3.709.658a46.317 46.317 0 0 0 7.897.412c-1.364 6.912-1.277 14.23-1.403 21.216-.149 8.078-.544 16.237.357 24.287.879 7.869 3.208 15.382 5.75 22.852 2.616 7.687 5.309 15.351 7.851 23.061 1.434 4.351 2.872 8.701 4.314 13.049.692 2.095 1.387 4.189 2.08 6.282.759 2.291 1.139 4.988 3.062 6.591.213.176.452.312.708.407.044.089.085.177.131.266-.231-.1-.459-.2-.69-.299m-28.648-17.218c-.302 1.416-.815 2.816-1.515 3.905a.906.906 0 0 1-.088.386c-.697 1.519-2.364 2.402-3.806 3.086-1.736.825-3.529 1.534-5.281 2.328a44.815 44.815 0 0 1-8.063 2.765c-.052.021-.103.044-.157.064-4.486 1.798-9.079 3.316-13.737 4.609-9.438 2.625-19.126 4.302-28.857 5.398-9.425 1.06-18.92 1.667-28.4 1.954-8.604.264-17.345.074-25.83-1.495-6.076-1.125-12.047-2.984-17.522-5.808-.442-.691-1.06-1.283-1.578-1.931.064-1.042-.567-2.204-1.521-2.573a14.017 14.017 0 0 1-.864-2.556c.223-2.151.523-4.291.962-6.442.864-4.215 1.993-8.371 3.126-12.519 2.365-8.658 4.255-17.287 4.571-26.288.32-9.116-.598-18.201-1.855-27.217-1.274-9.155-2.806-18.276-4.45-27.369-.933-5.17-1.833-10.35-2.82-15.512-.999-5.222-1.786-10.545-3.086-15.702-.041-.167-.313-.136-.305.043.179 4.635.82 9.28 1.269 13.897.316 3.239.657 6.473 1.003 9.707-.703-.161-1.462-.066-2.283-.051-1.346.028-2.693.013-4.04.021-2.69.01-5.383.023-8.076.036-4.63.02-9.277.089-13.899.422-.284-.069-.572-.138-.861-.225-1.106-.333-1.46-1.122-1.532-2.226-.187-2.77.21-5.643.26-8.424.05-2.955.033-5.91-.06-8.863-.058-1.933.131-4.304-.987-5.984.108-1.531.239-3.062.4-4.589.605-5.73 1.64-11.487 3.416-16.979 1.285-3.969 3.394-7.611 6.425-10.504 5.948-5.669 14.173-7.913 21.858-10.161 9.287-2.719 18.541-6.069 26.915-10.975-.103.223-.039.515.264.576.487.1.846.364 1.113.725.118.599.292 1.191.528 1.769.049.118.111.223.18.315.118.863.131 1.747.192 2.369.205 2.11.587 4.171 1.167 6.21a39.636 39.636 0 0 0 5.412 11.556c4.852 7.052 12.098 12.437 20.421 14.614 8.402 2.194 17.72 1.275 25.273-3.119 6.987-4.064 12.401-10.791 13.986-18.79.844-4.251.708-8.579-.087-12.824a59.125 59.125 0 0 0-.428-2.085c5.327 4.571 12.159 7.375 18.751 9.539 7.046 2.312 14.268 4.212 20.688 8.045 2.957 1.765 5.763 3.962 7.817 6.755 2.55 3.468 3.65 7.503 4.34 11.698.926 5.633 1.6 11.318 2.236 16.99.318 2.852.613 5.71.883 8.568.141 1.513.277 3.026.402 4.542.093 1.07.195 1.923.544 2.735-2.016.538-4.057.942-6.114 1.306-2.429.433-4.902.684-7.364.835a88.154 88.154 0 0 1-3.814.123c-.633.01-1.267-.006-1.9 0-.362.002-.657.099-.972.163.282-9.005.374-18.019-.172-27.012-.013-.228-.382-.31-.423-.056-1.806 10.575-2.76 21.307-3.494 32.003-.72 10.488-1.477 20.977-2.113 31.473-.582 9.643-.8 19.382.849 28.941a59.204 59.204 0 0 0 4.019 13.535c1.857 4.284 4.481 8.156 6.617 12.297 1.955 3.792 3.342 7.925 2.467 11.976m-13.386 97.293c-3.811-1.104-7.408-2.688-10.958-4.448-3.425-1.698-7.056-3.506-9.959-6.012-.062-.054.004-.168.082-.141 3.579 1.276 6.971 3.17 10.457 4.695 3.622 1.585 7.326 2.972 10.961 4.524.805.344.217 1.614-.583 1.382m-7.63 18.689c-.936.63-1.965 1.201-3.032 1.573-1.449.509-2.916.64-4.375.492-.218-2.625-.485-5.25-.806-7.867 3.286 1.654 6.723 3.029 10.154 4.407-.679.407-1.264.937-1.941 1.395m-13.46-13.523c-.098 1.061-1.514 1.037-1.635 0-.55-4.692-.825-9.424-1.297-14.126a193.664 193.664 0 0 0-4.125-24.703 175.72 175.72 0 0 0-1.537-6.157c-.288-1.059-1.265-2.919-.607-4.001.809-1.333 1.927.552 1.064.66-.088.01-.088-.115-.02-.142-.671.267-.205.87-.028 1.347.169.459.343.917.512 1.377.337.918.665 1.84.984 2.764a108.965 108.965 0 0 1 1.915 6.054c1.122 3.987 2.109 8.022 2.867 12.094 1.514 8.12 2.671 16.565 1.907 24.833m-96.662 24.163a2.773 2.773 0 0 0-1.768-.264c-1.892.376-2.644 1.47-4.267 2.292-.955.484-2.604.886-3.604.947-1.665.1-2.626-.015-4.152-.499-1.111-.353-2.322-1.009-3.147-1.769-2.199-2.021-3.283-4.817-4.245-7.657-1.06-3.132-1.97-6.371-3.601-9.267-.82-1.454-1.862-2.86-3.104-3.984-1.18-1.068-3.08-1.844-3.883-3.26-.828-1.46-.897-3.575-1.144-5.216a64.509 64.509 0 0 1-.543-4.963c-.46-6.458-.029-13.54 3.572-19.138 4.522-7.024 12.709-9.062 20.298-11.029a85.63 85.63 0 0 0 .42 3.618c.203 1.475.45 2.945.734 4.407-1.367 1.091-2.57 2.484-3.408 3.503-2.04 2.482-3.56 5.311-4.61 8.343a25.667 25.667 0 0 0-1.417 9.111 17.798 17.798 0 0 0 1.151 5.8c-.536.929-.636 2.13-.013 3.039l16.705 24.357c.256.374.513.75.769 1.127-.251.159-.497.328-.743.502m-9.626-64.219c-.388.005-.775.016-1.165.026l1.14-.315c.007.097.014.192.025.289m-.224-2.891c-3.45.942-6.894 1.913-10.236 3.191-1.954.747-4.26 1.551-6.214 2.732-.577.274-1.14.571-1.688.896a3.087 3.087 0 0 0-.023-1.262c-.451-2.016-.787-4.054-1.164-6.085-.041-.217-.09-.658-.172-1.165.37-.668.646-1.395.959-2.12.57-1.313 1.139-2.63 1.71-3.943l3.217-7.426c2.198-5.073 4.386-10.158 6.494-15.269 1.429-3.468 2.86-6.937 4.237-10.427.382.448.975.755 1.78.786 3.886.138 4.401 5.269 4.08 8.12-.243 2.168-.825 4.301-1.233 6.445a124.64 124.64 0 0 0-1.057 6.596 97.56 97.56 0 0 0-.69 18.931m-32.527 50.996c-4.706-.274-9.446.177-14.042 1.211-4.442.999-8.759 2.492-13.206 3.485-2.168.484-4.36.817-6.587.868a24.12 24.12 0 0 1-3.213-.125c-.134-.016-.303-.062-.475-.105.305-.935.852-1.721 1.634-2.507 1.087-1.093 2.003-1.698 3.355-2.563 2.721-1.742 5.555-3.319 7.81-5.675 2.885-3.019 4.252-6.89 4.965-10.934.764-4.332 1.257-8.711 1.99-13.049.603-3.582 1.295-7.165 2.144-10.703.996-3.117 2.293-6.133 3.768-9.068 1.131-2.248 2.383-4.425 3.604-6.622 1.02.945 2.544.771 3.408-.45.4-.566.875-1.114 1.062-1.795.18-.648.12-1.396.126-2.059l.03-3.744c.024-2.578.052-5.159.088-7.738.069-4.993.172-9.987.34-14.98.342-10.04.888-20.076 2.022-30.062 2.224-19.607 7.871-38.597 10.305-58.171.3-2.407.562-4.842.754-7.295a97.648 97.648 0 0 0 .529-22.746c8.266-.072 16.53.343 24.75 1.242.993 9.22 2.126 18.416 3.298 27.611 1.149 8.996 2.134 18.068 2.029 27.148-.051 4.469-.356 8.947-1.092 13.357-.711 4.261-1.791 8.447-2.94 12.608-1.154 4.172-2.395 8.323-3.413 12.53-1.544 3.866-3.224 7.677-4.953 11.464-4.36 9.554-8.87 19.036-13.14 28.631-1.23 2.77-2.449 5.546-3.675 8.319l-1.839 4.161c-.69 1.562-1.582 3.086-1.575 4.832.005 1.042.626 1.798 1.434 2.133-.344 2.015-.457 4.059-.48 6.102-.012 1.219.79 2.223 1.852 2.615-.002.264-.01.525-.023.788a.605.605 0 0 1-.046.044c-5.573 5.628-7.09 13.789-7.043 21.422.023 3.993.43 8.018 1.113 11.949.418 2.412 1.472 4.401 3.406 5.927 1.367 1.078 2.922 2.121 3.812 3.432.182.271.354.545.518.824-3.822-1.6-8.385-2.079-12.404-2.312m63.457-287.009a8.559 8.559 0 0 0 0 .555 2.736 2.736 0 0 0-.752-.097c.254-.148.5-.307.752-.458m215.328 271.327c-.613-5.628-1.539-11.292-3.548-16.608-1.846-4.888-4.609-9.301-7.899-13.344-3.311-4.069-7.107-7.71-10.993-11.226a634.624 634.624 0 0 0-12.447-10.962c-8.256-7.088-16.869-13.874-26.351-19.241a.044.044 0 0 0-.01-.015c-.015-.008-.031-.013-.049-.021-1.541-.87-3.106-1.71-4.696-2.501a1.253 1.253 0 0 0-1.075-.046c-.007-.011-.012-.023-.023-.031-1.136-1.063-2.331-2.01-3.567-2.953a29.773 29.773 0 0 1-2.534-5.528 1.306 1.306 0 0 0-.288-.474c-.256-.701-.543-1.398-.797-2.097-.693-1.918-1.37-3.841-2.055-5.761-1.369-3.841-2.736-7.685-4.111-11.523-2.747-7.675-5.386-15.387-8.048-23.093-2.501-7.236-5.066-14.503-6.335-22.075-1.316-7.836-1.016-15.899-1.121-23.812-.059-4.568-.087-9.149-.323-13.709-.18-3.488-.411-6.965-1.044-10.384a54.928 54.928 0 0 0 5.332-.673c1.942-.338 5.997-.584 5.912-3.355-.033-1.045-.834-1.772-1.803-2.038a2.575 2.575 0 0 0-.685-.092c.205-1.747-.223-3.642-.39-5.367a464.906 464.906 0 0 0-.818-7.816 497.008 497.008 0 0 0-2.034-15.704c-.69-4.742-1.395-9.513-3.616-13.828-1.688-3.28-4.194-6.135-7.082-8.414-12.008-9.477-28.251-9.713-40.875-17.963-3.265-2.136-6.186-4.806-8.297-8.105-1.206-1.887-2.013-3.92-2.588-6.079-.372-1.393-.721-2.755-1.167-4.125-.439-1.339-.562-2.438-1.39-3.618-.09-.128-.282-.082-.292.077-.08 1.219.141 2.289.202 3.503.062 1.265.021 2.512.149 3.784.031.321.069.641.108.958-.044.077-.08.161-.108.254-.587 1.869-.267 3.894.731 5.51-.013.169 0 .341.046.512.503 1.867 1.416 3.593 2.098 5.403a43.928 43.928 0 0 1 1.621 5.262c.803 3.373 1.116 6.84.78 10.297-.724 7.41-5.127 13.725-11.293 17.748-6.846 4.466-15.527 5.577-23.407 3.641-8.035-1.974-14.68-7.095-19.374-13.807a41.19 41.19 0 0 1-5.848-12.289c-.477-1.677-.759-3.439-1.216-5.129.447-.243.716-.722.457-1.352-.677-1.649-.785-3.275-.285-4.965 4.558-3.083 8.792-6.688 12.401-10.842 3.588-4.13 7.307-9.146 8.856-14.452.608-2.084-2.523-3.477-3.56-1.498-1.133 2.164-2.062 4.394-3.3 6.509a44.823 44.823 0 0 1-4.245 6.051c-3.139 3.78-6.789 7.155-10.775 10.033-8.887 6.417-19.159 10.539-29.575 13.763-8.066 2.497-16.504 4.674-23.2 10.082-7.385 5.963-9.927 15.341-11.314 24.344-.588 3.808-.929 7.638-1.083 11.482-.161.307-.2.668-.036 1.006-.228 7.211.188 14.453.878 21.633-.003.76.054 1.51.223 2.222.082.792.167 1.583.254 2.372.02.199.118.335.308.404a8.055 8.055 0 0 0 2.192.466c.126.044.254.082.383.118.205.264.528.44.972.428.254-.008.507-.013.759-.021.29.082.572.182.838.323.2.105.398.151.585.156.323 3.664.436 7.339.341 11.003a112.29 112.29 0 0 1-1.93 15.441c-1.87 9.546-4.587 18.923-7.067 28.323-5.12 19.387-7.487 39.219-8.402 59.218-.26 5.652-.382 11.313-.475 16.97-.046 2.747-.08 5.492-.107 8.24l-.039 4.243c-.008.661-.054 1.337-.01 1.995.01.164.033.315.061.463a.107.107 0 0 0-.007.018c-2.683 3.649-4.727 7.859-6.517 11.999-1.832 4.231-3.389 8.579-4.592 13.029-1.205 4.458-2.08 8.96-2.92 13.497-.704 3.782-1.52 7.974-4.443 10.73-2.208 2.079-5.286 3.48-7.894 5.167-2.976 1.926-5.64 4.279-6.813 7.72-.815 2.387-.42 5.124 1.996 6.374 2.08 1.075 5.03.993 7.315.888 4.83-.225 9.528-1.531 14.155-2.842 5.086-1.442 10.126-2.758 15.44-2.901 2.662-.072 5.353.054 7.984.469 2.734.427 5.356 1.339 8.077 1.774.905.148 1.81-.044 2.413-.658 1.731 4.886 2.724 10.209 6.692 13.976 3.052 2.893 7.391 4.371 11.58 4.128a16.864 16.864 0 0 0 6.44-1.672c.975-.474 1.854-1.086 2.698-1.765.518-.415.88-.863 1.131-1.359a67.098 67.098 0 0 0 2.247-1.427c4.178 6.202 8.331 12.455 12.996 18.286 5.278 6.596 11.652 11.992 19.595 15.07 7.405 2.867 15.597 3.433 23.453 2.765 8.289-.707 16.435-2.589 24.383-4.991 3.883-1.172 7.915-2.256 11.598-3.979 3.932-1.839 6.653-5.075 7.577-9.336.908-4.189.8-8.668.831-12.931.03-4.4-.077-8.809-.375-13.198-.002-.013-.002-.023-.002-.036 1.446.584 3.018.894 4.57.973 1.559.079 3.18-.118 4.642-.676 1.744-.663 4.155-1.757 4.473-3.828.049-.302.052-.622.013-.937 1.062.448 2.119.909 3.16 1.393 3.263 1.51 6.515 3.052 9.716 4.688 1.6.817 3.172 1.716 4.798 2.481.436.205.875.433 1.319.664a234.396 234.396 0 0 1 4.816 3.3c4.512 3.173 8.969 6.42 13.501 9.559 4.661 3.229 9.411 6.417 14.579 8.784 5.304 2.43 10.941 3.976 16.817 3.758 6.271-.23 12.383-1.999 18.421-3.554 3.016-.773 6.032-1.549 9.048-2.325.421.187.931.159 1.357-.258l.123-.123c.434-.11.867-.223 1.3-.333.19-.261.375-.528.562-.791 3.316-1.562 6.094-4.372 8.202-7.488.159-.136.321-.266.477-.404 3.73-3.268 6.612-7.321 8.549-11.877 3.87-9.106 4.086-19.402 3.032-29.102" clip-rule="evenodd"></path><path fill="#fff" fill-rule="evenodd" d="M215.815 112.693c-.951-15.575-6.012-33.234-20.908-40.88-32.839-13.161-76.016 19.98-78.302 53.838-.797 11.589 5.647 24.253 17.423 27.475 2.618 3.464 6.578 5.579 10.486 7.415 46.548 24.116 76.615 4.513 71.301-47.848Z" clip-rule="evenodd"></path><path fill="#000" fill-rule="evenodd" d="M226.419 103.005a359.746 359.746 0 0 0-5.211-13.582c-1.78-4.372-3.388-8.839-5.599-13.003-13.205-24.875-37.218-24.875-49.631-21.625-6.437-2.77-18.493-1.988-25.196.51-10.851 4.047-24.078 19.961-28.6 27.112-9.985 15.787-16.217 36.8-9.584 55.043.867 2.385 1.972 4.593 3.217 6.721-.784 1.061-1.686 2.066-2.686 3.054-2.971 2.935-5.942 5.774-8.509 9.084-2.55 3.29-4.665 6.789-6.239 10.646-2.968 7.275-3.11 15.512.813 22.453 3.414 6.04 9.462 10.537 16.275 10.966.35.049.7.094 1.052.129a19.693 19.693 0 0 0 3.26 4.044c3.849 3.656 13.024 5.531 18.258 5.651.268.216.539.431.81.644 3.202 2.516 6.562 5.055 10.238 6.846 2.49 1.214 5.755 2.228 8.353 1.352 1.178.786 3.112.621 4.28-.023 1.921-1.056 3.483-2.959 4.434-4.907 2.304-4.73 1.75-9.906 1.158-14.959-.652-5.582-1.279-11.166-1.916-16.747-.499-4.365-1.02-8.802-2.349-13.006-.687-2.178-1.587-4.272-2.751-6.24.03-.165.025-.33-.023-.486-.381-1.237-1.168-1.885-2.101-2.726-.12-.108-.241-.218-.359-.331a11.239 11.239 0 0 0-1.499-1.442 60.518 60.518 0 0 1-.612-.629c-1.688-1.765-3.282-3.621-4.699-5.609-1.374-1.928-2.616-3.941-3.797-5.992-1.201-2.086-1.996-4.387-3.194-6.458a.33.33 0 0 0-.509-.065c-.371.383-.61.809-.565 1.257l-.185.028c-.07-.676-.695-1.227-1.542-1.079-1.269.22-2.312.303-3.411-.118.193-1.28.372-2.562.547-3.846.321-2.364.619-4.735.875-7.107.62.148 1.234.361 1.836.631a8.864 8.864 0 0 1 2.359 1.533c.682.626 1.154 1.47 1.986 1.905.958.499 2.114-.325 1.833-1.407-.569-2.186-3.791-3.438-5.785-3.851a9.217 9.217 0 0 0-2.083-.188 162.867 162.867 0 0 0 .566-6.736c1.55-.468 3.21-.608 4.822-.388.532.424 1.064.842 1.578 1.265a320.801 320.801 0 0 1 4.862 4.081l.434.371c.953.819 2.141.007 1.981-1.152-1.309-9.5 4.518-17.057 11.342-22.911 7.552-6.483 21.284-7.238 30.266-18.467 4.137.84 13.373 3.337 17.185 9.402 5.336 8.499 4.639 16.113 5.045 25.754.406 9.648 1.439 19.711-.755 29.224-2.023 8.771-7.503 16.266-16.003 19.711-.211.086-.424.168-.637.248-4.396 1.655-9.193 2.124-13.817 1.252-5.118-.966-9.391-3.305-13.649-6.182-.246-.163-.604.173-.419.418 5.612 7.427 16.636 9.908 25.38 7.948.408-.093.815-.193 1.218-.303-1.956 5.616-1.562 11.781.986 17.25 1.532 3.29 3.869 6.137 6.715 8.383 3.137 2.474 7.029 4.472 9.206 7.945 1.993 3.183 1.401 6.759-2.012 8.597-.86.465-1.191 1.97-.338 2.631.326.251.652.506.985.757 1.911 1.439 7.16 4.144 8.01 4.244 7.548.894 12.623-4.64 15.875-11.168 3.819-7.662 2.826-17-1.381-24.296-3.376-5.855-10.023-11.624-7.38-19.033.943-2.647 2.871-4.903 4.744-6.941 2.137-2.322 4.433-4.495 6.482-6.899 2.036-2.386 3.842-4.983 4.85-7.978 1.472-4.377.74-9.109-.366-13.479-2.37-9.38-5.447-18.634-8.724-27.731Z" clip-rule="evenodd"></path><path fill="#000" fill-rule="evenodd" d="M184.141 151.974a10.205 10.205 0 0 1-4.29-3.295c-.382-.509-.481-1.046-.401-1.537.09-.553.417-1.053.864-1.389.448-.337 1.008-.503 1.549-.418.471.073.939.33 1.31.864l.077.107a6.762 6.762 0 0 0 2.476 2.074 5.583 5.583 0 0 0 3.065.539c2.062-.233 3.483-1.347 4.994-2.859.188-.191.375-.388.563-.588a.887.887 0 0 1 .467-.359 1.024 1.024 0 0 1 1.152.393c.115.17.181.38.16.621-.139 1.567-.959 2.966-2.125 4.064-1.294 1.22-3.01 2.064-4.626 2.36-1.78.326-3.593.092-5.235-.577Zm6.075-24.178c1.893 1.149 4.779 3.829 2.742 6.679-2.398 2.512-5.851-.369-7.552-1.671-1.577-1.01-3.35 1.587-1.886 2.766 12.293 9.088 17.282-7.474 7.654-9.125-1.061-.182-1.454.995-.958 1.351Zm-22.03-10.572c.21-2.593 4.165-3.182 4.558-.616.353 2.299-.062 4.41-1.099 6.48-.991 1.977-3.481 1.054-3.669-.746-.253-2.413.08-3.505.21-5.118Zm30.107-1.148c.552-.721 1.348-1.214 2.302-.935 2.98.869 2.102 5.094 1.055 7.151-.569 1.116-2.407 1.4-3.238.416-1.354-1.603-2.002-4.806-.281-6.385.047-.082.099-.164.162-.247Zm-26.69-10.199.471-.083c1.456-.251 3.267-.493 4.297.676.546.62.735 1.773 0 2.366-1.292 1.044-2.72.64-4.268.728a16.987 16.987 0 0 0-3.731.635c-2.697.769-4.893 2.174-7.196 3.717-.302.202-.611-.184-.467-.466 1.33-2.6 3.906-4.736 6.486-6.038 1.377-.694 2.884-1.271 4.408-1.535Zm23.974-1.165.36.074c3.921.818 9.016 2.453 10.873 6.299.07.544-.004.661-.065.737l-.02.025c-.051.065-.091.155-.327.229-.065-.016-.131-.032-.198-.05-.851-.223-1.525-.529-2.177-.848l-.707-.348c-.82-.401-1.647-.788-2.524-1.074a29.785 29.785 0 0 0-5.75-1.268c-.424-.049-.832-.192-1.154-.437a1.735 1.735 0 0 1-.645-.981c-.138-.553-.098-.972.199-1.471.224-.375.543-.635.911-.784.374-.152.8-.188 1.224-.103Z" clip-rule="evenodd"></path></svg>