<svg xmlns="http://www.w3.org/2000/svg" width="391" height="780" fill="none" id="stylish-man-with-cap"><path fill="#fff" fill-rule="evenodd" d="M264.805 331.677c-2.474-22.371-6.216-45.317-15.668-66.037-3.247-26.795 2.224-65.171-22.641-83.239.318-3.208-5.441-5.973-8.111-7.685-4.336-2.837-10.202-8.409-15.335-5.287-1.619-.494-5.613 1.526-7.451-2.854-1.883-4.487-1.61-13.484-3.111-14.305.662-6.484-28.531-10.822-36.15-1.657-3.618 7.029.538 9.266-7.62 18.507-3.602.221-7.039 1.132-10.361 2.382-2.743.379-5.472.84-8.188 1.319-34.647 3.202-37.266 28.797-40.337 56.284-2.63 36.923-14.05 73.707-9.112 110.921-2.73 13.307-2.909 27.506.35 40.686-10.684 15.578-2.94 24.199 3.724 39.011 1.128 2.665 2.11 5.409 2.608 8.252-.131 2.203-.117 4.408.271 6.595 1.131 4.981 9.45 4.285 9.82-.749.65-3.305.449-6.735.953-10.057-.029.173-.08.505-.08.531 1.22-8.36 3.186-11.601 8.618-17.98 6.974-10.066 2.685-22.714 4.277-33.979.436-3.765 1.013-7.479 1.399-11.25 2.352 1.38 4.908 2.532 7.579 3.252-1.683 12.964 1.244 25.988 4.499 38.528 8.808 32.302 20.486 65.471 15.414 99.369.002-.016-5.531 27.705-9.901 41.388-5.284 17.353-9.538 34.736-17.014 51.374-4.003 11.977-12.474 23.338-12.145 36.232-2.924 4.317 2.341 9.504 6.981 9.491 0 5.846-3.092 16.86-3.092 16.86-.485 4.084-2.578 9.283.586 12.751-4.301 10.933-5.811 22.763-6.992 34.333-.45 5.488-.968 12.103 4.919 15.216 5.484 2.368 11.869 1.326 17.725 2.032 5.666.008 11.529 1.491 17.101.211 6.4-1.82 7.689-8.739 6.484-14.272-.778-5.762-1.709-11.505-2.728-17.232-3.025-12.469-3.871-26.305-7.745-38.3 2.17-.406 4.348-1.498 5.821-3.089 3.741-.123 6.499-2.902 7.415-6.188.662-2.118 3.51-2.553 5.428-3.227.359 1.829 1.407 3.367 2.261 5.03-.729 3.532 1.704 7.661 5.72 7.743.581.556 1.12 1.124 1.712 1.655-4.567 6.71-7.954 14.285-8.813 22.276-1.033 6.129-2.115 15.95 6.014 17.765 3.069.404 6.371 1.188 9.378.072 3.353 1.502 6.917 2.222 10.527 2.864 15.471 2.606 30.392 2.387 45.992 4.137 4.116.572 20.606 2.261 23.351 0 3.348.684 1.324-1.808 2.732-4.137 1.122-1.748 4.118-5.097 2.184-6.068-4.057-1.747-7.654-5.185-11.366-7.136-17.348-9.855-54.767-26.637-54.507-27.109-.051.334.227-8.102 1.614-10.341 1.951-1.93 5.839-1.591 7.876-3.437 1.292.06 10.989-2.724 10.159-7.387-1.064-3.722 2.411-8.284 0-11.427 7.983-72.773 26.558-143.354 36.809-215.739.227-.199.451-.4.678-.599 5.286.883 9.393-4.415 10.998-8.588a28.647 28.647 0 0 0 2.199-2.465c4.308-5.591 4.385-12.872 4.875-19.523a4.415 4.415 0 0 0 1.809-3.431c.171-4.275.352-8.551.532-12.824.002 0 .002 0 .002-.002 1.327-2.126 1.507-4.518 1.129-6.954.139-7.881 1.356-15.263-2.055-22.513Z" clip-rule="evenodd"></path><path fill="#000" fill-rule="evenodd" d="M156.164 149.836c.079-.698 1.012-.687 1.101 0 .981 8.304-2.304 17.837-10.385 21.707 6.059 5.341 10.323 12.482 17.594 16.514 15.255 9.919 37.301.638 40.694-16.854-3.766-.862-10.781-.789-11.924-5.179-.553-.566-.837-5.409-.803-8.981-.035-.664-.056-1.329-.079-1.988a13.736 13.736 0 0 1-.068-1.628c.012-1.189 1.795-1.166 1.87 0 .031.478.052.962.071 1.448.013.129.031.257.047.385.245.889.415 1.819.615 2.663.108.455.22.914.339 1.373.172 1.203.48 2.378 1.007 3.491 1.402 2.958 4.858 5.499 8.264 5.526.73.006 1.456-.101 2.186-.083 1.189.031 2.161.501 3.222.98.959.432 1.859.725 2.783.723 38.136 12.908 32.885 60.159 38.693 92.106 5.921 31.726 18.15 62.313 19.95 94.736.54 3.363-3.181 4.61-5.489 6.201-.615 8.459 2.951 17.021.478 25.392-2.288 6.845-11.513 23.301-20.328 20.709-9.995 75.814-33.226 146.076-35.424 222.813 2.226 6.416-4.164 11.074-10.057 12.013l-.804.462c-2.687 1.539-5.463 3.045-8.402 3.997-.074.043-.147.086-.222.127a1.375 1.375 0 0 1-.454.148c.165 1.964.787 3.809 1.589 5.603 12.227 2.815 22.967 10.207 34.465 15.04 7.417 4.554 30.059 11.133 31.778 19.133l.046.243c.691 3.584-1.24 8.006-5.33 8.345 2.135 1.577.737 4.763-1.588 5.377-2.795.742-5.827.426-8.703.656-27.132.851-54.503-1.542-80.949-7.613-2.221-.513-4.535-1.181-6.406-2.505-11.477-9.067.469-28.256 3.29-40.018a23.65 23.65 0 0 1-3.033-.681l-.222-.066c-.967-.292-1.967-.643-2.718-1.325-.031-.028-.057-.059-.086-.088-4.835-.069.089-10.697.524-13.54-1.965 4.177-3.569 8.635-5.923 12.612-1.62 2.453-5.173.751-7.56.579.794 14.538 4.27 28.712 7.84 42.797 2.899 11.696 7.876 25.751-8.548 29.306-11.313 2.959-38.27 1.828-43.092-10.535-1.422-10.067 1.693-20.268 3.233-30.189l.27-1.411c1.839-9.645 3.539-19.334 6.205-28.798.367-1.542.819-3.052 1.305-4.552.063-.875.109-1.751.052-2.63-.074-1.15-.292-2.277-.523-3.406-.03-.143-.056-.31-.084-.488-4.763-2.194-8.3-4.675-8.757-7.352-.467-2.54.477-5.116 1.177-7.54l.041-.143c15.341-53.774 44.521-102.232 39.548-159.592-1.829-28.213-15.214-54.16-17.472-82.299-1.299-5.613-2.472-11.284-2.661-17.071-.803-.188-1.611-.36-2.409-.567-.469 2.502-1.061 4.983-2.032 7.319a54.539 54.539 0 0 0 .67 13.851c.186 1.052-.328 1.967-1.196 2.304 2.087 6.493 2.499 14.637-2.884 19.667l-.447.295c-4.676 3.108-5.165 3.988-6.253 9.778l-3.58 14.634c-.45 1.811-.987 3.656-2.281 5.079-3.433 3.773-8.898 1.31-10.668-2.712-1.616-4.12-1.604-8.656-2.784-12.9-.897-4.383-3.384-8.127-5.849-11.802-5.51-8.437-5.95-20.184.194-28.447.537-1.368 1.028-2.714 1.598-4.058-2.126-2.49-.758-6.411-1.002-9.458-.004-2.515-.05-5.03-.127-7.544-.448-14.85-1.98-29.607-2.036-44.457-.596-20.016 4.68-39.404 7.74-59.035 2.63-19.385 2.49-39.15 6.794-58.31 8.009-37.607 52.95-23.27 60.554-38.09 2.297-3.708 3.326-7.928 3.815-12.197Zm-54.896 557.511c-.68 5.001 2.839 6.201 6.873 7.722 10.288 3.766 22.165 4.66 32.622 1.068 1.853-.782 3.178-1.953 3.837-3.669-14.512 1.323-29.75.361-43.332-5.121Zm55.324-22.27c.911 4.492 6.708 5.021 10.59 5.776 9.27 1.937 18.631 3.492 28.045 4.592 18.241 2.196 36.694 2.574 55.025 1.74.495-.213.813-.624 1.438-.623l.076.002c.035 0 .069.004.103.005a2.554 2.554 0 0 1-.759-.776c-31.508-3.457-63.207-5.811-94.518-10.716Zm30.803-38.511c-7.567 1.312-15.291 2.004-22.932.811-.515 6.312-2.963 12.443-4.889 18.483 10.557 2.785 17.544-8.905 26.987-11.132-.535-2.793-.345-5.727.834-8.162Zm-77.998-4.827a.275.275 0 0 1 .034.16c-.037 7.355-.784 14.684-1.869 21.963 6.707-7.217 17.934-9.045 27.18-6.044l-.041-.469c-.237-2.665-.593-5.394-.157-8.034l-.424-.118c-4.769-1.314-15.982-3.949-24.723-7.458Zm138.166-277.37c-41.305 11.069-85.273 11.763-127.009 2.611 2.081 6.663 3.644 13.448 4.749 20.325 2.366 17.688 8.885 34.403 13.277 51.636 5.067 20.34 6.274 37.466 3.752 58.242l-.077.629c-5.552 46.59-28.289 89.121-38.971 134.351 12.571 7.619 28.1 10.595 42.514 13.746 9.059-18.654 16.713-37.784 21.73-57.871 18.07-63.046 41.882-122.41 36.593-188.974-1.179-.773-.796-2.402-.148-3.444-.224-4.802-.534-9.599-1.041-14.375-.017-.161.254-.193.287-.038.839 4.091 1.719 8.171 2.456 12.281 5.078-5.16 8.362-11.609 12.828-17.207.636 4.18-8.07 20.372-11.9 22.878 8.162 50.054-5.431 95.874-20.111 143.479-9.879 34.181-19.477 68.462-29.67 102.549.124.001.248.003.371.007-.613-1.127 12.359-.349 13.424-.914 9.553-.904 18.903-3.163 28.195-5.429l1.14-.295c2.315-.607 5.003-1.481 5.419-3.952l.007-.311a.664.664 0 0 1 .014-.172l-.067-.279a.682.682 0 0 1-.022-.129l-.092-.137c-.107-.153-.207-.289-.065-.133-1.049-1.145-1.145-2.916.067-4.01 2.27-83.259 29.126-159.46 39.072-241.788.985-7.773 2.189-15.517 3.278-23.276ZM83.032 380.488c-4.776 5.923-5.597 14.189-3.714 21.407.989 3.583 2.988 6.599 5.049 9.672 3.614 5.121 5.3 11.072 6.22 17.17l.025.116c.42 1.96.68 7.369 3.453 6.76.729-.468 1.078-2.523 1.334-3.597l3.202-13.088c.927-3.789 1.483-8.292 4.767-10.915l.388-.247c2.682-1.723 5.299-3.721 5.72-7.077.924-4.115-.794-8.098-1.436-12.097-8.565-1.956-16.926-4.717-25.008-8.104Zm181.773-16.91-.287.142c-3.294 1.638-13.123 6.942-15.658 4.905.06 12.123-.912 24.186-2.337 36.211.364-.08.74-.071 1.076.053 7.147-1.975 14.911-15.462 15.51-22.393.489-6.308-.766-12.889 1.696-18.918ZM147.316 177.776l-.364-.481c-3.869-5.082-6.04-6.896-12.73-4.185.899 1.111 1.323 2.6.939 4.141l-.025.099c-2.111 8.667-12.938 13.69-20.863 8.973-2.769.72-5.656-1.267-5.767-4.083-7.842 4.608-11.466 13.05-12.936 21.528 5.148-2.704 12.07-.123 14.124 5.256 4.504 9.83-8.62 20.057-16.623 11.779-1.734 16.581-2.548 33.289-5.706 49.698 2.34-3.843 7.922-4.748 11.25-1.585 10.898 9.389-1.636 30.72-14.81 20.551-1.597 9.134-2.16 18.398-2.085 27.638 4.222-1.623 6.532 5.659 6.838 8.741.383 3.709-1.536 11.487-6.033 11.926l.37 5.932c.628 10.168 1.187 20.325 1.047 30.518.226.057.419.16.58.293.011.294.05.589.107.88.055.288.239.442.456.49l.007.011c-.01.204-.05.409-.126.601a188.044 188.044 0 0 0 25.452 8.54 48.196 48.196 0 0 1 .141-8.607c-3.281-3.114.755-14.419 1.142-18.813 1.516-8.804 2.67-17.662 3.69-26.533-3.046-.26-4.605-3.434-5.406-6.017-1.044-2.844-1.674-5.881-.939-8.872.746-3.561 4.743-6.963 8.512-5.709l.238-2.385c1.492-15.108 2.796-30.24 5.031-45.263-7.298 4.063-14.188-4.774-12.426-11.633.516-2.912 2.293-5.734 4.915-7.246 2.318-1.33 7.111-2.648 8.632.278a3.246 3.246 0 0 1 1.883.95c1.577-8.148 3.494-16.358 6.545-24.081-9.644-6.045-7.84-21.268 4.853-21.288 17.116 1.463 12.563 26.383-3.946 21.696-5.185 31.187-8.173 62.63-10.825 94.105 1.996 3.246 1.68 8.063-1.059 10.795-1.191 11.386-2.636 22.748-4.534 34.042 12.556 2.793 25.267 5.103 38.116 6.168.618-3.966 4.941-6.083 8.677-6.401 2.474-.266 5.165.671 7.529 1.12 2.855 1.091 5.191 3.598 6.235 6.332a264.943 264.943 0 0 0 35.879-2.235c-1.2-5.965 7.5-10.512 12.797-9.584 2.12.259 4.188 1.06 5.777 2.489 1.551.329 3.01 1.667 3.395 3.276 4.207-.999 8.516-1.759 12.581-3.243 3.988-1.305 5.292-4.582 4.258-8.454-11.28 4.508-20.851-13.379-10.087-19.849 1.378-1.018 4.249-1.676 5.056.248.138.024.275.053.411.086-.896-3.681-1.797-7.361-2.698-11.04-5.172-.493-6.898-8.065-2.603-10.725a880.814 880.814 0 0 1-4.21-18.352c-7.087 1.458-12.962-7.339-11.462-13.694l.048-.191c.847-3.455 3.423-6.852 7.228-7.425a370.748 370.748 0 0 1-2.379-15.624c-.98-1.041-1.419-2.594-1.037-3.968.276-10.044-1.765-20.386-.942-30.573-7.521 9.12-23.192 2.912-19.612-9.122-.21-11.148 15.672-15.099 21.028-5.243.574-2.102 1.311-4.194 1.671-6.362.055-.249.44-.198.463.035l.001.027c.798 14.256.211 28.605 1.745 42.846 5.731.281 8.072 13.917 1.846 14.896 2.354 15.854 5.891 31.502 9.734 47.075 6.679-1.711 9.261 12.61 3.763 15.019 1.6 6.33 3.192 12.661 4.746 19.003l.03-.014c.808-1.384 2.96-1.23 4.343-.966 4.571 1.68 2.639 9.931-2.337 9.426 2.714 8.149.993 15.71-8.062 18.51l.004.259a2.97 2.97 0 0 1 1.034-.511c5.659-1.585 10.943-4.048 15.82-7.24-1.435-23.529-8.263-46.338-13.788-69.162-6.35-1.009-8.375-11.156-3.422-14.892-3.429-15.154-4.416-30.65-6.094-46.039-4.574-.994-5.729-8.315-1.6-10.557-2.617-19.112-12.468-35.221-30.849-43.414a30.409 30.409 0 0 1-2.909 7.834c.124.007.244.022.361.041a.75.75 0 0 0 .119.161c.996 1.016 1.633 2.159 2.038 3.383.039.263.082.525.127.788a3.533 3.533 0 0 1-.151.318c1.969 7.467-7.261 11.285-13.494 9.614-.966-.189-1.597-.729-1.934-1.412-11.035 5.918-25.435 4.671-35.376-3.154-7.224 3.849-16.527-5.139-11.363-12.188ZM95.537 345.207c10.558-1.548 14.011 15.374 5.502 20.072-2.744 1.625-6.517 1.766-9.218-.029-7.193-4.344-5.192-19.151 3.716-20.043Zm40.188-10.125c13.437-.058 14.587 20.501 2.866 24.202-8.716 2.509-17.253-7.121-12.784-15.151.413-4.996 4.749-8.978 9.918-9.051Zm41.868 1.865c.699-5.31 6.284-10.384 11.904-8.922 5.15 1.294 6.493 7.28 7.406 11.713 2.076 9.178-8.382 18.485-17.195 13.43-5.629-3.349-6.452-11.545-2.115-16.221Zm30.012-30.993c1.883-2.98 6.102-4.292 9.547-3.254 9.447 2.998 8.325 18.044.723 22.529-13.06 6.791-23.475-12.732-10.27-19.275Zm-61.531 8.791c-.221-8.942 9.066-17.081 17.789-11.999 14.119 9.401-.34 30.967-13.887 18.88-2.414-1.548-3.841-4.06-3.902-6.881Zm-17.566-22.815c-6.534-10.111 4.688-25.1 15.399-15.412 3.673 3.746 3.509 10.615 1.382 15.067-3.459 5.949-13.066 6.089-16.781.345Zm47.449-18.961c5.1-4.864 14.011-4.915 17.885 1.503 4.593 7.917-.888 21.462-11.241 20.818-10.758-.758-13.704-15.782-6.644-22.321Zm-26.718-15.809c-8.183-8.328.702-21.687 11.8-18.47 18.137 6.631 2.396 31.58-11.8 18.47Zm44.668-1.879c-7.288-13.209 10.417-25.085 19.428-12.372 6.911 11.515-11.748 24.808-19.428 12.372Zm-23.772-37.575c-6.307-11.01 4.714-23.243 16.293-16.782 16.477 11.369-4.614 33.233-16.293 16.782Z" clip-rule="evenodd"></path><path fill="#fff" fill-rule="evenodd" d="M183.083 56.576c10.633 0 23.39 5.144 24.475 5.247l.029.002c.571 0 2.801 1.695 6.69 5.086l-4.212 8.2.34.324c1.632 1.56 3.024 2.983 4.123 4.105 8.976 9.156 10.589 45.108 8.474 57.646-2.116 12.538-6.033 24.806-24.272 24.806-18.239 0-38.53-10.944-41.656-14.353-2.084-2.272-4.424-3.36-7.022-3.265l-.317-.403-.383-.054c-3.595-.519-6.17-1.219-7.727-2.097-3.041-1.717-6.383-10.742-6.383-12.73 0-1.969-4.99-16.287-5.09-17.802l-.001-.042c0-1.267-6.52-7.09-6.52-8.939 0-1.849-1.314-1.737 0-8.253l.382-1.914c1.399-6.938 4.136-18.427 14.571-23.418 11.468-5.486 33.759-12.146 44.499-12.146Z" clip-rule="evenodd"></path><path fill="#000" fill-rule="evenodd" d="M136.815 68.464c5.719-6.058 38.189-15.43 54.616-13.443l.493.064c1.311.166 2.603.417 3.878.758 4.122.961 8.379 2.416 11.784 4.845 2.843 1.988 11.811 5.234 9.168 10.433.98 1.853 1.346 4.143.684 5.968-.084.63-.278 1.211-.528 1.813 2.094 3.084 3.752 6.571 5.094 9.888 2.346 8.348 3.805 17.035 4.019 25.552.711 16.181-1.067 35.51-15.189 45.973-8.531 6.631-21.894 6.853-31.48-1.367-.544-.643-3.103-2.377-2.249-2.681.254.268.515.528.781.784a.151.151 0 0 1-.009-.087l-.251-.226c-.471-.435-1.081-1.066-.386-.943.031.036.064.067.097.102.148.088.259.165.345.232l.045.036-.014-.015c-.4-.426-.64-.86-.042-.583l.08.039c.266.279.536.547.812.808a.15.15 0 0 1 .017-.095l-.257-.248c-.251-.245-.213-.246-.09-.444-.533-.745.462-.303.532-.012.622-.147 1.169 1.019 1.569 1.162 17.574 13.483 43.078 1.519 42.665-36.053l-.007-.735c-.12-12.014-1.133-24.362-6.113-35.237a31.178 31.178 0 0 0-1.622-3.053c-.41-.74-.85-1.46-1.322-2.162a19.639 19.639 0 0 1-3.917-.723 18.866 18.866 0 0 1-1.315-.379c-6.384.348-12.625.726-19.027 1.084l-1.999.124c-5.423.348-11.032.906-15.408 4.253-4.294 3.047-4.313 9.057-7.989 12.403-5.241 3.55-5.279 6.751-6.289 11.983.075 3.944 2.815 9.674-2.213 11.334.848 1.207-.334.627-.427.204-.01.002-.019.004-.026.004.756 1.403-.356.52-.454.069a.438.438 0 0 1-.178-.118c.762 1.228-.47.368-.397.144-1.471-2.257-4.5-2.608-6.635-2.01-.026.081-.121.088-.181.045-9.078 1.964-6.736 20.72 2.568 18.907.398-.081.388.109.468.128-.215-.564.39-.334.384-.216l.037-.002c.029-.002.017-.006.039.002-.208-1.152.962.517.869.585a.31.31 0 0 1 .112-.038l-.04-.109c-.194-.516-.178-.301-.176-.597-.146-.365-.157-.205-.123-.443.513-.397.664.805.835.893-.293-.407-.06-.74.217-.519 2.095 4.399 4.802 8.531 8.3 11.787.382.301.769.597 1.17.877 1.488 1.293 3.771 2.125 5.163 3.271a.141.141 0 0 1-.023.066l.032.029.032.03.484.232c.143.121.271.256.385.406.121.14.228.294.318.457.046.199-.054.282-.244.197-.084-.029-.166-.062-.25-.093.005.008.007.012.012.017.028.041.212.468 0 .399l-.026-.01c-.116-.043-.233-.09-.347-.135.136.168.259.35.368.504a.804.804 0 0 1 .217.425c-.005.09-.055.128-.145.116a14.09 14.09 0 0 1-.409-.142l.039.073c.095.188.232.504-.01.398a7.531 7.531 0 0 1-.606-.218c-.017.033-.05.045-.116.014a12.32 12.32 0 0 1-1.834-.824c-.515-.375-1.035-.742-1.553-1.114a12.029 12.029 0 0 1-1.406-.982 30.584 30.584 0 0 1-7.718-7.134c-3.489 3.015-10.463.135-14.778-2.225-3.816-2.109-5.316-6.01-5.704-10.215-.806-5.661-5.442-7.599-5.119-20.02-.008.002-.015.002-.024.002a2.383 2.383 0 0 1-.487-.202 2.377 2.377 0 0 1-.449-.274l-.173-.24a1.518 1.518 0 0 1-.233-.154l-.032.041c-.101.122-.033-.061-.027-.098l-.302-.409c-.714-.973-1.497-2.064-2.135-2.937l-.02.035c-.015.027-.022.046-.016.055-1.518-2.178-2.947-4.808-3.343-7.355-.469-1.961-.286-3.982.123-5.8 1.752-6.362 7.493-20.76 15.031-26.93Zm41.215 87.991-.095-.085.084.105a.682.682 0 0 0 .162.152.127.127 0 0 1-.003-.052 3.002 3.002 0 0 1-.148-.12Zm13.329-98.237c-11.14-.956-22.097 1.494-32.728 4.458l-.733.21c-6.045 1.722-12.436 3.271-17.545 6.955-7.136 5.456-10.822 14.134-14.038 22.147-2.808 5.953-1.373 12.666 2.86 16.822.44-4.13 1.191-8.14 2.364-12.118.245-.622.059-.825.587-.906.797 10.719-3.128 18.639 4.64 31.343 3.371 5.995-.531 10.381 8.987 13.535l.258.099c1.983.746 4.148 1.336 6.091.918l-.174-.282c-.178-.291-.232-.432.026-.557-.006-.014-.016-.028-.026-.045-.208-.393-.41-.791-.603-1.194-.078.026-.156.045-.237.066.052.097.059.194-.088.228a4.143 4.143 0 0 1-1.611.217l-.118-.009a5.451 5.451 0 0 1-1.363-.256c-.116-.019-.233-.038-.347-.061-1.127-.25-2.32-.884-3.092-1.512-8.801-4.989-7.891-21.971 2.957-23.576.222-10.692 5.318-28.73 13.775-38.919 7.644-9.371 28.514-13.433 43.033-12l.635.211c2.24.199 4.374 1.195 6.616 1.657-1.609-1.204-3.435-2.005-5.316-2.687-3.747-2.287-8.043-3.525-12.193-4.398-.86-.21-1.731-.327-2.617-.346Zm-44.43 65.071c.583-.316.517-.011.651-.099 4.195-.342 8.719 3.324 11.064 6.38-.185.192-.686-.377-.774-.467a.099.099 0 0 1-.04.026l.065.092c.951 1.362-.934-.24-1.11-.57a.138.138 0 0 1-.097.018c.149.147.605.528.683.799l.121.101c1.141.974 1.046 1.708-.249.323.031.064.043.124.022.171l.044.03c.637.444 1.161 1.682-.17.411.138.928-1.319-.866-1.366-.853-2.521-1.976-6.234-3.897-9.397-4.155l-.109-.013c-.581-.074-.855-.246-.651-.625-.715-.169-.548-.521-.209-.509-.504-.331-.051-.647.242-.524-.201-.556.606-.186.679-.263.419-.645.532-.107.601-.273Zm-8.794-34.45c2.015-.736 7.967 1.47 7.491 4.39-.284.67-1.218 1.055-1.874.676l-.858-.574c-1.491-.997-2.836-1.871-4.438-2.74-.871-.432-1.246-1.349-.321-1.751ZM149.6 84.5l-.779-.505c-4.199-2.744-10.136-6.9.393-2.6 1.2.514 2.794.818 3.449 1.958 1.029 2.102-1.678 2.244-3.063 1.147Zm.472-12.308c-.337-1.276 3.856.222 5.077.617l.186.07c1.187.441 2.548.85 3.258 1.873.833 1.414-.852 1.706-1.895 1.068-2.139-1.395-4.484-2.448-6.626-3.628Zm10.663-5.945c-2.36-2.572 3.957-.108 4.903.576l.027.02c.706.496.563 1.564-.1 1.878-1.888.036-3.277-1.534-4.83-2.474Zm10.741-2.818c-3.752-2.692 1.19-1.412 2.907-.357 1.17 1.03-.035 2.768-2.907.357Z" clip-rule="evenodd"></path><path fill="#000" fill-rule="evenodd" d="M197.519 143.848a9.666 9.666 0 0 1-4.062-3.119c-.362-.482-.456-.99-.38-1.455.085-.523.395-.997.818-1.315.424-.319.955-.476 1.467-.396.446.07.889.313 1.241.818l.073.101a6.397 6.397 0 0 0 2.345 1.964 5.302 5.302 0 0 0 2.903.51c1.953-.221 3.299-1.275 4.73-2.706.177-.181.354-.367.533-.557a.84.84 0 0 1 .442-.34.958.958 0 0 1 .61.009.964.964 0 0 1 .48.363c.11.161.172.36.152.588-.131 1.484-.908 2.808-2.012 3.847-1.226 1.155-2.851 1.953-4.381 2.234-1.686.308-3.403.087-4.959-.546Zm5.754-22.886c1.793 1.088 4.526 3.625 2.597 6.322-2.271 2.378-5.541-.349-7.152-1.582-1.494-.955-3.173 1.503-1.786 2.619 11.642 8.602 16.367-7.074 7.248-8.638-1.004-.172-1.377.943-.907 1.279Zm-20.864-10.006c.199-2.455 3.944-3.012 4.317-.584.334 2.176-.059 4.175-1.041 6.134-.938 1.871-3.297.998-3.475-.706-.239-2.284.076-3.318.199-4.844Zm28.514-1.087c.523-.683 1.277-1.149 2.18-.885 2.823.823 1.991 4.822.999 6.768-.538 1.057-2.279 1.325-3.066.395-1.283-1.518-1.897-4.549-.266-6.044.044-.078.093-.156.153-.234Zm-25.278-9.654.446-.078c1.379-.238 3.094-.467 4.07.64.517.587.696 1.678 0 2.239-1.224.989-2.576.606-4.043.689a16.105 16.105 0 0 0-3.533.601c-2.554.728-4.634 2.058-6.815 3.518-.286.192-.578-.174-.442-.441 1.259-2.461 3.699-4.482 6.143-5.714 1.304-.658 2.731-1.204 4.174-1.454Zm22.705-1.102.342.07c3.713.774 8.538 2.322 10.297 5.962.067.515-.004.625-.062.697l-.019.024c-.047.062-.085.147-.309.217l-.188-.047c-.806-.211-1.444-.502-2.061-.803l-.67-.329c-.776-.38-1.56-.746-2.39-1.017a28.195 28.195 0 0 0-5.446-1.2 2.234 2.234 0 0 1-1.093-.414 1.64 1.64 0 0 1-.611-.929c-.13-.523-.093-.919.189-1.392.211-.355.514-.6.862-.742a2.026 2.026 0 0 1 1.159-.097Z" clip-rule="evenodd"></path><path fill="#000" fill-rule="evenodd" d="M182.116 145.333c1.922-4.495 6.119-7.799 10.951-9.007 3.548-.885 7.271-.857 10.888-.505 1.895.182 3.928.332 5.714 1.034 1.525.6 2.768 1.734 3.702 3.066 1.112 1.577 1.869 3.383 2.4 5.234.076.263.147.528.213.794-.231 1.396-.722 2.585-2.018 3.463-1.264.857-2.773 1.208-4.277 1.332a6.112 6.112 0 0 1-.421-.218c-2.344-1.339-3.994-4.503-6.952-4.075-2.641.382-4.379 3.698-5.949 5.642-5.04.586-10.076-.926-14.176-3.802a8.292 8.292 0 0 1-.075-2.958m37.293-3.41a19.351 19.351 0 0 0-1.513-3.253 18.526 18.526 0 0 0-8.671-7.673c-8.578-3.666-19.678-1.082-26.606 4.93-2.367 2.056-4.759 5.076-5.483 8.324-.216.043-.42.155-.588.313-5.005-3.145-10.16-6.171-14.193-10.53-2.929-3.167-4.967-6.916-6.214-11.035-.102-.339-.65-.29-.634.086l.015.263c-.052-.162-.299-.079-.318.078-.671 5.004-1.511 10.309-.738 15.339.463 3.001 1.829 5.199 3.655 7.571 1.957 2.544 4.172 4.909 6.437 7.178 1.437 1.44 2.939 3.1 4.698 4.156 2.047 1.227 4.369 2.16 6.554 3.106a84.8 84.8 0 0 0 6.776 2.631c4.594 1.552 9.342 2.624 14.173 3.094 3.869.375 8.289.783 11.997-.669 2.841-1.113 5.134-3.124 6.953-5.545 1.981-2.636 3.546-5.638 4.412-8.805.899-3.289-.522-9.029-.712-9.559" clip-rule="evenodd"></path><path fill="#000" fill-rule="evenodd" d="M230.85 102.917a39.575 39.575 0 0 0-.586-.092 1.777 1.777 0 0 0-.541-.193 9.356 9.356 0 0 0-1.421-.246c-6.776-1.521-22.452.639-23.099 6.41-2.158.719-4.025.075-6.526.139-1.904-7.941-34.816-6.82-36.399-2.032l-.018-.005c-1.52-.47-3.763-.357-5.503-.431a47.907 47.907 0 0 0-11.075 1.035c-6.81 1.08-16.104 2.344-11.368 10.831l.003.005v-.001c.817.835 2.202.163 2.253-.968-1.592-4.02 2.005-4.503 4.772-5.658 6.885-2.469 13.896-2.811 21.017-2.048.536.63 1.349 1.179 2.208 1.466 4.761.789 2.252 4.314 5.262 4.826-.553 12.287 14.395 18.994 23.056 10.917 3.458-3.374 4.282-8.372 5.084-12.878.424-.095.693-.326.851-.632 1.019-1.016 1.66-1.954 3.676-2.233 2.016-.279 3.568.281 3.778.452.053.107.11.213.176.32.092.159.217.286.36.386-1.991 12.235 7.527 19.973 17.135 13.627 4.175-3.92 5.058-9.92 5.232-15.276.566-.341.924-1.001.728-1.832-.27-1.145.363-2.136 1.372-2.634 1.31-.646 1.078-3.006-.427-3.255m-41.286 5.805c-1.193-.262-1.702 1.573-.506 1.835.847.186 1.565.613 2.05 1.335l.052.079c.651 1.033 2.297.079 1.641-.961a5.096 5.096 0 0 0-3.237-2.288Zm34.931-1.138c-.421-.296-1.057-.076-1.301.341-.269.46-.092.972.301 1.273l.04.03c.362.254.713.709.758 1.176l.003.058c.048 1.221 1.949 1.227 1.902 0-.046-1.201-.743-2.204-1.703-2.878Z" clip-rule="evenodd"></path></svg>