<svg xmlns="http://www.w3.org/2000/svg" width="434" height="635" fill="none" id="woman-sitting-holding-both-legs"><path fill="#fff" fill-rule="evenodd" d="M387.554 528.483c-7.613-10.817-23.659-12.607-33.967-20.187-5.43-4.158-11.177-6.909-15.397-12.507 6.719-7.883-1.59-26.363-3.3-37.034-6.776-27.94-13.043-56.326-21.102-84.233 13.966 4.342 10.327-21.654 8.333-27.665-.138-.826-1.163-.991-1.791-1.251.175-1.181.659-1.44-.808-1.766-.491-7.072 1.513-14.992-2.108-21.24-4.083-6.82-13.841-12.527-21.903-12.621-5.663-22.46-6.701-33.053-33.533-23.532.593-2.188.778-4.194-.256-6.404-4.035-12.175-9.106-25.495-13.515-37.833-5.082-14.199-10.337-28.881-17.134-42.523-4.734-8.663-19.543-10.979-29.581-9.545-2.395-4.219-8.431-15.888-16.066-13.19-.057-3.519-.112-7.039-.158-10.558-.039-3.06.283-6.197-.895-9.102-1.248-3.077-3.789-4.701-6.773-5.879-9.034-2.979-19.411-7.766-28.944-4.804-8.328 3.795-7.358 18.068-11.389 25.827-5.648-8.363-15.28-2.756-17.318 6.213-23.202 9.236-43.145-1.256-44.63 34.998 1.28 6.609 2.367 12.808 1.76 19.481l-.701.072c-5.939 32.123-8.222 66.558-6.787 102.356-.287 14.095-5.431 27.25-10.405 39.97-3.66 9.352-7.437 19.023-9.228 28.945-1.986 8.264-9.286 48.005 6.947 34.811.622 45.212 40.968 51 77.299 41.014 38.57-8.007 81.99-5.705 106.061-44.441 8.166 13.955 10.984 22.571 13.034 37.163 2.249 10.69 5.516 22.83 11.52 29.901-5.17 9.293-7.702 20.614-7.453 27.992.098 2.899-1.229 4.241.679 6.042 9.151 8.643 29.57 8.74 45.097 12.587 10.646 1.353 49.141 6.53 55.024 3.156 4.103 1.145-.668-9.517 3.434-9.745 1.404.011 1.592-1.774 3.033-1.709 9.202.419 29.041 3.12 24.245-4.289l-1.324-8.47Z" clip-rule="evenodd"></path><path fill="#000" fill-rule="evenodd" d="M385.269 538.952c-6.784 1.464-13.762 1.055-20.636 1.627.223-.575.409-1.163.554-1.761 7.103-.859 14.552-1.266 21.324-3.61.159.762.279 1.533.327 2.312.006.104-.008 1.268.158 1.053-.206.267-1.419.321-1.727.379m-34.275-17.584c-12.347-4.056-25.441-7.54-34.959-16.951l.056-.157c1.959-.555 4.113-1.738 5.998-.451 6.038-.208 12.343-2.322 16.571-6.788.289.061.568.147.84.254 8.136 13.824 25.468 16.457 38.161 24.467 5.146 2.992 14.73 11.049 2.469 11.229a198.99 198.99 0 0 1-14.589 1.651c-.377-7.784-8.095-11.194-14.547-13.254m8.63 19.937c-2.455 3.345-6.888 4.666-10.898 4.339-2.95-.4-5.553-1.436-8.62-1.213-23.256-.882-46.125-5.695-68.803-10.608-20.312-3.807-4.793-18.785-6.485-30.904 2.867 1.746 6.117 3.022 9.464 3.957 4.31 11.984 16.092 8.854 24.434 3.113 3.219-.104 7.139.389 9.771-1.747.154.126.316.233.483.324 2.089-1.229 4.001-2.516 6.192-3.464 7.404 12.504 23.132 15.359 35.751 20.186 7.721 2.079 14.043 8.039 8.711 16.017m-.421 10.713c-6.527 1.949-13.433 1.611-20.167 1.062-22.122-1.915-44.097-5.682-65.558-11.38-5.09-1.352-14.965-2.922-15.433-9.303 4.531 5.936 12.619 6.635 19.414 8.166 22.304 4.367 45.15 10.008 67.961 8.92 4.817 1.37 10.068.288 14.144-2.378a504.63 504.63 0 0 0-.361 4.913M238.592 343.555c3.304-8.755 6.886-17.392 10.352-26.093 6.429 3.6 13.688 4.916 21.1 5.756.174.087.359.164.559.226.352.071.647.038.883-.069 9.884 1.044 19.966 1.454 28.661 5.492 3.365 1.562 6.522 3.667 9.38 6.566a31.991 31.991 0 0 1 7.335 10.585c.528 1.23.808 2.507 1.642 3.519.251 1.36.535 2.709.728 4.081.487 5.365 1.152 11.016-.921 16.163-1.285 3.153-3.919.618-5.666-.617-2.841-1.982-5.457-4.256-8.066-6.529-8.012-7.526-17.376-13.925-28.615-14.983-12.134-1.685-25.282-3.79-37.372-4.097m-4.862.018c-.667 1.7-1.321 3.406-1.965 5.114-3.188-.546-9.974-1.831-12.752-3.296.99.034 1.97-.481 2.221-1.662.111-.522.285-1.011.421-1.521 1.675-5.451 3.103-11.013 5.468-16.239 2.313-5.519 5.065-10.881 7.168-16.481 3.566-.225 9.198 4.195 11.745 5.997-4.543 9.15-8.577 18.534-12.291 28.047-.069 0-.141 0-.21.003l.195.038m-21.004-.645c-18.287-1.142-36.82.061-54.897-3.178a35.71 35.71 0 0 1-9.585-3.062c-8.628-4.164-15.332-11.557-20.269-20.02-17.836-26.823-37.462-53.466-46.24-84.893-5.203-15.211-6.215-37.947 11.966-44.492 8.064-3.006 17.803-2.822 24.743-8.276-.785 2.883-1.226 5.9-1.631 8.571-.682 4.355-1.354 8.862-.8 13.266.005.039.01.077.018.113-.911 2.479 1.954 4.819 4.765 4.576 5.93-.136 8.838-7.254 14.781-7.472 2.17-.079 3.465 1.214 4.794 2.753 3.216 3.731 6.366 7.533 10.251 10.591.277.217.647-.047.49-.379-1.962-4.187-4.714-7.895-7.443-11.616-5.658-9.026-13.273-4.873-19.71.615-1.255.909-2.529 1.646-3.82 1.324.085-.31.108-.668.054-1.068-.479-3.534-.01-7.259.477-10.765 1.114-6.542.783-15.075 7.1-19.036 2.757-1.557 6.091-1.754 8.774.013-.493 1.206-1.08 2.563-1.165 3.838-.538-.379-.902-.261-1 .561 2.09 6.156 5.512 11.812 8.415 17.617a1100.34 1100.34 0 0 0 6.874 13.032c.687 1.339 1.267 2.757 2.606 3.5l.007.038c.906 2.984.906 6.19 1.603 9.224a117.68 117.68 0 0 0 1.447 5.572 221.65 221.65 0 0 0 1.557 5.173c6.35 21.973 12.365 44.048 18.556 66.07-7.33-3.785-11.046-10.86-14.401-18.091-8.849-18.634-18.118-38.974-28.021-56.166 9.211 19.546 21.845 65.333 37.578 76.715 2.4 1.588 5.016 2.783 7.748 3.731 1.141 1.032 2.336 1.255 3.139.981 4.945 1.385 10.123 2.181 14.983 3.198a10408.49 10408.49 0 0 0 25.292 5.267c2.852.589 5.717 1.378 8.631 1.516.146.008.287.003.418-.015-6.42 7.369-10.742 17.43-13.211 26.861-2.012-.579-4.291 1.565-4.874 3.813m-72.38.812c-14.264 21.373-36.616 34.633-55.023 51.886-11.03 11.603-19.824 25.074-29.883 37.488-.31.384-.623.769-.936 1.15-.775.953-1.852 2-2.475 2.924a1.05 1.05 0 0 1-.051.075c-1.457-3.04-.66-6.927-.713-10.392.223-5.935 1-11.82 2.167-17.637 3.811-23.359 16.933-44.149 19.787-67.64-.095-24.985-1.338-50.041.77-75.017.77-11.4 1.577-22.806 2.721-34.178 7.9 29.307 30.968 60.921 44.064 81.161 5.283 7.735 10.013 16.175 17.453 22.093a37.654 37.654 0 0 0 5.671 3.687c-1.337 1.324-2.481 2.832-3.552 4.4m46.717-114.296c1.964-.514 6.301-1.029 8.556-2.509a299.405 299.405 0 0 0 3.759 11.896c-3.231-.954-6.727-.507-10.055-.144-4.336.473-8.667.987-12.995 1.525-3.965.493-7.927 1.005-11.887 1.531a2489.602 2489.602 0 0 0-4.281-15.164c8.261 3.823 18.059 4.356 26.903 2.865m4.495-38.056a2.52 2.52 0 0 0-.261-1.048l-.075-.153a787.674 787.674 0 0 0-2.056-7.206c-.106-.404-.747-.325-.734.1-.005.297-.008.591-.01.889a17.98 17.98 0 0 1-.134-.372 45.595 45.595 0 0 1-1.915-7.695c7.402 1.524 13.498 17.656 16.943 29.189-2.832-.88-6.546-1.08-7.646 1.263-1.365-4.991-2.719-9.984-4.112-14.967m-11.483 95.526c1.845-.121 3.69-.236 5.534-.363 3.774-.262 7.547-.534 11.321-.801.905-.064 1.81-.13 2.715-.197 2.563-.141 5.126-.282 7.689-.419 2.834-.15 5.7-.407 8.555-.512a144.6 144.6 0 0 1 1.613-.026c.106.215.215.426.334.627-3.763 1.04-7.2 2.243-9.954 3.457-6.259 2.737-12.276 6.34-17.415 10.87a556.33 556.33 0 0 1-2.855-.599c-2.611-.563-5.255-1.165-7.802-2.023-.652-1.595-.865-3.47-1.419-5.042l-1.318-4.727c1.004-.017 2.03-.182 3.002-.245m-6.228-12.886.101-.012h.013a101.753 101.753 0 0 0 3.703-.194c1.646-.117 3.289-.273 4.929-.452 3.287-.358 6.562-.807 9.841-1.223 1.932-.246 3.858-.458 5.782-.638 4.498-.298 9.01-.526 13.503-.589 1.438 3.418 2.898 6.826 4.37 10.227.139.317.273.662.41 1.02-6.605-.125-13.239.5-19.821.894-3.689.22-7.38.434-11.069.661-1.845.113-3.69.239-5.534.359-1.232.08-2.556.027-3.787.259l-.782-2.804c-.683-2.422-1.358-4.847-2.034-7.271.132-.064.258-.142.375-.237m-5.62-18.654a7809.81 7809.81 0 0 0-3.184-11.471l.6-.083 2.244-.307a1365.343 1365.343 0 0 1 8.781-1.164c1.411-.119 2.823-.233 4.236-.337 6.388-.47 12.827-.907 19.236-.943a390.88 390.88 0 0 0 4.232 11.613c-5.451.332-10.897.77-16.34 1.207a1556.84 1556.84 0 0 0-13.959 1.182l-2.537.229c-.488.044-1.126.21-1.675.213a4.091 4.091 0 0 0-.225-.165c-.4-.276-.991-.227-1.409.026m1.274 3.228c3.595-.438 7.182-.909 10.774-1.345 1.993-.193 3.986-.384 5.979-.57 6.334-.59 12.676-1.101 19.01-1.684a581.708 581.708 0 0 0 5.331 13.232c-7.757-.511-15.656.79-23.325 1.69-4.095.481-8.2.914-12.321 1.068-.653.024-1.565-.01-2.347.163a7491.617 7491.617 0 0 1-3.185-11.481c.015-.356.043-.713.084-1.073m63.682 51.147c-.272.259-.538.525-.802.799.005-.087.007-.171.005-.258.005-.003.01-.005.012-.008a2.62 2.62 0 0 1 .785-.533m-4.798-109.542c7.974 19.312 14.86 39.17 22.329 58.718 2.395 6.638 4.755 13.288 6.986 19.984.847 2.212 1.157 4.696 2.896 6.435.072.071.151.138.236.194-2.336.98-4.447 2.069-6.147 3.169a61.12 61.12 0 0 0 2.853 7.751c.403.896-.923 1.676-1.328.776a65.318 65.318 0 0 1-3.496-9.881c-1.129-1.519-2.434-2.882-4.126-3.733-3.265-1.185-7.382-1.595-11.819-1.462a1.701 1.701 0 0 0-.282-.366c-1.47-1.413-2.052-3.662-2.783-5.534a152.99 152.99 0 0 1-5.42-16.723c-1.461-5.616-2.367-11.364-3.885-16.967-.308-.981-1.265-5.718-2.157-5.457.018.108.033.213.049.32a.246.246 0 0 0-.149-.041c-.359 11.59 2.675 23.264 6.15 34.277.962 3.67 3.147 7.103 3.848 10.806a84.58 84.58 0 0 0-9.157 1.485 6.628 6.628 0 0 0-.177-.727c-.041-.338-.144-.604-.292-.807-.38-.926-.883-1.83-1.254-2.665a683.606 683.606 0 0 1-2.275-5.185c-4.091-9.48-7.964-19.062-11.381-28.808-4.213-11.817-7.658-23.863-10.982-35.941 2.226 1.19 6.507-1.189 9.131 4.248.567 1.37 1.826 2.348 3.388 1.92 1.37-.376 2.406-1.971 1.924-3.382-.07-.231-.144-.459-.229-.682-2.557-7.571-4.627-15.343-8.315-22.469 9.467.955 20.665 1.633 25.864 10.747m88.177 126.571c.818 3.864.292 7.928.071 11.861-3.742-4.965-8.484-9.203-14.032-12.025-.369-2.484-1.936-4.648-2.659-7.06-1.336-3.403-2.419-6.88-3.393-10.391 9.046 1.882 17.851 8.442 20.013 17.615m-32.797 29.599c3.071 16.548 7.95 32.68 11.523 49.116.21.965-1.274 1.374-1.484.408-3.573-16.436-8.451-32.568-11.523-49.116-.18-.968 1.304-1.379 1.484-.408m-1.577 152.137c2.451.342 4.898.642 7.364.903-4.91 2.051-9.487 1.55-13.482-2.074 2.045.496 4.106.876 6.118 1.171m108.167 24.383c-.138-.656-.501-1.082-.959-1.312.07-13.772-28.924-18.248-37.71-27.018-4.019-2.837-6.943-7.523-11.611-9.279 2.641-4.081 1.931-9.333 1.345-13.918-1.282-8.366-4.503-17.716-5.345-22.887-6.355-26.582-12.519-53.229-19.71-79.601-.147-.504-.418-1.503-.76-2.607.775.187 1.516.249 2.211.159 10.088-2.233 7.823-22.605 5.453-29.988-.254-.87-.846-1.421-1.541-1.68.089-.45.008-.929-.313-1.387a1.387 1.387 0 0 0-.724-.513c-.305-7.006 1.447-14.537-2.246-20.938-4.15-7.001-14.05-12.793-22.016-13.2-1.142-4.128-2.142-8.297-3.245-12.432-1.21-4.33-2.934-8.983-6.558-11.887-4.689-4.164-14.697-2.894-22.999.049.454-2.169-.58-4.131-1.213-6.164a1105.637 1105.637 0 0 0-6.361-18.193c-7.789-20.383-14.186-41.511-23.929-61.054-4.035-6.625-11.793-9.61-19.241-10.225-3.494-.351-7.21-.487-10.737-.074a26.317 26.317 0 0 0-.346-.64c-2.89-5.001-8.756-14.312-15.507-12.714-.713-4.755-.723-9.628-.136-14.386.042-.338-.513-.484-.651-.177-4.473 10.018-3.642 22.345 1.816 31.829.4.659.944.999 1.508 1.096.869 9.959 3.042 19.787 5.722 29.433-.403.015-.79.1-1.113.243-8.551 3.127-17.954 3.636-26.854 1.81-2.506-.527-4.932-1.236-7.371-1.959-.461-1.597-.923-3.19-1.388-4.785-1.164-5.04-1.461-9.882-4.416-13.941-.175-.299-.354-.596-.526-.893a1088.84 1088.84 0 0 0-7.212-12.834c-.59-.699-4.535-8.461-7.605-13.155.385-.01.783-.107 1.17-.302 2.164-1.078 2.141-4.204 2.536-6.301 1.211-6.517 2.612-13.045 2.996-19.674.021-.338-.497-.481-.649-.174-2.952 5.843-4.998 12.096-7.184 18.255-.044.123-.089.248-.138.376-2.026-2.55-5.584-3.157-8.682-2.471-5.178 1.35-7.79 5.552-9.295 10.33-14.889 7.095-32.606-.151-41.642 18.621-4.07 9.81-3.993 20.933-1.357 32.51-6.866 35.094-9.015 70.995-7.587 106.703-.508 24.155-15.347 45.111-19.6 68.618-2.121 9.265-3.452 18.762-3.288 28.28-.325 5.029 1.896 12.455 8.348 10.499.736-.264 1.404-.669 2.019-1.158 2.696 40.725 34.13 48.602 70.36 41.588 1.467.026 2.909-.312 4.45-.745a78.169 78.169 0 0 0 2.237-.702c.559-.133 1.12-.269 1.682-.409.416-.085.834-.166 1.251-.248 10.33-6.819 21.06-13.031 31.266-20.042.719-.495 1.6.654.932 1.206-6.818 5.63-13.492 11.505-20.586 16.797 20.212-3.208 40.778-2.662 59.649-10.975 13.243-5.785 25.705-17.377 33.21-29.883l.336.597a714.766 714.766 0 0 1-1.089-3.105c-6.398-18.394-12.186-37.003-19.179-55.187-.356-.925 1.132-1.322 1.484-.408a563.425 563.425 0 0 1 5.64 15.383c6.482 18.441 12.275 37.121 19.179 55.414.04.105.053.203.05.293 1.441 3.55 2.62 7.166 3.438 10.873.847 3.879 2.086 12.164 3.311 19.136 1.074 5.75 1.855 12.42 5.855 16.834l-.014.027c-.141.275-.276.547-.407.818.283.282.643.466.976.677.052-.242.102-.482.158-.728a22.548 22.548 0 0 0 3.212 2.793c-1.307 9.657-11.05 19.012-6.005 29.12-2.405 5.526 3.497 10.022 8.354 11.163 7.446 2.377 15.13 4.165 22.755 5.861 15.098 2.811 62.348 13.198 73.659 5.112-.163-1.726 1.963-7.333-.546-7.416a14.286 14.286 0 0 0 2.733-3.769c6.922 2.249 14.615 1.444 21.663.614 5.7.123 5.491-5.421 4.627-9.579" clip-rule="evenodd"></path><path fill="#fff" fill-rule="evenodd" d="M144.997 61.064c38.008-1.866 63.796 28.065 64.905 40 .77 8.286.248 19.335.248 26.739 0 3.779 1.909 15.265-.248 20.773-4.801 12.259-10.225 21.862-25.255 21.862s-37.942-7.779-45.81-17.811c-1.436-1.832-19.287-15.241-19.287-25.781 0-22.488-1.673-64.45 25.447-65.782Z" clip-rule="evenodd"></path><path fill="#000" fill-rule="evenodd" d="M119.068 36.777c2.166-.676 3.549.297 4.535 1.805.217-.042.428-.04.662.017.058.014.198.067.304.108.082.035.156.076.227.12l.043-.022c.162-.177.333-.339.517-.469.415-.292.841-.377 1.246-.317l.188-.07c1.603-.557 3.342-.298 4.429 1.081.21.267.38.563.525.876.326.107.632.261.896.45.185-.086.38-.16.59-.213 1.183-.303 2.425-.017 3.389.707.47.352.815.794 1.077 1.297.298.07.593.196.869.365.237-.118.478-.229.725-.305a7.707 7.707 0 0 1 2.811-.309c2.026.15 3.984 2.46 2.631 4.444l-.042.06a7.16 7.16 0 0 0-.46.737c.485.21.952.492 1.383.846 2.11 1.726 2.3 4.388 1.905 6.899l-.017.104h.005c1.121.107 2.089 1.276 1.427 2.375l-.033.052c-.896 1.383-1.664 2.91-2.521 4.366a39.88 39.88 0 0 0-6.807 3.176c-1.34 1.173-2.616 2.412-3.739 3.791a21.635 21.635 0 0 0-1.548 2.173c.378.182.846.173 1.241-.193 3.516-3.253 7.763-5.536 12.285-7.066a1.1 1.1 0 0 0 .659-.564 49.585 49.585 0 0 1 6.114-1.327c.569-.541 1.165-1.059 1.731-1.598.723-.687 1.628-.677 2.305-.245.336-.153.68-.288 1.028-.41l.217-.073c.09-.03.176-.064.265-.091 2.421-.74 4.635-.465 7.017.142l.305.08c1.11.294 1.808.247 2.883-.024l.121-.031c1.143-.297 2.364-.518 3.532-.205 1.221.328 2.032 1.057 2.864 1.938l.083.089c.388.415.613.46 1.121.45l.545-.016c2.054-.056 4.066.03 5.605 1.617.569.587 1.18 1.417 1.546 2.176l.053.113.046.095c.221-.036.565-.175.728-.207 2.239-.434 4.108.235 5.546 1.997.314.385.79 1.142 1.119 1.559.115.097.224.202.327.312.54.344 1.305.322 1.91.443 1.65.328 3.413.955 4.252 2.522.351.655.48 1.37.628 2.086.555.364.99.888 1.327 1.456.41.689.585 1.533 1.057 2.183.343.473.868.726 1.366 1.015l.191.111c1.478.88 2.635 1.855 3.122 3.577l.042.153c.079.264.356 1.016.115.903.208.115.561.155.75.218 1.026.338 1.917.886 2.463 1.847.416.732.491 1.494.61 2.3l.051.326.044.26.016.087.003.002c.186.08.369.167.548.26.85.5 1.431 1.367 1.431 2.371 0 .487-.153.867-.375 1.206.18.271.319.56.424.882.206.63.22 1.318.151 1.969-.083.781-.284 1.493-.521 2.239-.091.288-.127.69-.265.965.253.322.404.716.357 1.105-.066.556-.321 1.205-.825 1.517-.246 1.215-.777 2.456-1.299 3.448-.06.116-.133.218-.213.303.072 3.964-.219 7.956-.239 11.915-.022 4.309.068 8.621.219 12.925.253 7.134 1.158 14.511-.951 21.467-1.725 5.694-5.181 10.582-9.815 14.288a28.971 28.971 0 0 1-16.537 6.328c-3.089.172-6.231-.178-9.22-.977l-.32-.087c-2.892-.793-6.241-2.005-8.369-4.127-1.124-1.122.012-3.498 1.66-2.845 1.632.649 3.097 1.608 4.717 2.284a26.831 26.831 0 0 0 4.486 1.407c3.066.689 6.319.839 9.436.411 11.254-1.538 20.023-10.87 21.753-21.935.479-3.065.47-6.18.438-9.276l-.036-3.393c-.027-2.838-.037-5.678.067-8.515.133-3.651.391-7.299.737-10.935l.18-1.892c.214-2.213.455-4.444.871-6.627-.34.018-3.025-4.568-4.515-7.131-.544-.43-1.003-.966-1.181-1.658a2.509 2.509 0 0 1-.067-.437 23.864 23.864 0 0 0-1.025-1.481l-.079-.035a2.283 2.283 0 0 1-.135-.067 5.13 5.13 0 0 1-2.267-2.72 26.53 26.53 0 0 0-2.015-1.788c-.07-.055-.141-.106-.211-.16-.896-.335-1.683-.838-2.257-1.563-.24-.148-.481-.294-.724-.436-.731-.007-1.469-.176-2.188-.471-1.314-.54-2.363-1.604-3.683-2.098-1.396-.521-2.867.664-4.35.45a3.844 3.844 0 0 1-1.103-.336c-.835.883-1.722 1.716-2.699 2.445-1.418 1.058-2.869 1.542-4.513 2.02-.815.772-1.727 1.52-2.827 1.63-2.546 2.032-5.269 3.747-8.134 5.338a2.816 2.816 0 0 1-1.354.375c-.899.563-1.88.996-2.916 1.296a2.47 2.47 0 0 1-.989.074l-.899.731c-.626.509-1.294.752-1.932.768-.389.297-.792.578-1.206.849-.444.29-1.02.41-1.599.375-.884.864-2.03.954-2.99.557a4.676 4.676 0 0 1-1.064.469 4.748 4.748 0 0 1-3.934 1.494c-1.096.671-2.373 1.02-3.62.941-.19.955-.348 1.913-.481 2.874l-.014.705a11.06 11.06 0 0 0 0 .261l.001.023c.122 3.088.189 6.176.309 9.264l.011.244c.138 2.697.802 7.615-3.168 7.508-1.48-.04-2.948-1.128-4.1-2.022l-.163-.127a74.105 74.105 0 0 1-.27-.21c-.861-.112-1.71-.321-2.579-.353a12.668 12.668 0 0 0-3.248.316c-1.845.428-3.631 1.267-4.834 2.787a5.369 5.369 0 0 0-.296.413 2.207 2.207 0 0 1-.424.784c-1.139 2.556-.481 5.934.777 8.273 1.5 2.785 3.873 4.711 6.857 5.681l.149.048c2.039.636 2.819 1.868 3.927 3.581 1.038 1.607 2.23 3.105 3.508 4.527 2.475 2.752 5.949 5.023 7.388 8.506.291.701-.542 1.362-1.186 1.182-2.525-.708-4.296-2.504-6.131-4.289a55.94 55.94 0 0 1-3.639-3.874c-.24.111-.505.186-.78.219-1.216.149-2.471.087-3.535-.567a1.828 1.828 0 0 1-1.382-.473 6.148 6.148 0 0 1-.903-1.033c-.385.034-.764.044-1.125-.016a1.441 1.441 0 0 1-.498-.137 2.2 2.2 0 0 1-.81-.556c-.507-.544-.702-1.312-.608-2.041a2.68 2.68 0 0 1-1.825-1.378 5.694 5.694 0 0 1-1.534-1.263 5.5 5.5 0 0 1-1.084-1.967 4.7 4.7 0 0 1-.655-.368c-1.506-1.018-2.368-2.928-1.777-4.694l.02-.055c.03-.08.085-.215.151-.368-.009-.125-.019-.249-.026-.374l-.021-.376-.302-.128c-1.504-.597-2.521-1.404-2.702-3.094-.038-.35.098-.706.313-1.004l-.001-.094a3.748 3.748 0 0 1-.273-.154c-.82-.524-1.324-1.461-1.268-2.431.052-.883.542-1.588 1.093-2.239l.158-.183.043-.049-.364-.115a3.494 3.494 0 0 1-.609-.237c-.603-.337-1.114-.793-1.429-1.373-.046-.071-.093-.142-.135-.219-.407-.741-.46-1.691-.197-2.487.031-.094.071-.182.112-.27-1.108-.39-1.962-1.197-2.065-2.683a3 3 0 0 1 .367-1.665 3.47 3.47 0 0 1-.035-1.028c-.39-.368-.693-.811-.828-1.352-.256-1.021.213-1.993.909-2.884-.258-.705-.271-1.5.023-2.209a3.786 3.786 0 0 1-.181-1.113 3.62 3.62 0 0 1 .679-2.166c-.596-.728-.879-1.695-.527-2.601.25-.644.537-1.234.867-1.779a3.611 3.611 0 0 1-.274-1.401c0-.937.351-1.679.889-2.286-.233-1.109.241-2.46 1.276-2.948.39-.184.912-.376 1.487-.526a62.623 62.623 0 0 1 1.885-5.115 8.1 8.1 0 0 1-.771.598c-.844 1.07-1.962 1.999-2.902 2.554-1.864 1.1-3.995.448-4.916-1.394-.864.645-1.902 1.026-3.009.896-1.255-.148-2.403-.96-2.716-2.226a2.565 2.565 0 0 1-.076-.581c-.72.512-1.473.983-2.299 1.252-1.053.344-2.127-.48-2.266-1.507a1.738 1.738 0 0 1 .184-1.07l-.103-.04a2.326 2.326 0 0 1-1.235-1.3c-1.195.462-2.563-.08-2.943-1.392a9.166 9.166 0 0 1-.125-4.66c-1.266-.918-2.091-2.463-2.232-4.078-.102-1.16.175-2.23.663-3.22-1.198-.447-1.61-2.014-1.04-3.144-.756-.432-1.25-1.348-1.26-2.24-.338-.51-.446-1.169-.166-1.906.37-.971 1.122-1.784 1.983-2.42a7.82 7.82 0 0 1-.828-2.102 1.944 1.944 0 0 1-1.407-1.65c-.147-1.086.569-2.006 1.532-2.249.106-.33.237-.653.398-.964-.477-1.127-.406-2.551.208-3.783.544-1.09 1.43-1.756 2.495-2.216-.27-.927.088-1.851.99-2.54a13.233 13.233 0 0 1 3.581-1.939c-.112-1.508.519-3.053 2.011-3.578.399-.14.815-.193 1.237-.191.306-.665.817-1.206 1.485-1.685 1.009-.724 2.896-.282 3.456.854l.028.058c.028.065.059.123.088.186a2.954 2.954 0 0 1 .801-1.5c1.06-1.067 2.179-1.087 3.256-.63.198-.49.437-.955.728-1.38 1.056-1.544 2.8-1.74 4.078-.904.512-.45 1.083-.797 1.715-.994Zm7.55 92.815c2.126-.831 4.706-.585 6.808.213l.154.06c1.856.733 4.871 2.363 5.234 4.448.189 1.079-.839 2.013-1.883 1.445-.908-.494-1.417-1.488-2.139-2.209-.714-.714-1.514-1.287-2.387-1.791-1.82-1.049-3.734-1.457-5.787-1.76-.231-.032-.168-.34 0-.406Z" clip-rule="evenodd"></path><path fill="#000" fill-rule="evenodd" d="M184.14 151.975a10.206 10.206 0 0 1-4.289-3.296c-.383-.508-.482-1.046-.402-1.537a2.224 2.224 0 0 1 .864-1.389c.448-.337 1.008-.503 1.55-.418.47.073.938.331 1.309.864l.078.107a6.748 6.748 0 0 0 2.476 2.075c.935.45 1.982.66 3.064.538 2.063-.233 3.484-1.346 4.995-2.859.187-.191.374-.388.563-.588a.887.887 0 0 1 .467-.359 1.03 1.03 0 0 1 1.151.393c.116.17.182.38.16.621-.138 1.567-.959 2.966-2.124 4.064-1.295 1.22-3.011 2.064-4.626 2.36-1.78.326-3.594.093-5.236-.576Zm6.075-24.179c1.894 1.149 4.779 3.83 2.742 6.679-2.398 2.512-5.85-.368-7.551-1.671-1.578-1.01-3.35 1.587-1.886 2.766 12.293 9.088 17.281-7.473 7.653-9.125-1.06-.182-1.454.996-.958 1.351Zm-22.029-10.572c.209-2.593 4.164-3.182 4.558-.616.352 2.299-.063 4.41-1.1 6.48-.99 1.977-3.481 1.055-3.669-.746-.252-2.413.081-3.505.211-5.118Zm30.107-1.148c.551-.721 1.348-1.213 2.301-.935 2.981.869 2.102 5.094 1.056 7.151-.569 1.117-2.407 1.4-3.238.417-1.354-1.604-2.003-4.806-.281-6.386.046-.081.098-.164.162-.247Zm-26.691-10.199.471-.082c1.457-.252 3.267-.493 4.298.676.546.62.734 1.772 0 2.365-1.292 1.045-2.721.64-4.269.728a16.987 16.987 0 0 0-3.731.635c-2.696.77-4.893 2.174-7.196 3.717-.302.202-.61-.184-.466-.466 1.329-2.6 3.905-4.735 6.486-6.037 1.377-.695 2.884-1.272 4.407-1.536Zm23.974-1.165.361.074c3.921.818 9.015 2.453 10.872 6.299.071.544-.004.661-.065.737l-.02.025c-.05.065-.09.155-.326.229a8.275 8.275 0 0 1-.199-.05c-.851-.222-1.524-.529-2.176-.848l-.707-.347c-.82-.402-1.647-.789-2.524-1.075a29.853 29.853 0 0 0-5.751-1.268c-.423-.049-.831-.192-1.153-.437a1.722 1.722 0 0 1-.645-.981c-.138-.553-.099-.972.199-1.471a1.86 1.86 0 0 1 .91-.783 2.138 2.138 0 0 1 1.224-.104Z" clip-rule="evenodd"></path></svg>